<svg width="237" height="46" viewBox="0 0 237 46" fill="none" xmlns="http://www.w3.org/2000/svg">
<g clip-path="url(#clip0_49_14652)">
<path d="M0 3.72998H89.3607V5.57054H0V3.72998Z" fill="#FF3C03"/>
<path d="M171.651 3.85488C173.393 3.6222 175.159 3.6222 176.902 3.85488C178.911 4.12279 180.835 4.83455 182.534 5.93852C183.933 6.87126 185.136 8.06731 186.077 9.45989C187.085 7.96088 188.398 6.69216 189.931 5.73711C191.709 4.66865 193.702 4.0069 195.766 3.79932C199.363 3.41732 203.218 3.86877 206.309 5.88297C207.748 6.81897 208.982 8.03839 209.934 9.46684C211.239 7.51093 213.065 5.95914 215.206 4.987C217.351 4.06332 219.671 3.61775 222.006 3.68124C224.315 3.64854 226.603 4.12272 228.708 5.07034C231.59 6.44691 233.853 8.85293 235.049 11.8144C235.729 13.5197 236.13 15.323 236.237 17.1555V19.892C236.143 21.5448 235.837 23.1788 235.327 24.7539C234.406 27.5777 232.555 30.0063 230.076 31.6438C228.227 32.8109 226.128 33.5248 223.95 33.7274C220.478 34.0678 216.824 33.6372 213.831 31.7688C212.275 30.7844 210.947 29.4798 209.934 27.9419C208.944 29.4558 207.644 30.7434 206.121 31.7202C204.328 32.8255 202.307 33.5072 200.211 33.7136C196.738 34.0817 193.015 33.6649 189.987 31.7758C188.424 30.7924 187.092 29.482 186.084 27.9349C184.6 30.2114 182.423 31.9501 179.874 32.894C177.808 33.615 175.622 33.931 173.436 33.8247C171.272 33.7861 169.141 33.2865 167.185 32.3592C164.556 31.042 162.461 28.8589 161.254 26.1777C160.379 24.2042 159.884 22.0835 159.795 19.9267C159.632 17.6554 159.867 15.3731 160.489 13.1827C161.327 10.2974 163.132 7.78842 165.601 6.07744C167.412 4.86522 169.486 4.10321 171.651 3.85488ZM172.748 6.92479C171.46 7.07807 170.228 7.54033 169.157 8.27221C167.753 9.30137 166.682 10.7219 166.081 12.3562C165.361 14.3762 165.022 16.5121 165.08 18.6557C165.03 20.9658 165.422 23.2643 166.233 25.4276C166.853 27.0528 167.956 28.449 169.394 29.4282C170.982 30.3988 172.837 30.8436 174.693 30.6992C176.268 30.6693 177.802 30.1871 179.11 29.3101C180.627 28.1833 181.751 26.6091 182.326 24.8094C183.029 22.5953 183.339 20.2753 183.243 17.9542C183.249 15.8393 182.824 13.7454 181.993 11.8005C181.277 10.1704 180.061 8.81057 178.52 7.91799C176.744 7.00118 174.725 6.66587 172.748 6.95951M196.655 6.95951C195.288 7.11154 193.984 7.61395 192.869 8.41807C191.466 9.50855 190.413 10.9863 189.841 12.6687C189.137 14.8129 188.836 17.0687 188.952 19.3225C188.961 21.4134 189.345 23.4857 190.084 25.4415C190.711 27.0912 191.832 28.5076 193.293 29.4976C194.953 30.4925 196.89 30.9237 198.815 30.727C200.394 30.6441 201.913 30.0982 203.183 29.1573C204.596 28.0303 205.642 26.5101 206.191 24.7886C206.914 22.479 207.218 20.0584 207.087 17.6417C207.072 15.4381 206.561 13.2662 205.594 11.2866C204.821 9.79878 203.609 8.58588 202.121 7.81381C200.413 7.01257 198.509 6.7254 196.641 6.9873M221.103 6.84144C219.684 6.91056 218.307 7.34866 217.109 8.11247C215.678 9.08716 214.573 10.4686 213.935 12.0783C213.181 14.0291 212.806 16.106 212.831 18.1973C212.752 20.4852 213.081 22.7689 213.803 24.9414C214.384 26.6795 215.488 28.1956 216.963 29.2823C218.561 30.3248 220.457 30.8129 222.36 30.6714C223.942 30.6419 225.482 30.1599 226.798 29.2823C228.27 28.2255 229.384 26.7451 229.993 25.0386C230.726 22.8824 231.067 20.6125 231 18.3362C231.055 16.0585 230.617 13.7958 229.715 11.7033C228.989 10.0739 227.76 8.72033 226.208 7.84159C224.637 7.02756 222.865 6.68049 221.103 6.84144Z" fill="#FF3C03"/>
<path d="M136.847 4.25732H156.475L147.779 14.0644C149.941 14.2055 152.037 14.8706 153.884 16.0022C155.302 16.9456 156.356 18.3446 156.871 19.968C157.423 21.7678 157.528 23.675 157.177 25.5244C156.807 27.2418 156.008 28.8378 154.856 30.1638C153.703 31.4899 152.234 32.503 150.585 33.1089C148.389 33.8656 146.042 34.0824 143.744 33.7409C141.596 33.5301 139.549 32.7243 137.833 31.4142C136.549 30.4124 135.584 29.0586 135.055 27.5178C134.743 26.5509 134.588 25.5402 134.597 24.5243C135.986 24.5243 137.319 24.5243 138.681 24.5243C138.64 25.7826 138.961 27.0261 139.604 28.1081C140.108 28.7857 140.747 29.3506 141.482 29.7668C142.216 30.183 143.029 30.4413 143.869 30.5252C145.581 30.8594 147.349 30.7543 149.009 30.2196C150.581 29.6156 151.852 28.4149 152.544 26.8788C153.129 25.4822 153.349 23.9596 153.183 22.4545C153.123 20.9021 152.451 19.4365 151.315 18.3775C149.835 17.2713 148.055 16.6393 146.21 16.5647C144.591 16.4421 142.966 16.4421 141.348 16.5647C144.001 13.4717 146.666 10.3879 149.342 7.31334H136.84L136.847 4.25732Z" fill="#FF3C03"/>
<path d="M0 7.39014H11.9601V34.0261H8.23736V11.0643H0V7.39014Z" fill="#FF3C03"/>
<path d="M15.3218 7.39014H30.1018V11.0643H19.0376V18.6488H29.2683V22.3229H19.0376V30.3728H30.7477V34.0469H15.3218V7.39014Z" fill="white"/>
<path d="M34.1301 7.39025H39.3184C42.5828 14.3357 45.8819 21.2326 49.1602 28.1573C52.4801 21.2118 55.7978 14.2871 59.1131 7.3833H63.9263V34.0193H60.2105C60.2105 26.6848 60.2105 19.3504 60.2105 12.0229C60.009 12.5577 59.884 13.1272 59.6409 13.6551C56.4807 20.4408 53.2858 27.2127 50.1326 34.0054C49.438 34.0054 48.7435 34.0054 48.0489 34.0054C44.9165 27.303 41.7424 20.6145 38.5961 13.9121C38.2985 13.135 38.0526 12.3392 37.8599 11.5298C37.8599 19.0239 37.8599 26.5181 37.8599 34.0193H34.1301V7.39025Z" fill="white"/>
<path d="M67.274 7.4043H76.8241C78.9494 7.4043 81.1442 7.4043 83.1792 8.09885C84.5458 8.55315 85.7168 9.45957 86.4992 10.6687C87.6471 12.4877 88.057 14.6765 87.6452 16.7877C87.3554 18.483 86.5187 20.0368 85.2629 21.2119C83.981 22.2253 82.4365 22.8518 80.8108 23.0178C79.1031 23.218 77.3827 23.29 75.6642 23.2331H70.844V34.0472H67.274V7.4043ZM70.844 10.5506C70.844 13.7247 70.844 16.8918 70.844 20.0659H76.9352C78.1913 20.1222 79.4495 20.0172 80.6788 19.7534C81.6051 19.5574 82.4446 19.0707 83.0751 18.3643C83.4925 17.8275 83.7965 17.2115 83.9684 16.5536C84.1403 15.8957 84.1767 15.2097 84.0752 14.5373C84.0144 13.8915 83.8116 13.2672 83.4814 12.7089C83.1512 12.1506 82.7018 11.6721 82.1652 11.3077C81.1581 10.6131 79.894 10.6131 78.6924 10.5714C76.0948 10.5298 73.4694 10.5575 70.844 10.5506Z" fill="white"/>
<path d="M111.503 0H112.441V3.63944C116.35 3.77491 120.062 5.39121 122.824 8.16095C125.513 10.8741 127.077 14.5041 127.2 18.3222H130.895V19.246C129.666 19.246 128.436 19.246 127.207 19.246C127.102 22.8303 125.728 26.2611 123.331 28.928C121.944 30.4625 120.263 31.7026 118.387 32.5748C116.512 33.4469 114.48 33.9334 112.413 34.0051V37.5543H111.503V34.0121C109.479 33.9601 107.485 33.5094 105.635 32.6859C103.786 31.8624 102.117 30.6821 100.724 29.2127C98.1585 26.5145 96.6753 22.967 96.5563 19.246H92.9933V18.3222H96.5633C96.6335 16.2634 97.123 14.2407 98.002 12.3776C98.881 10.5146 100.131 8.85053 101.675 7.48724C104.392 5.09456 107.863 3.73263 111.482 3.63944C111.482 2.42398 111.482 1.21546 111.482 0M101.988 9.1611C99.5719 11.6115 98.1598 14.8768 98.0288 18.3153C98.9942 18.3153 99.9527 18.3153 100.918 18.3153C101.026 15.9935 101.873 13.767 103.335 11.9601L104.071 12.7033C102.816 14.3151 102.089 16.2748 101.988 18.3153H106.009V19.239H101.981C102.062 21.3109 102.79 23.3053 104.064 24.9413L103.321 25.6844C101.844 23.8519 100.999 21.5911 100.911 19.239H98.0288C98.1464 22.7563 99.608 26.0946 102.113 28.5668C104.628 31.0452 107.987 32.4816 111.517 32.5883V29.8101C109.157 29.7047 106.889 28.8591 105.037 27.393C105.282 27.143 105.532 26.8999 105.787 26.6637C107.435 27.9405 109.435 28.68 111.517 28.7821C111.517 27.393 111.517 26.0664 111.517 24.7121H112.455V28.7821C114.532 28.6878 116.532 27.9608 118.185 26.6985L118.928 27.4416C117.074 28.8968 114.809 29.7325 112.455 29.8309V32.6091C115.712 32.4767 118.823 31.2173 121.255 29.046C122.635 27.8041 123.751 26.2957 124.534 24.6116C125.317 22.9274 125.751 21.1023 125.811 19.246C124.901 19.246 123.991 19.246 123.081 19.246C122.986 21.6052 122.136 23.8716 120.657 25.7122L119.907 24.976C121.204 23.3392 121.949 21.3328 122.032 19.246H117.983V18.3222H122.032C121.915 16.2685 121.171 14.3001 119.9 12.6825L120.636 11.9462C122.109 13.7569 122.963 15.9912 123.074 18.3222H125.811C125.739 16.4659 125.291 14.6435 124.495 12.9651C123.698 11.2866 122.57 9.78703 121.178 8.55685C118.758 6.43173 115.68 5.20532 112.462 5.0841C112.462 6.0148 112.462 6.94549 112.462 7.8623C114.813 7.9523 117.074 8.79193 118.914 10.2585C118.664 10.4946 118.421 10.7447 118.178 10.953C116.528 9.69373 114.534 8.9669 112.462 8.86939V12.8144H111.503C111.503 11.5017 111.503 10.189 111.503 8.86939C109.427 8.96198 107.429 9.68925 105.78 10.953C105.53 10.7099 105.287 10.4599 105.044 10.2168C106.89 8.75486 109.15 7.91376 111.503 7.81368V5.03548C107.928 5.15012 104.532 6.62588 102.009 9.1611H101.988Z" fill="#FF3C03"/>
<path d="M111.413 17.0859C111.829 16.9747 112.27 17.0116 112.662 17.1903C113.053 17.369 113.37 17.6783 113.559 18.0652C113.755 18.4899 113.781 18.9738 113.631 19.4171C113.481 19.8603 113.167 20.2292 112.753 20.4475C112.533 20.561 112.292 20.6292 112.044 20.6479C111.797 20.6666 111.549 20.6356 111.314 20.5566C111.079 20.4776 110.862 20.3522 110.676 20.1879C110.49 20.0237 110.339 19.8238 110.232 19.6002C110.123 19.3596 110.068 19.0983 110.07 18.8343C110.072 18.5703 110.131 18.3099 110.243 18.0709C110.355 17.8319 110.518 17.6201 110.72 17.4501C110.922 17.28 111.158 17.1558 111.413 17.0859Z" fill="white"/>
<path d="M8.20871 43.3399L8.62648 43.0224C8.89385 43.4123 9.21507 43.6073 9.59014 43.6073C9.77953 43.6073 9.93178 43.5609 10.0469 43.468C10.1657 43.3752 10.2252 43.2508 10.2252 43.0948C10.2252 42.9686 10.1862 42.8702 10.1082 42.7996C10.0302 42.7253 9.88908 42.6399 9.68484 42.5434L9.2782 42.354C8.99226 42.224 8.77688 42.081 8.63205 41.9251C8.49094 41.7654 8.42038 41.5686 8.42038 41.3346C8.42038 41.0412 8.53179 40.8017 8.7546 40.616C8.97741 40.4304 9.25221 40.3375 9.579 40.3375C9.83523 40.3375 10.0673 40.3969 10.2753 40.5158C10.487 40.6346 10.6504 40.7943 10.7655 40.9948L10.3533 41.3123C10.1527 41.0153 9.89465 40.8667 9.579 40.8667C9.4156 40.8667 9.28192 40.9057 9.17794 40.9837C9.07396 41.0617 9.02197 41.1712 9.02197 41.3123C9.02568 41.3792 9.03311 41.4349 9.04425 41.4794C9.05911 41.5203 9.09438 41.5649 9.15009 41.6131C9.20579 41.6577 9.24478 41.6855 9.26706 41.6967C9.28934 41.7078 9.36176 41.745 9.4843 41.8081C9.50659 41.8192 9.5233 41.8285 9.53444 41.8359L9.94664 42.0253C10.2549 42.1664 10.4777 42.3168 10.6151 42.4765C10.7562 42.6362 10.8267 42.8349 10.8267 43.0725C10.8267 43.3882 10.7098 43.6444 10.4758 43.8412C10.2456 44.0381 9.95221 44.1365 9.59571 44.1365C9.29863 44.1365 9.0294 44.0659 8.78802 43.9248C8.54664 43.7837 8.35354 43.5887 8.20871 43.3399ZM11.3592 42.237C11.3481 41.7134 11.5356 41.2641 11.9218 40.889C12.308 40.5139 12.7648 40.3301 13.2921 40.3375C13.6263 40.3375 13.9327 40.4137 14.2112 40.5659C14.4897 40.7182 14.7088 40.9243 14.8685 41.1842L14.4229 41.5129C14.1518 41.0895 13.7767 40.8779 13.2977 40.8779C12.9189 40.8779 12.6033 41.0078 12.3507 41.2678C12.0982 41.524 11.972 41.8471 11.972 42.237C11.972 42.6269 12.0982 42.9519 12.3507 43.2118C12.6033 43.468 12.9189 43.5962 13.2977 43.5962C13.7767 43.5962 14.1518 43.3845 14.4229 42.9611L14.8685 43.2898C14.7088 43.5534 14.4897 43.7614 14.2112 43.9137C13.9364 44.0622 13.63 44.1365 13.2921 44.1365C12.7648 44.1439 12.308 43.9601 11.9218 43.585C11.5356 43.2099 11.3481 42.7606 11.3592 42.237ZM15.5748 44.0752V40.3988H16.1653V44.0752H15.5748ZM17.0925 44.0752V40.3988H19.51V40.928H17.6829V41.8694H19.0588V42.3818H17.6829V43.546H19.5768V44.0752H17.0925ZM22.7036 40.3988H23.2941V44.1365H23.0936L20.8543 41.5853V44.0752H20.2639V40.3375H20.47L22.7036 42.8776V40.3988ZM25.0874 44.0752V40.928H23.8508V40.3988H26.92V40.928H25.6778V44.0752H25.0874ZM27.4715 44.0752V40.3988H28.062V44.0752H27.4715ZM28.9892 44.0752V40.3988H31.351V40.928H29.5796V42.0253H31.0391V42.5601H29.5796V44.0752H28.9892ZM31.9375 44.0752V40.3988H32.528V44.0752H31.9375ZM33.2324 42.237C33.2213 41.7134 33.4088 41.2641 33.795 40.889C34.1812 40.5139 34.638 40.3301 35.1653 40.3375C35.4995 40.3375 35.8059 40.4137 36.0844 40.5659C36.3629 40.7182 36.582 40.9243 36.7417 41.1842L36.2961 41.5129C36.025 41.0895 35.6499 40.8779 35.1709 40.8779C34.7921 40.8779 34.4764 41.0078 34.2239 41.2678C33.9714 41.524 33.8451 41.8471 33.8451 42.237C33.8451 42.6269 33.9714 42.9519 34.2239 43.2118C34.4764 43.468 34.7921 43.5962 35.1709 43.5962C35.6499 43.5962 36.025 43.3845 36.2961 42.9611L36.7417 43.2898C36.582 43.5534 36.3629 43.7614 36.0844 43.9137C35.8096 44.0622 35.5032 44.1365 35.1653 44.1365C34.638 44.1439 34.1812 43.9601 33.795 43.585C33.4088 43.2099 33.2213 42.7606 33.2324 42.237ZM37.2042 42.5545V42.0588H38.5745V42.5545H37.2042ZM39.3084 44.0752V40.3988H40.6508C41.0222 40.3988 41.3229 40.5046 41.5532 40.7163C41.7834 40.9243 41.8985 41.1935 41.8985 41.524C41.8985 41.8545 41.7816 42.1256 41.5476 42.3373C41.3174 42.5489 41.0184 42.6548 40.6508 42.6548H39.8988V44.0752H39.3084ZM39.8988 42.1312H40.6397C40.8439 42.1312 41.0036 42.0773 41.1187 41.9696C41.2338 41.8619 41.2914 41.7153 41.2914 41.5296C41.2914 41.3439 41.2338 41.1972 41.1187 41.0895C41.0036 40.9781 40.8439 40.9224 40.6397 40.9224H39.8988V42.1312ZM45.5416 44.0752H44.8676L43.8203 42.6548H43.1463V44.0752H42.5559V40.3988H43.8983C44.2697 40.3988 44.5705 40.5046 44.8007 40.7163C45.0309 40.9243 45.1461 41.1935 45.1461 41.524C45.1461 41.7654 45.0829 41.9771 44.9567 42.159C44.8341 42.341 44.6615 42.4747 44.4386 42.5601L45.5416 44.0752ZM43.1463 40.9224V42.1312H43.8872C44.0877 42.1312 44.2455 42.0773 44.3607 41.9696C44.4795 41.8582 44.5389 41.7115 44.5389 41.5296C44.5389 41.3476 44.4795 41.2009 44.3607 41.0895C44.2455 40.9781 44.0877 40.9224 43.8872 40.9224H43.1463ZM45.7655 42.237C45.7581 41.7134 45.9456 41.2641 46.3281 40.889C46.7106 40.5139 47.1655 40.3301 47.6929 40.3375C48.2165 40.3301 48.6714 40.5139 49.0576 40.889C49.4475 41.2641 49.6369 41.7134 49.6258 42.237C49.6369 42.7606 49.4475 43.2099 49.0576 43.585C48.6714 43.9601 48.2165 44.1439 47.6929 44.1365C47.1655 44.1439 46.7088 43.9601 46.3226 43.585C45.9401 43.2099 45.7544 42.7606 45.7655 42.237ZM49.0186 42.2314C49.0186 41.8452 48.8923 41.524 48.6398 41.2678C48.3873 41.0078 48.0735 40.8779 47.6984 40.8779C47.3197 40.8779 47.004 41.006 46.7515 41.2622C46.5027 41.5184 46.3783 41.8415 46.3783 42.2314C46.3783 42.6251 46.5027 42.9519 46.7515 43.2118C47.0003 43.468 47.3159 43.5962 47.6984 43.5962C48.0735 43.5962 48.3873 43.4662 48.6398 43.2062C48.8923 42.9463 49.0186 42.6214 49.0186 42.2314ZM50.3347 44.0752V40.3988H51.4877C52.0856 40.3988 52.5684 40.5678 52.936 40.9057C53.3037 41.2436 53.4875 41.6855 53.4875 42.2314C53.4875 42.7699 53.3018 43.2118 52.9305 43.5572C52.5628 43.9025 52.0819 44.0752 51.4877 44.0752H50.3347ZM50.9251 43.546H51.4822C51.9055 43.546 52.2434 43.4253 52.496 43.1839C52.7522 42.9389 52.8803 42.6214 52.8803 42.2314C52.8803 41.8378 52.7541 41.524 52.5015 41.2901C52.249 41.0524 51.9092 40.9336 51.4822 40.9336H50.9251V43.546ZM54.1525 42.5879V40.3988H54.7429V42.6269C54.7429 42.9314 54.8265 43.1691 54.9936 43.3399C55.1644 43.5107 55.3891 43.5962 55.6676 43.5962C55.9424 43.5962 56.1634 43.5107 56.3305 43.3399C56.4976 43.1691 56.5811 42.9314 56.5811 42.6269V40.3988H57.1716V42.5879C57.1716 43.0633 57.0305 43.4402 56.7482 43.7187C56.4697 43.9972 56.1095 44.1365 55.6676 44.1365C55.2183 44.1365 54.8525 43.9972 54.5703 43.7187C54.2917 43.4402 54.1525 43.0633 54.1525 42.5879ZM57.8363 42.237C57.8252 41.7134 58.0127 41.2641 58.3989 40.889C58.7851 40.5139 59.2419 40.3301 59.7692 40.3375C60.1034 40.3375 60.4098 40.4137 60.6883 40.5659C60.9668 40.7182 61.1859 40.9243 61.3456 41.1842L60.9 41.5129C60.6289 41.0895 60.2538 40.8779 59.7748 40.8779C59.396 40.8779 59.0803 41.0078 58.8278 41.2678C58.5753 41.524 58.449 41.8471 58.449 42.237C58.449 42.6269 58.5753 42.9519 58.8278 43.2118C59.0803 43.468 59.396 43.5962 59.7748 43.5962C60.2538 43.5962 60.6289 43.3845 60.9 42.9611L61.3456 43.2898C61.1859 43.5534 60.9668 43.7614 60.6883 43.9137C60.4135 44.0622 60.1071 44.1365 59.7692 44.1365C59.2419 44.1439 58.7851 43.9601 58.3989 43.585C58.0127 43.2099 57.8252 42.7606 57.8363 42.237ZM62.9153 44.0752V40.928H61.6787V40.3988H64.7479V40.928H63.5057V44.0752H62.9153ZM65.2994 44.0752V40.3988H65.8899V44.0752H65.2994ZM66.5943 42.237C66.5869 41.7134 66.7744 41.2641 67.1569 40.889C67.5394 40.5139 67.9943 40.3301 68.5216 40.3375C69.0452 40.3301 69.5001 40.5139 69.8863 40.889C70.2762 41.2641 70.4656 41.7134 70.4545 42.237C70.4656 42.7606 70.2762 43.2099 69.8863 43.585C69.5001 43.9601 69.0452 44.1439 68.5216 44.1365C67.9943 44.1439 67.5375 43.9601 67.1513 43.585C66.7688 43.2099 66.5831 42.7606 66.5943 42.237ZM69.8473 42.2314C69.8473 41.8452 69.7211 41.524 69.4685 41.2678C69.216 41.0078 68.9022 40.8779 68.5272 40.8779C68.1484 40.8779 67.8327 41.006 67.5802 41.2622C67.3314 41.5184 67.207 41.8415 67.207 42.2314C67.207 42.6251 67.3314 42.9519 67.5802 43.2118C67.829 43.468 68.1447 43.5962 68.5272 43.5962C68.9022 43.5962 69.216 43.4662 69.4685 43.2062C69.7211 42.9463 69.8473 42.6214 69.8473 42.2314ZM73.6032 40.3988H74.1937V44.1365H73.9931L71.7539 41.5853V44.0752H71.1634V40.3375H71.3695L73.6032 42.8776V40.3988ZM76.6848 44.0752V40.3988H79.1023V40.928H77.2752V41.8694H78.6511V42.3818H77.2752V43.546H79.1691V44.0752H76.6848ZM82.2959 40.3988H82.8864V44.1365H82.6858L80.4466 41.5853V44.0752H79.8561V40.3375H80.0622L82.2959 42.8776V40.3988ZM84.6796 44.0752V40.928H83.443V40.3988H86.5123V40.928H85.2701V44.0752H84.6796ZM87.0638 44.0752V40.3988H89.4813V40.928H87.6542V41.8694H89.0301V42.3818H87.6542V43.546H89.5481V44.0752H87.0638ZM93.2208 44.0752H92.5468L91.4996 42.6548H90.8256V44.0752H90.2351V40.3988H91.5776C91.9489 40.3988 92.2497 40.5046 92.48 40.7163C92.7102 40.9243 92.8253 41.1935 92.8253 41.524C92.8253 41.7654 92.7622 41.9771 92.6359 42.159C92.5134 42.341 92.3407 42.4747 92.1179 42.5601L93.2208 44.0752ZM90.8256 40.9224V42.1312H91.5664C91.767 42.1312 91.9248 42.0773 92.0399 41.9696C92.1588 41.8582 92.2182 41.7115 92.2182 41.5296C92.2182 41.3476 92.1588 41.2009 92.0399 41.0895C91.9248 40.9781 91.767 40.9224 91.5664 40.9224H90.8256ZM93.7492 44.0752V40.3988H95.0916C95.463 40.3988 95.7638 40.5046 95.994 40.7163C96.2243 40.9243 96.3394 41.1935 96.3394 41.524C96.3394 41.8545 96.2224 42.1256 95.9885 42.3373C95.7582 42.5489 95.4593 42.6548 95.0916 42.6548H94.3397V44.0752H93.7492ZM94.3397 42.1312H95.0805C95.2847 42.1312 95.4444 42.0773 95.5595 41.9696C95.6747 41.8619 95.7322 41.7153 95.7322 41.5296C95.7322 41.3439 95.6747 41.1972 95.5595 41.0895C95.4444 40.9781 95.2847 40.9224 95.0805 40.9224H94.3397V42.1312ZM99.9824 44.0752H99.3084L98.2612 42.6548H97.5872V44.0752H96.9967V40.3988H98.3392C98.7105 40.3988 99.0113 40.5046 99.2416 40.7163C99.4718 40.9243 99.5869 41.1935 99.5869 41.524C99.5869 41.7654 99.5238 41.9771 99.3975 42.159C99.275 42.341 99.1023 42.4747 98.8795 42.5601L99.9824 44.0752ZM97.5872 40.9224V42.1312H98.328C98.5286 42.1312 98.6864 42.0773 98.8015 41.9696C98.9203 41.8582 98.9797 41.7115 98.9797 41.5296C98.9797 41.3476 98.9203 41.2009 98.8015 41.0895C98.6864 40.9781 98.5286 40.9224 98.328 40.9224H97.5872ZM100.511 44.0752V40.3988H101.101V44.0752H100.511ZM101.767 43.3399L102.184 43.0224C102.452 43.4123 102.773 43.6073 103.148 43.6073C103.337 43.6073 103.49 43.5609 103.605 43.468C103.724 43.3752 103.783 43.2508 103.783 43.0948C103.783 42.9686 103.744 42.8702 103.666 42.7996C103.588 42.7253 103.447 42.6399 103.243 42.5434L102.836 42.354C102.55 42.224 102.335 42.081 102.19 41.9251C102.049 41.7654 101.978 41.5686 101.978 41.3346C101.978 41.0412 102.09 40.8017 102.313 40.616C102.535 40.4304 102.81 40.3375 103.137 40.3375C103.393 40.3375 103.625 40.3969 103.833 40.5158C104.045 40.6346 104.208 40.7943 104.323 40.9948L103.911 41.3123C103.711 41.0153 103.453 40.8667 103.137 40.8667C102.974 40.8667 102.84 40.9057 102.736 40.9837C102.632 41.0617 102.58 41.1712 102.58 41.3123C102.584 41.3792 102.591 41.4349 102.602 41.4794C102.617 41.5203 102.652 41.5649 102.708 41.6131C102.764 41.6577 102.803 41.6855 102.825 41.6967C102.847 41.7078 102.92 41.745 103.042 41.8081C103.065 41.8192 103.081 41.8285 103.092 41.8359L103.505 42.0253C103.813 42.1664 104.036 42.3168 104.173 42.4765C104.314 42.6362 104.385 42.8349 104.385 43.0725C104.385 43.3882 104.268 43.6444 104.034 43.8412C103.804 44.0381 103.51 44.1365 103.154 44.1365C102.857 44.1365 102.587 44.0659 102.346 43.9248C102.105 43.7837 101.912 43.5887 101.767 43.3399ZM105.14 44.0752V40.3988H107.558V40.928H105.73V41.8694H107.106V42.3818H105.73V43.546H107.624V44.0752H105.14Z" fill="white"/>
</g>
<defs>
<clipPath id="clip0_49_14652">
<rect width="236.265" height="46" fill="white"/>
</clipPath>
</defs>
</svg>
