<svg width="175" height="175" viewBox="0 0 175 175" fill="none" xmlns="http://www.w3.org/2000/svg">
<path d="M75.6 75.2502L0.349976 56.7002V117.95L75.6 99.4002" fill="#FFDF00"/>
<path d="M75.6 75.2502L0.349976 56.7002V117.95L75.6 99.4002" stroke="#806600" stroke-width="0.56" stroke-linecap="round" stroke-linejoin="round"/>
<path d="M80.15 94.8502L3.84998 113.75V61.2502L80.15 80.1502" fill="#D50663"/>
<path d="M80.15 94.8502L3.84998 113.75V61.2502L80.15 80.1502" stroke="#806600" stroke-width="0.56" stroke-linecap="round" stroke-linejoin="round"/>
<path d="M75.25 99.4001L56.7 174.65H117.95L99.4 99.4001" fill="#FFDF00"/>
<path d="M75.25 99.4001L56.7 174.65H117.95L99.4 99.4001" stroke="#806600" stroke-width="0.56" stroke-linecap="round" stroke-linejoin="round"/>
<path d="M94.85 94.8504L113.75 171.15H61.25L80.15 94.8504" fill="#D50663"/>
<path d="M94.85 94.8504L113.75 171.15H61.25L80.15 94.8504" stroke="#806600" stroke-width="0.56" stroke-linecap="round" stroke-linejoin="round"/>
<path d="M99.4 99.7503L174.65 118.3V57.0503L99.4 75.6003" fill="#FFDF00"/>
<path d="M99.4 99.7503L174.65 118.3V57.0503L99.4 75.6003" stroke="#806600" stroke-width="0.56" stroke-linecap="round" stroke-linejoin="round"/>
<path d="M94.85 80.1502L171.15 61.2502V113.75L94.85 94.8502" fill="#D50663"/>
<path d="M94.85 80.1502L171.15 61.2502V113.75L94.85 94.8502" stroke="#806600" stroke-width="0.56" stroke-linecap="round" stroke-linejoin="round"/>
<path d="M75.25 75.6001L56.7 0.350098H117.95L99.4 75.6001" fill="#FFDF00"/>
<path d="M75.25 75.6001L56.7 0.350098H117.95L99.4 75.6001" stroke="#806600" stroke-width="0.56" stroke-linecap="round" stroke-linejoin="round"/>
<path d="M94.85 80.1501L113.75 3.8501H61.25L80.15 80.1501" fill="#D50663"/>
<path d="M94.85 80.1501L113.75 3.8501H61.25L80.15 80.1501" stroke="#806600" stroke-width="0.56" stroke-linecap="round" stroke-linejoin="round"/>
<path d="M87.5 121.8C106.443 121.8 121.8 106.444 121.8 87.5002C121.8 68.5568 106.443 53.2002 87.5 53.2002C68.5566 53.2002 53.2 68.5568 53.2 87.5002C53.2 106.444 68.5566 121.8 87.5 121.8Z" fill="#FFDF00" stroke="#806600" stroke-width="0.56" stroke-linecap="round" stroke-linejoin="round"/>
<path d="M87.5 118.3C104.51 118.3 118.3 104.511 118.3 87.5002C118.3 70.4898 104.51 56.7002 87.5 56.7002C70.4896 56.7002 56.7 70.4898 56.7 87.5002C56.7 104.511 70.4896 118.3 87.5 118.3Z" fill="#001788" stroke="#806600" stroke-width="0.56" stroke-linecap="round" stroke-linejoin="round"/>
<path d="M87.5 59.5002C83.65 64.7502 86.45 66.5002 86.135 79.1002C85.925 85.0502 84.175 89.9502 81.585 94.8502C76.685 94.5352 76.335 88.9002 81.06 88.9002C80.045 76.3002 79.1 68.2502 70.56 63.7002V104.3H80.01C80.71 110.25 85.61 113.4 87.36 115.5C89.005 113.47 94.01 110.25 94.71 104.3H104.16V63.7002C95.76 68.2502 94.71 76.3002 93.66 88.9002C98.21 88.7252 97.86 94.5002 93.135 94.8502C90.615 89.9502 88.935 85.0502 88.585 79.1002C88.305 66.5002 91.14 65.1002 87.22 59.5002H87.5ZM73.5 69.6502C77.35 74.9002 77.35 80.1502 78.05 86.8002C76.615 87.5002 75.53 88.8302 75.11 90.3002H73.535L73.5 69.6502ZM101.5 69.6502V90.3002H99.925C99.575 88.5502 98.525 87.5002 96.985 86.8002C97.755 80.1502 97.51 74.9002 101.535 69.6502H101.5ZM87.5 88.5502C88.2 91.0002 89.25 93.4502 90.58 95.5502C89.355 95.9352 88.305 96.6352 87.5 97.6152C86.73 96.6352 85.645 95.9352 84.42 95.5502C85.715 93.3802 86.73 91.0002 87.5 88.5502ZM73.5 93.1002H75.075C76.475 95.9002 77.525 96.9502 80.325 97.3002C79.975 98.5952 79.765 99.9952 79.765 101.5H73.465L73.5 93.1002ZM100.1 93.1002H101.675V101.5H95.375C95.375 100.1 95.025 98.7002 94.815 97.3002C97.475 96.7052 99.015 95.9002 100.065 93.1002H100.1ZM83.3 98.0002C85.05 98.3502 86.45 99.7502 86.31 101.465H82.81C82.81 100.415 83.16 99.0152 83.3 98.0002ZM92.05 98.0002C92.4 99.0502 92.4 100.1 92.54 101.465H89.04C89.04 99.7152 90.44 98.3152 92.05 98.0002ZM82.95 104.3H86.135V110.25C84.735 108.5 83.335 106.75 82.95 104.3ZM88.9 104.3H92.085C91.735 106.4 90.335 108.5 88.9 110.25V104.3Z" fill="#FFDF00" stroke="#806600" stroke-width="0.56" stroke-linecap="round" stroke-linejoin="round"/>
</svg>
