<svg width="166" height="175" viewBox="0 0 166 175" fill="none" xmlns="http://www.w3.org/2000/svg">
<path d="M53.6475 161.23C62.627 164.385 72.4098 165.963 82.6229 165.963C92.836 165.963 102.619 164.385 111.598 161.23L114.18 168.689C105 171.787 94.1557 173.566 82.6229 173.566C71.0901 173.566 60.2459 171.787 51.0656 168.689L53.6475 161.23Z" fill="#FFDD22" stroke="black" stroke-width="0.430328" stroke-linejoin="round"/>
<path d="M20.9426 127.808L30.6967 126.373C26.6229 118.742 24.4713 111.484 23.9549 103.996L19.6516 109.734L14.2008 105.431C14.7172 112.918 16.8688 120.176 20.9426 127.808Z" fill="#FFDD22" stroke="black" stroke-width="0.430328" stroke-linejoin="round"/>
<path d="M20.9426 127.808L25.2459 116.763L35 115.328L30.6967 126.373L20.9426 127.808Z" fill="black" stroke="#CC9944" stroke-width="0.430328" stroke-linejoin="round"/>
<path d="M72.1516 153.34L68.5656 160.799L51.0656 168.258L53.2172 159.795L69.2828 153.197L72.1516 153.34Z" fill="black" stroke="#CC9944" stroke-width="0.430328" stroke-linejoin="round"/>
<path d="M34.9999 115.328L25.2458 116.763C26.5942 140.517 41.9426 153.828 68.4221 161.23L72.1516 153.34C52.6721 148.062 33.4795 136.299 34.9999 115.328Z" fill="#FFDD22" stroke="black" stroke-width="0.430328" stroke-linejoin="round"/>
<path d="M144.303 127.808L134.549 126.373C138.623 118.742 140.775 111.484 141.291 103.996L145.594 109.734L151.045 105.431C150.529 112.918 148.377 120.176 144.303 127.808Z" fill="#FFDD22" stroke="black" stroke-width="0.430328" stroke-linejoin="round"/>
<path d="M144.303 127.808L140 116.763L130.246 115.328L134.549 126.373L144.303 127.808Z" fill="black" stroke="#CC9944" stroke-width="0.430328" stroke-linejoin="round"/>
<path d="M93.0942 153.34L96.6803 160.799L114.18 168.258L112.029 159.795L95.9631 153.197L93.0942 153.34Z" fill="black" stroke="#CC9944" stroke-width="0.430328" stroke-linejoin="round"/>
<path d="M130.246 115.328L140 116.763C138.652 140.517 123.303 153.828 96.8238 161.23L93.0943 153.34C112.574 148.062 131.766 136.299 130.246 115.328Z" fill="#FFDD22" stroke="black" stroke-width="0.430328" stroke-linejoin="round"/>
<path d="M1.14758 82.6231C8.29103 77.2297 12.6804 69.283 23.7828 69.283C38.6435 69.283 42.2009 80.7297 59.0984 82.6231C42.2009 84.5166 38.6435 95.9633 23.7828 95.9633C12.6804 95.9633 8.29103 88.0166 1.14758 82.6231Z" fill="#FFDD22" stroke="black" stroke-width="0.573771" stroke-linecap="round"/>
<path d="M1.14758 82.623H59.0984H1.14758Z" fill="#FFDD22"/>
<path d="M1.14758 82.623H59.0984" stroke="black" stroke-width="0.573771" stroke-linecap="round"/>
<path d="M54.7951 82.3361C44.8689 81.9345 28.6599 70.1722 28.5738 60.5329C28.5165 53.1886 33.7951 48.082 37.8976 48.082C47.0206 48.082 46.0738 57.9509 55.6558 56.2296C55.2542 58.582 51.4673 60.705 48.3689 61.1066C45.5574 61.4796 44.0943 59.0697 42.3156 59.5288C35.2296 61.2501 39.6763 74.246 54.7951 77.4591V82.3361Z" fill="#FFDD22" stroke="black" stroke-width="0.573771" stroke-linecap="round"/>
<path d="M43.6353 59.6436C35.1148 56.0575 29.3197 63.8608 36.5779 70.1321M40.8812 53.3608C34.082 47.537 27.3402 57.1764 29.1189 63.6887" stroke="black" stroke-width="0.573771" stroke-linecap="round"/>
<path d="M58.2378 77.0287C61.6517 76.3976 63.4017 74.2172 65.123 71.5779V82.4795H58.5247L58.2378 77.0287Z" fill="#FFDD22" stroke="black" stroke-width="0.358607" stroke-linecap="round"/>
<path d="M58.2378 78.8935C61.7378 78.8075 63.7747 78.1763 65.123 77.3157V79.3239C62.914 80.0698 60.4181 80.0985 58.2378 80.0411V78.8935Z" fill="black"/>
<path d="M54.7951 82.9102C44.8689 83.3118 28.6599 95.0741 28.5738 104.713C28.5165 112.058 33.7951 117.164 37.8976 117.164C47.0206 117.164 46.0738 107.295 55.6558 109.017C55.2542 106.664 51.4673 104.541 48.3689 104.14C45.5574 103.767 44.0943 106.177 42.3156 105.718C35.2296 103.996 39.6763 91.0004 54.7951 87.7873V82.9102Z" fill="#FFDD22" stroke="black" stroke-width="0.573771" stroke-linecap="round"/>
<path d="M43.6353 105.603C35.1148 109.189 29.3197 101.386 36.5779 95.1145M40.8812 111.886C34.082 117.71 27.3402 108.07 29.1189 101.558" stroke="black" stroke-width="0.573771" stroke-linecap="round"/>
<path d="M58.2378 88.2174C61.6517 88.8485 63.4017 91.0289 65.123 93.6682V82.7666H58.5247L58.2378 88.2174Z" fill="#FFDD22" stroke="black" stroke-width="0.358607" stroke-linecap="round"/>
<path d="M58.2378 86.3528C61.7378 86.4389 63.7747 87.07 65.123 87.9307V85.9225C62.914 85.1766 60.4181 85.1479 58.2378 85.2053V86.3528Z" fill="black"/>
<path d="M58.6681 72.1518C58.6681 70.7258 57.5763 69.5698 56.2295 69.5698C54.8828 69.5698 53.791 70.7258 53.791 72.1518V93.0944C53.791 94.5204 54.8828 95.6764 56.2295 95.6764C57.5763 95.6764 58.6681 94.5204 58.6681 93.0944V72.1518Z" fill="#FFDD22" stroke="black" stroke-width="0.573771" stroke-linecap="round"/>
<path d="M82.623 164.099C77.2296 156.955 69.2828 152.566 69.2828 141.463C69.2828 126.603 80.7296 123.045 82.623 106.148C84.5164 123.045 95.9632 126.603 95.9632 141.463C95.9632 152.566 88.0164 156.955 82.623 164.099Z" fill="#FFDD22" stroke="black" stroke-width="0.573771" stroke-linecap="round"/>
<path d="M82.623 164.099V106.148V164.099Z" fill="#FFDD22"/>
<path d="M82.623 164.099V106.148" stroke="black" stroke-width="0.573771" stroke-linecap="round"/>
<path d="M82.3361 110.451C81.9345 120.378 70.1722 136.587 60.5329 136.673C53.1886 136.73 48.082 131.451 48.082 127.349C48.082 118.226 57.9509 119.173 56.2296 109.591C58.582 109.992 60.705 113.779 61.1066 116.878C61.4796 119.689 59.0697 121.152 59.5288 122.931C61.2501 130.017 74.246 125.57 77.4591 110.451H82.3361Z" fill="#FFDD22" stroke="black" stroke-width="0.573771" stroke-linecap="round"/>
<path d="M59.6434 121.611C56.0574 130.131 63.8607 135.926 70.132 128.668M53.3607 124.365C47.5369 131.164 57.1762 137.906 63.6885 136.127" stroke="black" stroke-width="0.573771" stroke-linecap="round"/>
<path d="M77.0287 107.009C76.3976 103.595 74.2172 101.845 71.5779 100.123H82.4795V106.722L77.0287 107.009Z" fill="#FFDD22" stroke="black" stroke-width="0.358607" stroke-linecap="round"/>
<path d="M78.8934 107.009C78.8074 103.509 78.1762 101.472 77.3156 100.123H79.3237C80.0697 102.332 80.0983 104.828 80.041 107.009H78.8934Z" fill="black"/>
<path d="M82.91 110.451C83.3116 120.378 95.0739 136.587 104.713 136.673C112.058 136.73 117.164 131.451 117.164 127.349C117.164 118.226 107.295 119.173 109.017 109.591C106.664 109.992 104.541 113.779 104.139 116.878C103.767 119.689 106.176 121.152 105.717 122.931C103.996 130.017 91.0001 125.57 87.787 110.451H82.91Z" fill="#FFDD22" stroke="black" stroke-width="0.573771" stroke-linecap="round"/>
<path d="M105.603 121.611C109.189 130.131 101.385 135.926 95.1141 128.668M111.885 124.365C117.709 131.164 108.07 137.906 101.558 136.127" stroke="black" stroke-width="0.573771" stroke-linecap="round"/>
<path d="M88.2174 107.009C88.8485 103.595 91.0289 101.845 93.6682 100.123H82.7666V106.722L88.2174 107.009Z" fill="#FFDD22" stroke="black" stroke-width="0.358607" stroke-linecap="round"/>
<path d="M86.3527 107.009C86.4387 103.509 87.0699 101.472 87.9305 100.123H85.9223C85.1764 102.332 85.1478 104.828 85.2051 107.009H86.3527Z" fill="black"/>
<path d="M72.1517 106.578C70.7257 106.578 69.5697 107.67 69.5697 109.017C69.5697 110.363 70.7257 111.455 72.1517 111.455H93.0943C94.5203 111.455 95.6763 110.363 95.6763 109.017C95.6763 107.67 94.5203 106.578 93.0943 106.578H72.1517Z" fill="#FFDD22" stroke="black" stroke-width="0.573771" stroke-linecap="round"/>
<path d="M82.623 1.14771C88.0164 8.29115 95.9631 12.6805 95.9631 23.783C95.9631 38.6436 84.5164 42.201 82.623 59.0985C80.7295 42.201 69.2828 38.6436 69.2828 23.783C69.2828 12.6805 77.2295 8.29115 82.623 1.14771Z" fill="#FFDD22" stroke="black" stroke-width="0.573771" stroke-linecap="round"/>
<path d="M82.6229 1.14771V59.0985V1.14771Z" fill="#FFDD22"/>
<path d="M82.6229 1.14771V59.0985" stroke="black" stroke-width="0.573771" stroke-linecap="round"/>
<path d="M82.9098 54.795C83.3115 44.8688 95.0738 28.6598 104.713 28.5737C112.057 28.5163 117.164 33.795 117.164 37.8975C117.164 47.0204 107.295 46.0737 109.016 55.6557C106.664 55.254 104.541 51.4672 104.139 48.3688C103.766 45.5573 106.176 44.0942 105.717 42.3155C103.996 35.2294 91 39.6762 87.7869 54.795H82.9098Z" fill="#FFDD22" stroke="black" stroke-width="0.573771" stroke-linecap="round"/>
<path d="M105.603 43.6354C109.189 35.1149 101.385 29.3198 95.114 36.578M111.885 40.8813C117.709 34.0821 108.07 27.3403 101.557 29.119" stroke="black" stroke-width="0.573771" stroke-linecap="round"/>
<path d="M88.2173 58.2378C88.8484 61.6517 91.0287 63.4017 93.6681 65.123H82.7665V58.5247L88.2173 58.2378Z" fill="#FFDD22" stroke="black" stroke-width="0.358607" stroke-linecap="round"/>
<path d="M86.3524 58.2378C86.4385 61.7378 87.0696 63.7747 87.9303 65.123H85.9221C85.1762 62.914 85.1475 60.4181 85.2049 58.2378H86.3524Z" fill="black"/>
<path d="M82.336 54.795C81.9344 44.8688 70.1721 28.6598 60.5327 28.5737C53.1885 28.5163 48.0819 33.795 48.0819 37.8975C48.0819 47.0204 57.9508 46.0737 56.2294 55.6557C58.5819 55.254 60.7049 51.4672 61.1065 48.3688C61.4795 45.5573 59.0696 44.0942 59.5286 42.3155C61.2499 35.2294 74.2458 39.6762 77.459 54.795H82.336Z" fill="#FFDD22" stroke="black" stroke-width="0.573771" stroke-linecap="round"/>
<path d="M59.6433 43.6354C56.0573 35.1149 63.8605 29.3198 70.1319 36.578M53.3605 40.8813C47.5368 34.0821 57.1761 27.3403 63.6884 29.119" stroke="black" stroke-width="0.573771" stroke-linecap="round"/>
<path d="M77.0286 58.2378C76.3974 61.6517 74.2171 63.4017 71.5778 65.123H82.4794V58.5247L77.0286 58.2378Z" fill="#FFDD22" stroke="black" stroke-width="0.358607" stroke-linecap="round"/>
<path d="M78.8934 58.2378C78.8074 61.7378 78.1762 63.7747 77.3156 65.123H79.3237C80.0697 62.914 80.0983 60.4181 80.041 58.2378H78.8934Z" fill="black"/>
<path d="M93.0943 58.6683C94.5203 58.6683 95.6763 57.5765 95.6763 56.2298C95.6763 54.883 94.5203 53.7913 93.0943 53.7913H72.1517C70.7257 53.7913 69.5697 54.883 69.5697 56.2298C69.5697 57.5765 70.7257 58.6683 72.1517 58.6683H93.0943Z" fill="#FFDD22" stroke="black" stroke-width="0.573771" stroke-linecap="round"/>
<path d="M164.098 82.6235C156.955 88.0169 152.566 95.9636 141.463 95.9636C126.602 95.9636 123.045 84.5169 106.148 82.6235C123.045 80.73 126.602 69.2833 141.463 69.2833C152.566 69.2833 156.955 77.23 164.098 82.6235Z" fill="#FFDD22" stroke="black" stroke-width="0.573771" stroke-linecap="round"/>
<path d="M164.098 82.623H106.148H164.098Z" fill="#FFDD22"/>
<path d="M164.098 82.623H106.148" stroke="black" stroke-width="0.573771" stroke-linecap="round"/>
<path d="M110.451 82.9102C120.377 83.3118 136.586 95.0741 136.672 104.713C136.73 112.058 131.451 117.164 127.348 117.164C118.225 117.164 119.172 107.295 109.59 109.017C109.992 106.664 113.779 104.541 116.877 104.14C119.689 103.767 121.152 106.177 122.93 105.718C130.016 103.996 125.57 91.0004 110.451 87.7873V82.9102Z" fill="#FFDD22" stroke="black" stroke-width="0.573771" stroke-linecap="round"/>
<path d="M121.611 105.603C130.131 109.189 135.926 101.386 128.668 95.1145M124.365 111.886C131.164 117.71 137.906 108.07 136.127 101.558" stroke="black" stroke-width="0.573771" stroke-linecap="round"/>
<path d="M107.008 88.2174C103.594 88.8485 101.844 91.0289 100.123 93.6682V82.7666H106.721L107.008 88.2174Z" fill="#FFDD22" stroke="black" stroke-width="0.358607" stroke-linecap="round"/>
<path d="M107.008 86.3528C103.508 86.4389 101.471 87.07 100.123 87.9307V85.9225C102.332 85.1766 104.828 85.1479 107.008 85.2053V86.3528Z" fill="black"/>
<path d="M110.451 82.3364C120.377 81.9347 136.586 70.1724 136.672 60.5331C136.73 53.1888 131.451 48.0823 127.348 48.0823C118.225 48.0823 119.172 57.9511 109.59 56.2298C109.992 58.5823 113.779 60.7052 116.877 61.1069C119.689 61.4798 121.152 59.07 122.93 59.529C130.016 61.2503 125.57 74.2462 110.451 77.4593V82.3364Z" fill="#FFDD22" stroke="black" stroke-width="0.573771" stroke-linecap="round"/>
<path d="M121.611 59.6438C130.131 56.0577 135.926 63.861 128.668 70.1323M124.365 53.361C131.164 47.5373 137.906 57.1766 136.127 63.6889" stroke="black" stroke-width="0.573771" stroke-linecap="round"/>
<path d="M107.008 77.0289C103.594 76.3978 101.844 74.2175 100.123 71.5781V82.4798H106.721L107.008 77.0289Z" fill="#FFDD22" stroke="black" stroke-width="0.358607" stroke-linecap="round"/>
<path d="M107.008 78.8938C103.508 78.8077 101.471 78.1766 100.123 77.3159V79.3241C102.332 80.07 104.828 80.0987 107.008 80.0413V78.8938Z" fill="black"/>
<path d="M106.578 93.0945C106.578 94.5205 107.67 95.6765 109.016 95.6765C110.363 95.6765 111.455 94.5205 111.455 93.0945V72.1519C111.455 70.7259 110.363 69.57 109.016 69.57C107.67 69.57 106.578 70.7259 106.578 72.1519V93.0945Z" fill="#FFDD22" stroke="black" stroke-width="0.573771" stroke-linecap="round"/>
<path d="M65.6393 59.3367V95.4268C65.6393 97.8682 67.051 100.193 69.4287 101.244L82.6229 107.103L95.817 101.244C98.1947 100.193 99.6065 97.8682 99.6065 95.4268V59.3367H65.6393Z" stroke="black" stroke-width="1.59221"/>
<path d="M65.6393 59.3367V95.4268C65.6393 97.8682 67.051 100.193 69.4287 101.244L82.6229 107.103L95.817 101.244C98.1947 100.193 99.6065 97.8682 99.6065 95.4268V59.3367H65.6393Z" fill="#115599" stroke="#FFDD22" stroke-width="0.636885"/>
<path d="M82.6228 61.9905C81.6357 63.1156 81.0306 64.5805 81.0306 66.1939C81.0943 69.7392 81.5189 73.274 81.5614 76.8087C81.6357 80.1099 80.6485 83.2094 79.449 86.2346C79.0457 87.0731 78.6105 87.8905 78.1753 88.7078L76.9015 88.4531C75.7551 88.2195 75.0014 87.105 75.235 85.9586C75.4366 84.9502 76.3177 84.2496 77.3048 84.2496L77.7719 84.3027L76.7316 75.6411C76.392 71.7773 74.407 68.3912 71.4773 66.1939C70.9785 65.8224 70.4371 65.4721 69.8851 65.1643V95.9152H76.9864C77.5171 98.7918 79.0987 101.308 81.3278 103.027C81.8586 103.388 82.3044 103.876 82.6228 104.439C82.9413 103.876 83.3871 103.399 83.9178 103.027C86.1469 101.308 87.7285 98.7918 88.2593 95.9152H95.3605V65.1643C94.8086 65.4721 94.2672 65.8118 93.7683 66.1939C90.8387 68.3912 88.8537 71.7773 88.514 75.6304L87.4738 84.2921L87.9408 84.239C88.928 84.239 89.809 84.9396 90.0107 85.948C90.2442 87.0944 89.4906 88.2195 88.3442 88.4424L87.0704 88.6972C86.6352 87.8799 86.2 87.0625 85.7966 86.224C84.5972 83.2094 83.61 80.1099 83.6843 76.8087C83.7268 73.2633 84.1514 69.7286 84.2151 66.1939C84.2151 64.5805 83.61 63.1156 82.6228 61.9905ZM72.0081 69.6013C73.3774 71.2147 74.3009 73.2209 74.5769 75.4288L75.426 82.5725C74.3433 83.1138 73.5154 84.1116 73.2076 85.3111H72.0081V69.6013ZM93.2376 69.6013V85.3111H92.0381C91.7303 84.1116 90.9023 83.1138 89.8196 82.5725L90.6688 75.4288C90.9448 73.2209 91.8683 71.2041 93.2376 69.6013ZM82.6228 83.9524C83.196 85.8206 83.9815 87.5933 84.9581 89.2386C84.024 89.5145 83.2173 90.0665 82.6228 90.8095C82.0284 90.0665 81.2217 89.5145 80.2876 89.2386C81.2641 87.5933 82.0496 85.8206 82.6228 83.9524ZM72.0081 87.4234H73.2076C73.5897 88.8883 74.7255 90.0453 76.1797 90.4486L77.1987 90.6822C76.9333 91.6799 76.7847 92.7202 76.7847 93.8029H72.0081V87.434V87.4234ZM92.0381 87.4234H93.2376V93.7923H88.461C88.461 92.7202 88.3123 91.6693 88.0364 90.6822L89.0554 90.4486C90.5096 90.0453 91.656 88.8883 92.0275 87.4234H92.0381ZM79.2792 91.1811C80.5636 91.3615 81.5614 92.4654 81.5614 93.8029H78.9077C78.9077 92.89 79.0457 92.0196 79.2792 91.1811ZM85.9665 91.1811C86.2 92.0196 86.338 92.89 86.338 93.8029H83.6843C83.6843 92.4654 84.6821 91.3615 85.9665 91.1811ZM79.1518 95.9258H81.5614V100.395C80.3937 99.174 79.5446 97.6348 79.1518 95.9258ZM83.6843 95.9258H86.0939C85.7011 97.6348 84.8519 99.174 83.6843 100.395V95.9258Z" fill="#FFDD22"/>
<path d="M32.791 126.459C32.5615 126.459 32.3033 126.517 32.0738 126.603C31.7295 126.717 31.4426 126.89 31.1844 127.119C30.8976 127.377 30.6681 127.664 30.5246 128.008C30.2377 128.668 30.2377 129.385 30.5246 130.217C30.8976 131.336 31.5574 131.996 32.5041 132.226C32.9918 132.34 33.4508 132.312 33.9385 132.168C34.6844 131.91 35.2295 131.451 35.5164 130.763C35.8033 130.103 35.8033 129.357 35.5164 128.525C35.1148 127.406 34.4549 126.746 33.5369 126.517C33.3074 126.459 33.0492 126.431 32.8197 126.459H32.791ZM32.9918 127.578C33.3074 127.578 33.5943 127.635 33.8812 127.808C34.2541 128.008 34.5123 128.353 34.6844 128.812C34.8279 129.271 34.8279 129.701 34.6558 130.103C34.4549 130.562 34.1107 130.906 33.5369 131.078C33.3074 131.164 33.0779 131.193 32.8484 131.164C32.5902 131.135 32.332 131.078 32.1025 130.963C31.7295 130.763 31.4713 130.418 31.2992 129.959C31.1271 129.5 31.1558 129.07 31.3279 128.668C31.5287 128.209 31.9017 127.865 32.4181 127.693C32.6189 127.635 32.791 127.578 32.9918 127.578ZM36.8648 132.599L36.75 132.656C36.7787 132.742 36.7787 132.828 36.7787 132.857C36.75 132.914 36.7213 132.943 36.664 133L33.0205 135.295C32.9631 135.324 32.9058 135.353 32.8484 135.353C32.791 135.353 32.7336 135.295 32.6763 135.238L32.5615 135.295L33.3648 136.558L33.4795 136.5C33.4508 136.414 33.4508 136.328 33.4508 136.299C33.4795 136.242 33.5082 136.213 33.5656 136.156L36.2049 134.492L34.2828 137.935L38.2705 137.763L35.6312 139.426C35.5738 139.455 35.5164 139.484 35.459 139.484C35.4017 139.484 35.3443 139.426 35.2869 139.369L35.1722 139.426L36.0328 140.775L36.1476 140.717C36.1189 140.631 36.1189 140.545 36.1189 140.517C36.1476 140.459 36.1763 140.431 36.2336 140.373L39.8771 138.078C39.9344 138.049 39.9918 138.021 40.0492 138.021C40.1066 138.021 40.164 138.078 40.2213 138.135L40.3361 138.078L39.3033 136.443L39.1885 136.5C39.2459 136.615 39.2172 136.701 39.1312 136.758C39.0738 136.787 38.9877 136.816 38.873 136.816L36.0041 136.959L37.4385 134.406C37.4672 134.349 37.5246 134.291 37.5533 134.263C37.6394 134.205 37.7254 134.205 37.8115 134.291L37.9263 134.234L36.8648 132.599ZM41.2541 139.111L41.1681 139.197C41.2254 139.283 41.2254 139.34 41.2254 139.398C41.2254 139.455 41.1967 139.513 41.1394 139.57L38.1845 142.697C38.1271 142.754 38.0697 142.783 38.0123 142.783C37.9549 142.783 37.8976 142.783 37.8115 142.726L37.7254 142.812L38.8156 143.844L38.9017 143.758C38.8443 143.672 38.8443 143.615 38.8443 143.558C38.8443 143.5 38.873 143.443 38.9303 143.385L41.0533 141.119L41.1107 145.222C41.1107 145.394 41.1107 145.508 41.0533 145.537C40.9959 145.594 40.9099 145.594 40.8238 145.537L40.7377 145.623L41.914 146.713L42 146.627C41.9426 146.541 41.9426 146.484 41.9426 146.426C41.9426 146.369 41.9713 146.312 42.0287 146.254L44.9836 143.127C45.041 143.07 45.0984 143.041 45.1271 143.041C45.1844 143.041 45.2418 143.041 45.3279 143.099L45.414 143.013L44.3238 141.98L44.2377 142.066C44.2951 142.152 44.2951 142.209 44.2951 142.267C44.2951 142.324 44.2664 142.381 44.209 142.439L42.1435 144.648L42.1148 140.603C42.1148 140.517 42.1435 140.431 42.1722 140.373C42.2295 140.316 42.3156 140.316 42.4017 140.345L42.4877 140.258L41.2541 139.111ZM46.9631 144.045L46.9058 144.131C46.9631 144.189 46.9918 144.275 46.9918 144.304C46.9918 144.361 46.9918 144.418 46.9345 144.476L44.4959 148.033C44.4385 148.09 44.4099 148.148 44.3525 148.148C44.2951 148.148 44.2377 148.148 44.1517 148.119L44.0943 148.205L45.414 149.095L45.4713 149.008C45.414 148.951 45.3853 148.894 45.3566 148.836C45.3566 148.779 45.3566 148.722 45.414 148.664L47.8525 145.107C47.8812 145.049 47.9385 145.021 47.9959 144.992C48.0533 144.963 48.1107 144.992 48.1967 145.021L48.2541 144.935L46.9631 144.045ZM51.4959 146.857L51.4385 146.972C51.5533 147.086 51.582 147.201 51.5246 147.287C51.4959 147.345 51.4099 147.431 51.2951 147.517L47.8238 150.127C47.709 150.213 47.5943 150.271 47.5369 150.299C47.4795 150.328 47.3935 150.328 47.2787 150.299L47.2213 150.414L48.7131 151.189L48.7705 151.074C48.6558 150.959 48.5984 150.845 48.6558 150.758C48.6845 150.701 48.7418 150.644 48.8279 150.586L49.459 150.099L51.5246 151.16L51.4959 151.963C51.4959 152.078 51.4672 152.164 51.4672 152.193C51.4099 152.308 51.2951 152.336 51.1517 152.279L51.0943 152.394L52.7582 153.254L52.8156 153.14C52.7295 153.082 52.6722 152.996 52.6435 152.91C52.6148 152.824 52.6148 152.681 52.6148 152.508L52.7008 148.119C52.7011 148.004 52.7295 147.918 52.7582 147.861C52.8156 147.775 52.9017 147.746 53.0451 147.775L53.1025 147.66L51.4959 146.857ZM51.6681 148.406L51.5533 150.385L50.0902 149.611L51.6681 148.406Z" fill="black"/>
<path d="M64.7787 165.504L64.75 165.619C64.8648 165.648 64.9221 165.705 64.9508 165.734C64.9795 165.791 65.0369 165.934 65.0943 166.164L66.2418 170.209C66.2992 170.381 66.2992 170.496 66.2992 170.525C66.2705 170.639 66.1844 170.725 66.041 170.725L66.0123 170.84L67.7336 171.098L67.7623 170.984C67.6189 170.926 67.5328 170.84 67.5615 170.725C67.5615 170.668 67.6189 170.582 67.7336 170.439L70.0574 166.939C70.2008 166.738 70.2869 166.594 70.3443 166.566C70.4016 166.537 70.4877 166.508 70.5738 166.508L70.6025 166.393L68.8812 166.135L68.8525 166.25C68.9959 166.307 69.082 166.393 69.0533 166.508C69.0533 166.566 68.9959 166.68 68.9098 166.795L67.1025 169.549L66.2131 166.393C66.1844 166.25 66.1557 166.164 66.1844 166.078C66.2131 165.963 66.2992 165.906 66.4713 165.906L66.5 165.791L64.7787 165.504ZM98.6885 165.562L98.5738 165.59C98.5738 165.676 98.5451 165.762 98.5164 165.791C98.4877 165.82 98.4303 165.848 98.3443 165.877L94.0984 166.451C94.0123 166.451 93.9549 166.451 93.9262 166.422C93.8975 166.393 93.8402 166.336 93.8115 166.25L93.6967 166.279L93.8689 167.598L93.9836 167.57C93.9836 167.484 94.0123 167.426 94.041 167.369C94.0697 167.34 94.1271 167.312 94.2131 167.283L95.791 167.053L96.3074 170.898C96.3074 170.984 96.3074 171.041 96.2787 171.07C96.25 171.127 96.1926 171.156 96.1066 171.184L96.1353 171.299L97.7131 171.07L97.6844 170.955C97.5984 170.955 97.5123 170.926 97.4836 170.898C97.4549 170.869 97.4262 170.812 97.3975 170.725L96.8812 166.881L98.459 166.652C98.5451 166.652 98.6025 166.652 98.6311 166.68C98.6885 166.709 98.7172 166.766 98.7459 166.852L98.8607 166.824L98.6885 165.562ZM72.0656 166.508V166.623C72.1516 166.652 72.209 166.68 72.2377 166.738C72.2664 166.766 72.2951 166.853 72.2664 166.91L71.8648 171.213C71.8648 171.299 71.8361 171.357 71.8074 171.385C71.7787 171.414 71.6926 171.443 71.6066 171.471V171.586L73.1844 171.73V171.615C73.0984 171.586 73.041 171.557 73.0123 171.5C72.9836 171.443 72.9836 171.385 72.9836 171.328L73.3852 167.025C73.3852 166.939 73.4139 166.881 73.4426 166.852C73.4713 166.824 73.5574 166.795 73.6434 166.766V166.652L72.0656 166.508ZM92.2049 166.594L90.6271 166.709V166.824C90.7131 166.853 90.7705 166.881 90.8279 166.91C90.8566 166.939 90.8852 166.996 90.8852 167.082L91.2295 171.385C91.2295 171.471 91.2295 171.529 91.2008 171.557C91.1721 171.586 91.1148 171.643 91.0287 171.672V171.787L92.6066 171.672V171.557C92.5205 171.529 92.4631 171.529 92.4057 171.471C92.3771 171.443 92.3484 171.385 92.3484 171.299L92.0041 166.996C92.0041 166.91 92.0041 166.853 92.0328 166.824C92.0615 166.766 92.1189 166.738 92.2049 166.709V166.594ZM75.5656 166.824V166.939C75.6516 166.967 75.709 166.996 75.7377 167.053C75.7664 167.082 75.7951 167.139 75.7951 167.225L75.6516 171.529C75.6516 171.615 75.623 171.672 75.5943 171.701C75.5656 171.73 75.5082 171.758 75.3934 171.787V171.902L76.8852 171.959V171.844C76.7992 171.816 76.7418 171.787 76.7131 171.73C76.6844 171.701 76.6557 171.615 76.6557 171.557L76.7705 168.459L79.5246 171.5C79.6393 171.615 79.6967 171.73 79.6967 171.758C79.6967 171.844 79.6393 171.902 79.5246 171.902V172.016L81.1311 172.074V171.959C81.0451 171.93 80.9877 171.902 80.959 171.844C80.9303 171.816 80.9016 171.73 80.9016 171.672L81.0451 167.369C81.0451 167.283 81.0738 167.225 81.1025 167.197C81.1312 167.168 81.1885 167.139 81.3033 167.111V166.996L79.8115 166.939V167.053C79.8975 167.082 79.9549 167.111 79.9836 167.168C80.0123 167.197 80.041 167.254 80.041 167.34L79.9262 170.353L77.2295 167.34C77.1721 167.254 77.1434 167.197 77.1434 167.139C77.1434 167.053 77.2008 166.996 77.3156 166.967V166.852L75.5656 166.824ZM86.0369 166.852C84.9467 166.881 84.1148 167.254 83.5984 167.943C83.2541 168.402 83.082 168.947 83.1107 169.578C83.1107 170.037 83.2254 170.439 83.4549 170.812C83.627 171.127 83.8852 171.414 84.2008 171.615C84.7172 171.988 85.4057 172.16 86.209 172.131C86.6107 172.131 86.9549 172.074 87.2418 171.988C87.5287 171.902 87.9016 171.73 88.3033 171.471C88.5041 171.357 88.6189 171.271 88.6762 171.271C88.7336 171.271 88.791 171.299 88.8484 171.357L88.9344 171.299L88.1885 170.266L88.1025 170.353C88.1025 170.381 88.1025 170.41 88.1025 170.439C88.1025 170.525 88.0738 170.582 88.0164 170.639C87.959 170.697 87.8443 170.783 87.7008 170.869C87.2705 171.127 86.8115 171.271 86.3238 171.271C85.75 171.299 85.2623 171.156 84.918 170.869C84.4877 170.525 84.2869 170.094 84.2582 169.549C84.2295 169.004 84.4303 168.545 84.832 168.201C85.1762 167.914 85.6352 167.742 86.209 167.713C86.6967 167.713 87.1844 167.799 87.6148 168.057C87.7869 168.143 87.9016 168.23 87.959 168.287C88.0164 168.344 88.0451 168.402 88.0451 168.488C88.0451 168.516 88.0451 168.545 88.0451 168.603L88.1598 168.66L88.8484 167.57L88.7623 167.512C88.7049 167.57 88.6475 167.627 88.5902 167.627C88.5328 167.627 88.418 167.57 88.2172 167.455C87.7869 167.225 87.4139 167.053 87.1271 166.996C86.8402 166.91 86.4959 166.881 86.0943 166.91L86.0369 166.852Z" fill="black"/>
<path d="M131.164 125.885L131.078 125.971C131.107 126.057 131.107 126.115 131.107 126.172C131.107 126.201 131.049 126.287 130.934 126.402C130.648 126.746 130.418 127.061 130.275 127.291C130.131 127.549 130.016 127.807 129.902 128.123C129.672 128.869 129.672 129.471 129.902 129.959C130.074 130.332 130.389 130.561 130.791 130.705C131.049 130.791 131.279 130.791 131.508 130.734C131.766 130.676 131.967 130.561 132.139 130.389C132.254 130.275 132.369 130.131 132.455 129.988C132.541 129.844 132.656 129.586 132.799 129.242L133.029 128.725C133.172 128.381 133.316 128.152 133.402 128.037C133.516 127.893 133.66 127.836 133.832 127.893C133.947 127.922 134.033 128.008 134.119 128.094C134.205 128.209 134.234 128.324 134.262 128.467C134.291 128.725 134.262 129.012 134.176 129.328C134.09 129.615 133.947 129.902 133.746 130.189C133.545 130.475 133.344 130.676 133.172 130.791C133.057 130.877 132.943 130.877 132.828 130.848L132.771 130.82L132.684 130.906L133.717 131.824L133.803 131.738C133.775 131.652 133.775 131.594 133.775 131.566C133.775 131.537 133.832 131.48 133.947 131.365C134.463 130.848 134.807 130.246 135.008 129.615C135.123 129.27 135.18 128.898 135.209 128.553C135.238 128.094 135.152 127.721 134.951 127.463C134.75 127.148 134.492 126.947 134.148 126.832C133.918 126.775 133.717 126.746 133.488 126.775C133.258 126.803 133.086 126.889 132.914 127.004C132.742 127.119 132.598 127.291 132.484 127.463C132.369 127.635 132.225 127.893 132.082 128.209L131.852 128.754C131.709 129.127 131.594 129.357 131.508 129.443C131.365 129.643 131.221 129.701 131.021 129.643C130.906 129.615 130.82 129.529 130.762 129.414C130.705 129.299 130.648 129.156 130.648 129.012C130.648 128.811 130.676 128.582 130.762 128.324C130.934 127.75 131.25 127.291 131.68 126.975C131.824 126.861 131.939 126.832 131.996 126.861C131.996 126.861 132.025 126.861 132.053 126.889L132.139 126.803L131.164 125.885ZM127.865 133.43L127.004 135.008L127.119 135.066C127.234 134.951 127.348 134.951 127.434 134.98C127.492 135.008 127.578 135.094 127.664 135.209L130.217 138.709C130.303 138.824 130.361 138.939 130.389 138.996C130.418 139.053 130.389 139.139 130.361 139.254L130.475 139.311L131.279 137.82L131.164 137.762C131.049 137.877 130.934 137.934 130.848 137.877C130.791 137.848 130.734 137.791 130.676 137.705L130.217 137.074L131.307 135.037L132.111 135.066C132.225 135.066 132.311 135.094 132.34 135.123C132.455 135.18 132.484 135.295 132.426 135.439L132.541 135.496L133.43 133.832L133.316 133.775C133.258 133.861 133.172 133.918 133.086 133.947C133 133.975 132.857 133.975 132.684 133.975L128.295 133.832C128.18 133.832 128.094 133.803 128.037 133.775C127.951 133.717 127.922 133.631 127.951 133.488L127.865 133.43ZM128.553 134.865L130.533 135.008L129.73 136.471L128.553 134.865ZM125.627 136.93L125.541 137.016C125.598 137.102 125.627 137.16 125.627 137.217C125.627 137.275 125.598 137.332 125.541 137.389L122.816 140.689C122.758 140.746 122.73 140.775 122.672 140.775C122.615 140.775 122.557 140.775 122.471 140.717L122.385 140.803L123.389 141.635L123.475 141.549C123.418 141.463 123.389 141.406 123.389 141.348C123.389 141.291 123.418 141.234 123.447 141.176L124.451 139.971L127.434 142.439C127.492 142.496 127.521 142.525 127.549 142.582C127.549 142.639 127.549 142.697 127.492 142.783L127.578 142.869L128.582 141.635L128.496 141.549C128.41 141.607 128.352 141.635 128.295 141.635C128.238 141.635 128.18 141.607 128.123 141.549L125.139 139.082L126.143 137.877C126.201 137.82 126.258 137.791 126.287 137.762C126.344 137.762 126.402 137.762 126.488 137.791L126.574 137.705L125.627 136.93ZM121.467 141.951L120.291 143.012L120.377 143.098C120.463 143.07 120.521 143.041 120.578 143.041C120.635 143.041 120.693 143.07 120.721 143.127L123.59 146.34C123.648 146.398 123.676 146.455 123.676 146.512C123.676 146.57 123.648 146.627 123.59 146.713L123.676 146.799L124.852 145.738L124.766 145.652C124.68 145.68 124.623 145.709 124.566 145.709C124.508 145.709 124.451 145.68 124.393 145.623L121.525 142.41C121.467 142.352 121.439 142.295 121.439 142.238C121.439 142.18 121.467 142.123 121.525 142.037L121.467 141.951ZM118.541 144.82C118.34 144.82 118.139 144.877 117.91 144.963C117.709 145.049 117.422 145.193 117.107 145.422L114.439 147.201L114.496 147.287C114.582 147.258 114.668 147.258 114.697 147.258C114.754 147.258 114.783 147.316 114.84 147.373L117.221 150.959C117.25 151.016 117.279 151.074 117.279 151.131C117.279 151.189 117.25 151.246 117.164 151.303L117.221 151.389L118.541 150.5L118.484 150.414C118.398 150.443 118.34 150.443 118.283 150.443C118.225 150.414 118.197 150.385 118.139 150.328L117.193 148.922L118.311 148.176L120.004 148.865C120.205 148.951 120.32 149.008 120.32 149.037C120.348 149.094 120.32 149.18 120.234 149.266L120.291 149.352L121.84 148.32L121.783 148.234C121.668 148.291 121.582 148.32 121.467 148.291C121.352 148.262 121.18 148.205 120.893 148.09L119.287 147.459C119.975 146.828 120.09 146.168 119.631 145.48C119.488 145.279 119.344 145.107 119.143 144.992C118.943 144.848 118.713 144.791 118.484 144.791L118.541 144.82ZM118.225 145.824C118.426 145.795 118.627 145.91 118.771 146.139C118.914 146.369 118.943 146.57 118.828 146.771C118.771 146.857 118.713 146.943 118.627 147C118.541 147.057 118.398 147.172 118.197 147.316L116.762 148.262L116.016 147.143L117.451 146.197C117.68 146.053 117.824 145.967 117.91 145.91C117.996 145.852 118.111 145.824 118.197 145.824H118.225ZM112.689 147.861L112.574 147.918C112.602 148.004 112.574 148.09 112.574 148.119C112.545 148.176 112.516 148.205 112.43 148.234L108.328 150.184L108.385 150.299C108.471 150.271 108.557 150.299 108.586 150.299C108.643 150.328 108.672 150.357 108.701 150.443L110.566 154.344C110.594 154.402 110.594 154.488 110.594 154.516C110.594 154.574 110.537 154.631 110.48 154.689L110.537 154.803L114.725 152.824C114.783 152.795 114.84 152.795 114.898 152.795C114.955 152.795 115.012 152.852 115.07 152.91L115.184 152.852L114.611 151.676L114.496 151.734C114.525 151.82 114.496 151.906 114.496 151.934C114.467 151.992 114.439 152.021 114.352 152.049L111.398 153.455L110.795 152.193L112.66 151.303C112.717 151.275 112.775 151.275 112.832 151.275C112.889 151.275 112.947 151.332 113.004 151.389L113.119 151.332L112.574 150.156L112.459 150.213C112.488 150.299 112.459 150.385 112.459 150.414C112.43 150.471 112.402 150.5 112.316 150.529L110.451 151.418L109.934 150.328L112.803 148.951C112.861 148.922 112.918 148.922 112.975 148.922C113.033 148.922 113.09 148.98 113.148 149.037L113.262 148.98L112.689 147.861ZM106.779 150.844L105.143 151.447L105.172 151.561C105.344 151.533 105.43 151.561 105.488 151.676C105.516 151.734 105.516 151.848 105.516 151.992L105.287 155.262L102.992 152.91C102.906 152.824 102.82 152.738 102.82 152.652C102.791 152.537 102.848 152.451 102.992 152.365L102.963 152.25L101.271 152.881L101.299 152.996C101.414 152.967 101.5 152.967 101.557 152.996C101.615 153.025 101.73 153.139 101.902 153.311L104.885 156.295C105 156.41 105.086 156.496 105.086 156.553C105.143 156.668 105.086 156.783 104.943 156.84L104.971 156.955L106.607 156.352L106.578 156.238C106.434 156.266 106.32 156.238 106.291 156.094C106.262 156.037 106.262 155.922 106.291 155.75L106.635 151.561C106.664 151.303 106.664 151.16 106.693 151.102C106.721 151.045 106.779 150.988 106.865 150.93L106.779 150.844Z" fill="black"/>
</svg>
