<svg width="176" height="175" viewBox="0 0 176 175" fill="none" xmlns="http://www.w3.org/2000/svg">
<g clip-path="url(#clip0_5_1698)">
<path d="M88.3742 87.5002V2.05103L83.3016 9.31421L88.3742 87.5002Z" fill="white" stroke="#868686" stroke-width="0.0738281"/>
<path d="M88.3742 87.5002L76.963 8.3103L83.3016 9.31416L88.3742 87.5002Z" fill="#B1B1B1" stroke="#868686" stroke-width="0.0738281"/>
<path d="M88.3741 87.5001L72.5209 17.6986L76.9629 8.30981L88.3741 87.5001Z" fill="white" stroke="#868686" stroke-width="0.0738281"/>
<path d="M88.3742 87.5002L67.2713 17.5979L72.521 17.6987L88.3742 87.5002Z" fill="#B1B1B1" stroke="#868686" stroke-width="0.0738281"/>
<path d="M88.3742 87.5002L67.2714 17.5979L64.243 22.7467L88.3742 87.5002Z" fill="white" stroke="#868686" stroke-width="0.0738281"/>
<path d="M88.3742 87.5001L59.5987 22.7463L64.243 22.7467L88.3742 87.5001Z" fill="#B1B1B1" stroke="#868686" stroke-width="0.0738281"/>
<path d="M88.3742 87.5001L59.5986 22.7463L56.5201 26.6838L88.3742 87.5001Z" fill="white" stroke="#868686" stroke-width="0.0738281"/>
<path d="M88.3741 87.5003L49.2128 23.4021L56.52 26.684L88.3741 87.5003Z" fill="#B1B1B1" stroke="#868686" stroke-width="0.0738281"/>
<path d="M88.3742 87.5003L49.2128 23.4021L47.4952 28.8521L88.3742 87.5003Z" fill="white" stroke="#868686" stroke-width="0.0738281"/>
<path d="M88.3741 87.5002L37.9058 24.1089L47.4952 28.852L88.3741 87.5002Z" fill="#B1B1B1" stroke="#868686" stroke-width="0.0738281"/>
<path d="M88.3741 87.5002L37.9058 24.1089L38.1064 30.7698L88.3741 87.5002Z" fill="white" stroke="#868686" stroke-width="0.0738281"/>
<path d="M88.3742 87.5L27.9517 27.0771L38.1064 30.7696L88.3742 87.5Z" fill="#B1B1B1" stroke="#868686" stroke-width="0.0738281"/>
<path d="M88.3743 87.5001L27.9525 27.0784L29.5015 35.8011L88.3743 87.5001Z" fill="white" stroke="#868686" stroke-width="0.0738281"/>
<path d="M88.3742 87.5002L24.3096 39.5735L29.5015 35.8012L88.3742 87.5002Z" fill="#B1B1B1" stroke="#868686" stroke-width="0.0738281"/>
<path d="M88.3742 87.5004L27.8072 49.3533L24.3093 39.5734L88.3742 87.5004Z" fill="white" stroke="#868686" stroke-width="0.0738281"/>
<path d="M88.3742 87.5003L24.0239 52.9939L27.8072 49.3531L88.3742 87.5003Z" fill="#B1B1B1" stroke="#868686" stroke-width="0.0738281"/>
<path d="M88.3742 87.5005L24.0239 52.9942L25.5233 58.7763L88.3742 87.5005Z" fill="white" stroke="#868686" stroke-width="0.0738281"/>
<path d="M88.3742 87.5003L22.239 62.0598L25.5233 58.776L88.3742 87.5003Z" fill="#B1B1B1" stroke="#868686" stroke-width="0.0738281"/>
<path d="M88.3742 87.5001L22.239 62.0597L22.8464 67.0208L88.3742 87.5001Z" fill="white" stroke="#868686" stroke-width="0.0738281"/>
<path d="M88.3742 87.5002L15.3586 69.8672L22.8463 67.0208L88.3742 87.5002Z" fill="#B1B1B1" stroke="#868686" stroke-width="0.0738281"/>
<path d="M88.3742 87.5001L15.3587 69.8671L17.9979 74.9352L88.3742 87.5001Z" fill="white" stroke="#868686" stroke-width="0.0738281"/>
<path d="M88.3743 87.5L7.86328 78.3621L17.9979 74.9352L88.3743 87.5Z" fill="#B1B1B1" stroke="#868686" stroke-width="0.0738281"/>
<path d="M88.3743 87.5L7.86328 78.3621L12.7151 82.9302L88.3743 87.5Z" fill="white" stroke="#868686" stroke-width="0.0738281"/>
<path d="M88.3742 87.5L2.92365 87.4998L12.7151 82.9302L88.3742 87.5Z" fill="#B1B1B1" stroke="#868686" stroke-width="0.0738281"/>
<path d="M88.3742 87.5003H173.823L166.56 82.4277L88.3742 87.5003Z" fill="white" stroke="#868686" stroke-width="0.0738281"/>
<path d="M88.3742 87.5003L167.564 76.0891L166.56 82.4277L88.3742 87.5003Z" fill="#B1B1B1" stroke="#868686" stroke-width="0.0738281"/>
<path d="M88.3742 87.5002L158.176 71.647L167.564 76.089L88.3742 87.5002Z" fill="white" stroke="#868686" stroke-width="0.0738281"/>
<path d="M88.3742 87.5003L158.276 66.3975L158.176 71.6471L88.3742 87.5003Z" fill="#B1B1B1" stroke="#868686" stroke-width="0.0738281"/>
<path d="M88.3742 87.5006L158.276 66.3977L153.128 63.3694L88.3742 87.5006Z" fill="white" stroke="#868686" stroke-width="0.0738281"/>
<path d="M88.3742 87.5004L153.128 58.7249L153.128 63.3692L88.3742 87.5004Z" fill="#B1B1B1" stroke="#868686" stroke-width="0.0738281"/>
<path d="M88.3742 87.5001L153.128 58.7246L149.19 55.646L88.3742 87.5001Z" fill="white" stroke="#868686" stroke-width="0.0738281"/>
<path d="M88.3742 87.5002L152.472 48.3389L149.19 55.6461L88.3742 87.5002Z" fill="#B1B1B1" stroke="#868686" stroke-width="0.0738281"/>
<path d="M88.3742 87.5002L152.472 48.3389L147.022 46.6213L88.3742 87.5002Z" fill="white" stroke="#868686" stroke-width="0.0738281"/>
<path d="M88.3742 87.5003L151.766 37.032L147.022 46.6214L88.3742 87.5003Z" fill="#B1B1B1" stroke="#868686" stroke-width="0.0738281"/>
<path d="M88.3742 87.5003L151.766 37.032L145.105 37.2326L88.3742 87.5003Z" fill="white" stroke="#868686" stroke-width="0.0738281"/>
<path d="M88.3741 87.5004L148.797 27.0779L145.105 37.2327L88.3741 87.5004Z" fill="#B1B1B1" stroke="#868686" stroke-width="0.0738281"/>
<path d="M88.3742 87.5001L148.796 27.0783L140.073 28.6273L88.3742 87.5001Z" fill="white" stroke="#868686" stroke-width="0.0738281"/>
<path d="M88.3741 87.5002L136.301 23.4355L140.073 28.6275L88.3741 87.5002Z" fill="#B1B1B1" stroke="#868686" stroke-width="0.0738281"/>
<path d="M88.3741 87.5003L126.521 26.9333L136.301 23.4354L88.3741 87.5003Z" fill="white" stroke="#868686" stroke-width="0.0738281"/>
<path d="M88.3741 87.5002L122.88 23.1499L126.521 26.9333L88.3741 87.5002Z" fill="#B1B1B1" stroke="#868686" stroke-width="0.0738281"/>
<path d="M88.3741 87.5002L122.88 23.1499L117.098 24.6493L88.3741 87.5002Z" fill="white" stroke="#868686" stroke-width="0.0738281"/>
<path d="M88.3742 87.5002L113.815 21.365L117.098 24.6493L88.3742 87.5002Z" fill="#B1B1B1" stroke="#868686" stroke-width="0.0738281"/>
<path d="M88.3741 87.5003L113.815 21.3651L108.853 21.9725L88.3741 87.5003Z" fill="white" stroke="#868686" stroke-width="0.0738281"/>
<path d="M88.3742 87.5002L106.007 14.4846L108.853 21.9723L88.3742 87.5002Z" fill="#B1B1B1" stroke="#868686" stroke-width="0.0738281"/>
<path d="M88.3742 87.5003L106.007 14.4847L100.939 17.124L88.3742 87.5003Z" fill="white" stroke="#868686" stroke-width="0.0738281"/>
<path d="M88.3741 87.5002L97.5121 6.98926L100.939 17.1239L88.3741 87.5002Z" fill="#B1B1B1" stroke="#868686" stroke-width="0.0738281"/>
<path d="M88.3741 87.5002L97.5121 6.98926L92.944 11.8411L88.3741 87.5002Z" fill="white" stroke="#868686" stroke-width="0.0738281"/>
<path d="M88.3741 87.5004L88.3743 2.0498L92.9439 11.8413L88.3741 87.5004Z" fill="#B1B1B1" stroke="#868686" stroke-width="0.0738281"/>
<path d="M88.3744 87.5002L88.3744 172.949L93.447 165.686L88.3744 87.5002Z" fill="white" stroke="#868686" stroke-width="0.0738281"/>
<path d="M88.3744 87.5003L99.7856 166.69L93.447 165.686L88.3744 87.5003Z" fill="#B1B1B1" stroke="#868686" stroke-width="0.0738281"/>
<path d="M88.3743 87.4999L104.228 157.301L99.7855 166.69L88.3743 87.4999Z" fill="white" stroke="#868686" stroke-width="0.0738281"/>
<path d="M88.3744 87.5001L109.477 157.402L104.228 157.302L88.3744 87.5001Z" fill="#B1B1B1" stroke="#868686" stroke-width="0.0738281"/>
<path d="M88.3743 87.5001L109.477 157.402L112.505 152.254L88.3743 87.5001Z" fill="white" stroke="#868686" stroke-width="0.0738281"/>
<path d="M88.3743 87.5002L117.15 152.254L112.506 152.254L88.3743 87.5002Z" fill="#B1B1B1" stroke="#868686" stroke-width="0.0738281"/>
<path d="M88.3743 87.5002L117.15 152.254L120.228 148.316L88.3743 87.5002Z" fill="white" stroke="#868686" stroke-width="0.0738281"/>
<path d="M88.3744 87.5002L127.536 151.598L120.228 148.316L88.3744 87.5002Z" fill="#B1B1B1" stroke="#868686" stroke-width="0.0738281"/>
<path d="M88.3744 87.5002L127.536 151.598L129.253 146.148L88.3744 87.5002Z" fill="white" stroke="#868686" stroke-width="0.0738281"/>
<path d="M88.3744 87.5L138.843 150.891L129.253 146.148L88.3744 87.5Z" fill="#B1B1B1" stroke="#868686" stroke-width="0.0738281"/>
<path d="M88.3744 87.5L138.843 150.891L138.642 144.23L88.3744 87.5Z" fill="white" stroke="#868686" stroke-width="0.0738281"/>
<path d="M88.3744 87.5002L148.797 147.923L138.642 144.231L88.3744 87.5002Z" fill="#B1B1B1" stroke="#868686" stroke-width="0.0738281"/>
<path d="M88.3743 87.5001L148.796 147.922L147.247 139.199L88.3743 87.5001Z" fill="white" stroke="#868686" stroke-width="0.0738281"/>
<path d="M88.3743 87.5L152.439 135.427L147.247 139.199L88.3743 87.5Z" fill="#B1B1B1" stroke="#868686" stroke-width="0.0738281"/>
<path d="M88.3743 87.4999L148.941 125.647L152.439 135.427L88.3743 87.4999Z" fill="white" stroke="#868686" stroke-width="0.0738281"/>
<path d="M88.3743 87.5L152.725 122.006L148.941 125.647L88.3743 87.5Z" fill="#B1B1B1" stroke="#868686" stroke-width="0.0738281"/>
<path d="M88.3743 87.5002L152.725 122.007L151.225 116.224L88.3743 87.5002Z" fill="white" stroke="#868686" stroke-width="0.0738281"/>
<path d="M88.3743 87.5L154.509 112.94L151.225 116.224L88.3743 87.5Z" fill="#B1B1B1" stroke="#868686" stroke-width="0.0738281"/>
<path d="M88.3743 87.5001L154.51 112.941L153.902 107.979L88.3743 87.5001Z" fill="white" stroke="#868686" stroke-width="0.0738281"/>
<path d="M88.3743 87.5001L161.39 105.133L153.902 107.979L88.3743 87.5001Z" fill="#B1B1B1" stroke="#868686" stroke-width="0.0738281"/>
<path d="M88.3743 87.4999L161.39 105.133L158.751 100.065L88.3743 87.4999Z" fill="white" stroke="#868686" stroke-width="0.0738281"/>
<path d="M88.3743 87.5002L168.885 96.6382L158.751 100.065L88.3743 87.5002Z" fill="#B1B1B1" stroke="#868686" stroke-width="0.0738281"/>
<path d="M88.3743 87.5002L168.885 96.6382L164.033 92.0701L88.3743 87.5002Z" fill="white" stroke="#868686" stroke-width="0.0738281"/>
<path d="M88.3743 87.5002L173.825 87.5005L164.033 92.0701L88.3743 87.5002Z" fill="#B1B1B1" stroke="#868686" stroke-width="0.0738281"/>
<path d="M88.3741 87.5004H2.92487L10.188 92.573L88.3741 87.5004Z" fill="white" stroke="#868686" stroke-width="0.0738281"/>
<path d="M88.3741 87.4999L9.1842 98.9111L10.1881 92.5725L88.3741 87.4999Z" fill="#B1B1B1" stroke="#868686" stroke-width="0.0738281"/>
<path d="M88.3741 87.5003L18.5727 103.354L9.18384 98.9115L88.3741 87.5003Z" fill="white" stroke="#868686" stroke-width="0.0738281"/>
<path d="M88.3741 87.5001L18.4719 108.603L18.5727 103.353L88.3741 87.5001Z" fill="#B1B1B1" stroke="#868686" stroke-width="0.0738281"/>
<path d="M88.3741 87.5001L18.4719 108.603L23.6207 111.631L88.3741 87.5001Z" fill="white" stroke="#868686" stroke-width="0.0738281"/>
<path d="M88.3741 87.5003L23.6203 116.276L23.6206 111.632L88.3741 87.5003Z" fill="#B1B1B1" stroke="#868686" stroke-width="0.0738281"/>
<path d="M88.3741 87.5001L23.6203 116.276L27.5578 119.354L88.3741 87.5001Z" fill="white" stroke="#868686" stroke-width="0.0738281"/>
<path d="M88.3741 87.5002L24.2759 126.662L27.5578 119.354L88.3741 87.5002Z" fill="#B1B1B1" stroke="#868686" stroke-width="0.0738281"/>
<path d="M88.3741 87.5002L24.2759 126.662L29.7258 128.379L88.3741 87.5002Z" fill="white" stroke="#868686" stroke-width="0.0738281"/>
<path d="M88.3741 87.5001L24.9827 137.969L29.7258 128.379L88.3741 87.5001Z" fill="#B1B1B1" stroke="#868686" stroke-width="0.0738281"/>
<path d="M88.3741 87.5001L24.9827 137.969L31.6437 137.768L88.3741 87.5001Z" fill="white" stroke="#868686" stroke-width="0.0738281"/>
<path d="M88.3741 87.5003L27.9513 147.923L31.6437 137.768L88.3741 87.5003Z" fill="#B1B1B1" stroke="#868686" stroke-width="0.0738281"/>
<path d="M88.3741 87.5002L27.9524 147.922L36.6751 146.373L88.3741 87.5002Z" fill="white" stroke="#868686" stroke-width="0.0738281"/>
<path d="M88.3743 87.5L40.4475 151.565L36.6753 146.373L88.3743 87.5Z" fill="#B1B1B1" stroke="#868686" stroke-width="0.0738281"/>
<path d="M88.3742 87.5002L50.227 148.067L40.4472 151.565L88.3742 87.5002Z" fill="white" stroke="#868686" stroke-width="0.0738281"/>
<path d="M88.3741 87.5002L53.8677 151.851L50.227 148.067L88.3741 87.5002Z" fill="#B1B1B1" stroke="#868686" stroke-width="0.0738281"/>
<path d="M88.3742 87.5L53.8678 151.85L59.6499 150.351L88.3742 87.5Z" fill="white" stroke="#868686" stroke-width="0.0738281"/>
<path d="M88.3741 87.5001L62.9337 153.635L59.6499 150.351L88.3741 87.5001Z" fill="#B1B1B1" stroke="#868686" stroke-width="0.0738281"/>
<path d="M88.3741 87.5002L62.9337 153.635L67.8948 153.028L88.3741 87.5002Z" fill="white" stroke="#868686" stroke-width="0.0738281"/>
<path d="M88.3741 87.5003L70.7411 160.516L67.8948 153.028L88.3741 87.5003Z" fill="#B1B1B1" stroke="#868686" stroke-width="0.0738281"/>
<path d="M88.3741 87.5002L70.7411 160.516L75.8093 157.877L88.3741 87.5002Z" fill="white" stroke="#868686" stroke-width="0.0738281"/>
<path d="M88.3741 87.5003L79.2362 168.011L75.8093 157.877L88.3741 87.5003Z" fill="#B1B1B1" stroke="#868686" stroke-width="0.0738281"/>
<path d="M88.3741 87.5003L79.2362 168.011L83.8043 163.159L88.3741 87.5003Z" fill="white" stroke="#868686" stroke-width="0.0738281"/>
<path d="M88.3741 87.5004L88.3739 172.951L83.8043 163.159L88.3741 87.5004Z" fill="#B1B1B1" stroke="#868686" stroke-width="0.0738281"/>
<path d="M64.4772 120.864C59.9251 118.846 56.9798 114.321 56.9744 109.339V43.6377H120.116V109.337C120.111 114.321 117.165 118.846 112.612 120.864L88.5451 131.544L64.4772 120.864Z" fill="#205BA6"/>
<path d="M118.882 44.8722V109.337C118.877 113.695 116.352 117.856 112.112 119.735L88.5455 130.193L64.9786 119.735C60.7393 117.856 58.2141 113.695 58.2093 109.337V44.8722H118.882ZM121.351 42.4031H118.882H58.2089H55.7398V44.8722V109.337C55.746 114.81 58.9794 119.777 63.9778 121.993L87.544 132.45L88.5455 132.894L89.5469 132.45L113.114 121.992C118.111 119.777 121.345 114.81 121.351 109.34V44.8722V42.4031Z" fill="#FFD400"/>
<path d="M88.5455 49.6123C86.7784 51.6176 85.7014 54.2426 85.7014 57.124C85.806 63.4503 86.5819 69.7636 86.6495 76.0879C86.7897 81.9822 85.0219 87.5179 82.8723 92.9183C82.1559 94.4106 81.3814 95.8714 80.6059 97.3333L78.3247 96.8739C76.2722 96.4634 74.9372 94.4673 75.3473 92.4145C75.7066 90.618 77.2874 89.3708 79.0504 89.3626L79.8799 89.4515L78.0284 73.9841C77.4231 67.0962 73.8704 61.0546 68.6372 57.124C67.7379 56.4486 66.785 55.831 65.7931 55.2868V110.223H78.4727C79.4209 115.371 82.2533 119.855 86.2346 122.935C87.1817 123.587 87.9747 124.448 88.5455 125.453C89.1159 124.448 89.9093 123.587 90.8564 122.935C94.8376 119.855 97.6701 115.371 98.6182 110.223H111.298V55.2868C110.306 55.831 109.353 56.4486 108.454 57.124C103.221 61.0546 99.6679 67.0962 99.0626 73.9841L97.2111 89.4515L98.0406 89.3626C99.8039 89.3708 101.385 90.6184 101.744 92.4145C102.154 94.4673 100.819 96.4634 98.7662 96.8739L96.4851 97.3333C95.7099 95.8711 94.935 94.4106 94.2186 92.9183C92.0691 87.5179 90.301 81.9818 90.4414 76.0879C90.5088 69.7636 91.2846 63.4503 91.3896 57.124C91.3892 54.2426 90.3126 51.6176 88.5455 49.6123ZM69.585 63.1984C72.0391 66.0791 73.6859 69.6686 74.177 73.6136L75.7028 86.3698C73.76 87.3371 72.2872 89.1117 71.7328 91.2589H69.585V63.1984ZM107.506 63.1984V91.2592H105.358C104.803 89.1121 103.331 87.3375 101.388 86.3702L102.914 73.614C103.405 69.6686 105.052 66.0787 107.506 63.1984ZM88.5455 88.8441C89.564 92.1763 90.9654 95.3406 92.7079 98.2818C91.0505 98.7853 89.6085 99.7648 88.5455 101.082C87.4828 99.7645 86.0405 98.7853 84.3831 98.2818C86.1252 95.3406 87.5266 92.1763 88.5455 88.8441ZM69.585 95.0518H71.7328C72.4099 97.6693 74.4532 99.7375 77.0505 100.459L78.8726 100.874C78.3849 102.643 78.1173 104.507 78.1173 106.43H69.5853V95.0518H69.585ZM105.358 95.0518H107.506V106.43H98.9734C98.9734 104.507 98.7057 102.643 98.218 100.874L100.04 100.459C102.637 99.7375 104.681 97.6693 105.358 95.0518ZM82.576 101.748C84.8763 102.073 86.6495 104.04 86.6495 106.43H81.9095C81.9092 104.804 82.1501 103.238 82.576 101.748ZM94.515 101.748C94.9408 103.238 95.1815 104.804 95.1815 106.43H90.4414C90.4414 104.04 92.2147 102.074 94.515 101.748ZM82.3388 110.223H86.6492V118.208C84.5574 116.021 83.0378 113.274 82.3388 110.223ZM90.4414 110.223H94.7518C94.0529 113.274 92.5332 116.021 90.4414 118.208V110.223Z" fill="#FFD400"/>
</g>
<defs>
<clipPath id="clip0_5_1698">
<rect width="175" height="175" fill="white" transform="translate(0.874268)"/>
</clipPath>
</defs>
</svg>
