<svg width="125" height="175" viewBox="0 0 125 175" fill="none" xmlns="http://www.w3.org/2000/svg">
<g clip-path="url(#clip0_5_1568)">
<path d="M20.1659 68.769C19.907 68.769 19.6653 68.769 19.4064 68.8036C19.182 68.8208 18.9922 68.9071 18.8541 69.028C18.8368 69.0452 18.8368 69.0452 18.8196 69.0625C18.6815 69.2178 18.5952 69.4077 18.5606 69.6321V69.6494C18.4053 71.6689 18.9231 73.4986 20.1314 75.2247C20.8391 76.2258 21.6676 77.0543 22.5307 77.8311C21.9438 77.6412 21.3397 77.5376 20.7355 77.5031C20.4421 77.5031 20.2695 77.6412 20.2177 77.7103C20.2004 77.7275 20.2004 77.7275 20.1832 77.7448C20.0969 77.8483 19.9588 78.0555 20.0278 78.3834C20.2867 79.6435 20.9599 80.8172 22.0646 81.991C22.4616 82.4053 22.8932 82.8023 23.3247 83.1648C22.9449 83.0957 22.5652 83.0612 22.1855 83.0612H22.0301C21.7367 83.0784 21.5641 83.2165 21.4778 83.3201L21.4605 83.3546C21.3914 83.4582 21.2706 83.6653 21.3569 83.9933C21.6849 85.1498 22.3753 86.2027 23.48 87.2038C23.808 87.4973 24.136 87.7734 24.4812 88.0324C24.0842 87.9978 23.6181 87.9978 23.3592 88.0324C23.3247 88.0324 23.3074 88.0324 23.2729 88.0324C22.9795 88.0669 22.8241 88.2395 22.7551 88.3431C22.7378 88.3603 22.7378 88.3776 22.7206 88.3948C22.6688 88.4984 22.5997 88.7055 22.686 88.9472C22.686 88.9645 22.7033 88.9817 22.7033 88.999C23.1003 90.0692 23.8425 91.0185 24.9472 91.8988C25.1889 92.0887 25.4305 92.2613 25.6722 92.4339C25.1889 92.3994 24.7228 92.4339 24.2568 92.5202C23.9461 92.572 23.808 92.7619 23.7562 92.8827C23.7562 92.8827 23.7562 92.9 23.739 92.9C23.739 92.9172 23.7217 92.9345 23.7217 92.9518C23.6699 93.0726 23.6354 93.2797 23.7562 93.5214C24.2395 94.557 25.0335 95.4546 26.2073 96.2486C26.2936 96.3004 26.3799 96.3522 26.4662 96.4212C25.8448 96.404 25.2407 96.4557 24.671 96.6111H24.6538C24.3949 96.6801 24.274 96.8528 24.2223 96.9563C24.205 96.9736 24.205 97.0081 24.1877 97.0254C24.136 97.1462 24.0842 97.3706 24.2395 97.6468C24.5157 98.1301 24.8437 98.5616 25.2579 98.9586C25.2061 98.9413 25.1544 98.9413 25.1026 98.9241C23.7217 98.6479 22.5134 98.7169 21.4432 99.1139C21.2188 99.2003 21.098 99.3383 21.029 99.4592C21.0117 99.4937 20.9944 99.5455 20.9772 99.58C20.9427 99.7008 20.9081 99.9252 21.0635 100.167C21.0635 100.184 21.0808 100.184 21.0808 100.201C21.3397 100.581 21.6504 100.944 22.0128 101.254C21.7194 101.203 21.426 101.151 21.1153 101.116C19.6999 100.944 18.5261 101.099 17.4732 101.582C17.2315 101.703 17.128 101.876 17.0762 101.997C17.0589 102.031 17.0589 102.066 17.0417 102.1C17.0244 102.221 17.0244 102.445 17.197 102.687C17.4387 102.998 17.7148 103.274 18.0255 103.533C17.6113 103.481 17.1798 103.429 16.731 103.412C15.2293 103.343 14.0037 103.602 12.9508 104.171C12.7437 104.292 12.6401 104.448 12.6056 104.586C12.5883 104.62 12.5883 104.637 12.5883 104.672C12.5883 104.689 12.5883 104.707 12.5883 104.724C12.5711 104.845 12.5883 105.069 12.7954 105.311C12.7954 105.311 12.7954 105.311 12.7954 105.328C13.0889 105.639 13.4168 105.915 13.7793 106.156C13.3133 106.122 12.8472 106.087 12.3812 106.087H12.0705C10.4652 106.122 9.17062 106.484 8.08318 107.192C7.91057 107.296 7.82426 107.434 7.77248 107.572C7.75522 107.624 7.73796 107.693 7.73796 107.744C7.73796 107.762 7.73796 107.762 7.73796 107.779C7.73796 107.9 7.75522 108.141 7.99687 108.366C8.4284 108.763 8.92897 109.108 9.46406 109.384C8.22127 109.315 6.97847 109.35 5.92555 109.54C3.83696 109.902 2.1799 110.834 0.850798 112.37C0.695449 112.543 0.626404 112.75 0.626404 112.888C0.626404 112.923 0.626404 112.957 0.626404 112.992C0.626404 113.199 0.712711 113.389 0.86806 113.579C2.19716 115.115 3.85422 116.047 5.92555 116.41C6.97847 116.599 8.22127 116.634 9.46406 116.565C8.91171 116.841 8.4284 117.186 7.99687 117.583C7.75522 117.808 7.73796 118.049 7.73796 118.136C7.73796 118.187 7.73796 118.222 7.75522 118.256C7.78974 118.395 7.85878 118.584 8.08318 118.74C9.17062 119.447 10.4652 119.81 12.0705 119.844H12.3812C12.8472 119.844 13.3133 119.81 13.7793 119.775C13.3996 120.034 13.0716 120.311 12.7782 120.638C12.5711 120.863 12.5538 121.105 12.5711 121.156C12.5711 121.208 12.5711 121.243 12.5883 121.294C12.6228 121.415 12.6919 121.622 12.9681 121.778C14.021 122.365 15.2465 122.606 16.7482 122.537C17.197 122.52 17.6113 122.468 18.0428 122.416C17.7321 122.675 17.4559 122.951 17.197 123.262C17.0244 123.469 17.0244 123.676 17.0417 123.797C17.0417 123.849 17.0589 123.918 17.0934 123.97C17.1452 124.091 17.2488 124.246 17.4732 124.35C18.5261 124.833 19.6999 124.988 21.1153 124.816C21.426 124.781 21.7194 124.729 22.0128 124.678C21.6504 125.006 21.3397 125.351 21.0808 125.748C20.9081 126.007 20.9427 126.248 20.9599 126.3C20.9599 126.335 20.9772 126.369 20.9944 126.421C21.0462 126.542 21.1671 126.732 21.426 126.818C22.4962 127.215 23.7044 127.267 25.0853 127.008C25.1544 126.991 25.2407 126.973 25.3097 126.956C24.8609 127.37 24.5157 127.819 24.2223 128.32C24.0842 128.561 24.1187 128.751 24.1532 128.889C24.1532 128.924 24.1705 128.941 24.1877 128.976C24.2395 129.114 24.3776 129.286 24.6538 129.373C24.671 129.373 24.671 129.373 24.6883 129.373C25.2234 129.528 25.793 129.58 26.3972 129.562C26.3281 129.597 26.2763 129.649 26.2073 129.683C25.0335 130.477 24.2395 131.358 23.7562 132.41C23.6354 132.687 23.7044 132.911 23.7562 133.032C23.7562 133.032 23.7562 133.049 23.7735 133.049C23.8253 133.153 23.9633 133.343 24.274 133.394C24.2913 133.394 24.2913 133.394 24.3086 133.394C24.6365 133.463 24.9817 133.481 25.327 133.481C25.4478 133.481 25.5686 133.481 25.6894 133.463C25.4478 133.636 25.2061 133.809 24.9645 133.999C23.8598 134.879 23.1176 135.828 22.7206 136.898C22.7206 136.916 22.7033 136.933 22.7033 136.95C22.617 137.226 22.7033 137.416 22.7378 137.485C22.7378 137.485 22.7378 137.485 22.7378 137.502C22.7378 137.52 22.7551 137.537 22.7723 137.554C22.8414 137.658 22.9795 137.83 23.2729 137.865C23.2902 137.865 23.2902 137.865 23.3074 137.865C23.5146 137.882 23.7044 137.9 23.9116 137.9C24.1014 137.9 24.2913 137.882 24.4812 137.865C24.136 138.124 23.808 138.4 23.48 138.694C22.3753 139.695 21.6849 140.748 21.3569 141.904C21.2706 142.215 21.3914 142.439 21.4605 142.543C21.4778 142.56 21.4778 142.577 21.495 142.594C21.5813 142.698 21.7539 142.819 22.0301 142.836H22.1855C22.5652 142.836 22.9449 142.802 23.3247 142.733C22.8932 143.095 22.4789 143.475 22.0646 143.906C20.9599 145.063 20.2867 146.237 20.0278 147.514C19.9588 147.842 20.0969 148.049 20.1832 148.153L20.2004 148.17C20.304 148.273 20.5111 148.411 20.7873 148.394C21.3742 148.36 21.9611 148.256 22.5479 148.066C21.7021 148.843 20.8564 149.672 20.1487 150.673C18.9404 152.399 18.4225 154.228 18.5606 156.213C18.5606 156.231 18.5606 156.265 18.5606 156.283C18.5779 156.507 18.6642 156.697 18.7678 156.783C18.7678 156.8 18.785 156.8 18.785 156.818C18.8023 156.835 18.8368 156.869 18.8541 156.887C18.9749 156.99 19.1303 157.059 19.3201 157.094C19.3546 157.094 19.3892 157.111 19.4237 157.111C19.6481 157.128 19.8725 157.146 20.0969 157.146C21.8575 157.146 23.4628 156.628 24.999 155.54C26.0001 154.833 26.8287 154.004 27.6054 153.158C27.4156 153.745 27.312 154.315 27.2947 154.902C27.2775 155.212 27.4328 155.402 27.5019 155.454C27.5709 155.523 27.6572 155.575 27.7435 155.609C27.8298 155.644 27.9334 155.661 28.0024 155.661C28.037 155.661 28.1405 155.644 28.175 155.644C29.4351 155.385 30.6089 154.712 31.7653 153.607C32.1796 153.21 32.5766 152.779 32.9391 152.347C32.8528 152.779 32.8183 153.227 32.8355 153.659C32.8528 153.97 33.0081 154.142 33.0944 154.211C33.1462 154.263 33.2153 154.28 33.2843 154.315C33.4051 154.367 33.5087 154.384 33.6813 154.349C33.7158 154.349 33.7331 154.332 33.7676 154.332C34.9241 154.004 35.977 153.314 36.9782 152.209C37.2716 151.881 37.5478 151.553 37.8067 151.208C37.7722 151.605 37.7722 152.002 37.8067 152.399C37.8412 152.709 38.0311 152.865 38.1347 152.934C38.1865 152.968 38.2555 152.986 38.3073 153.003C38.3763 153.02 38.4454 153.037 38.4972 153.037C38.5662 153.037 38.7043 153.02 38.7733 152.986C39.8435 152.589 40.7929 151.846 41.6732 150.742C41.8631 150.5 42.0357 150.258 42.2083 150.017C42.1738 150.5 42.2083 150.966 42.2946 151.432C42.2946 151.449 42.2946 151.449 42.2946 151.467C42.3636 151.76 42.5535 151.898 42.6571 151.95H42.6743C42.7261 151.967 42.7779 151.985 42.8297 152.002C42.985 152.036 43.1231 152.019 43.2612 151.967C43.2785 151.967 43.2957 151.95 43.313 151.95C44.3486 151.467 45.2462 150.673 46.0402 149.499C46.092 149.43 46.1265 149.378 46.1611 149.309C46.1438 149.913 46.2128 150.483 46.3682 151.035V151.052C46.4545 151.346 46.6616 151.467 46.7652 151.518C46.7652 151.518 46.7825 151.518 46.7825 151.536C46.9723 151.605 47.1967 151.588 47.4039 151.484C47.9044 151.208 48.3532 150.845 48.7675 150.414C48.7502 150.483 48.7329 150.569 48.7157 150.638C48.4395 152.019 48.5086 153.227 48.9056 154.297C49.0091 154.556 49.1817 154.677 49.3026 154.729C49.3544 154.746 49.4061 154.764 49.4579 154.764C49.6478 154.798 49.8031 154.764 49.9412 154.66C49.9585 154.643 49.9757 154.643 49.993 154.625C50.3728 154.367 50.7352 154.056 51.0459 153.693C50.9941 153.987 50.9424 154.28 50.9078 154.591C50.7352 155.989 50.8906 157.18 51.3739 158.233C51.4947 158.492 51.6846 158.595 51.8054 158.63C51.8399 158.647 51.8917 158.647 51.9262 158.665C52.1506 158.682 52.306 158.63 52.4613 158.492C52.772 158.25 53.0482 157.974 53.3071 157.663C53.2553 158.078 53.2036 158.509 53.1863 158.958C53.1173 160.442 53.3762 161.685 53.9458 162.738C54.0839 162.98 54.2737 163.066 54.4118 163.101C54.4291 163.101 54.4464 163.101 54.4636 163.118C54.4809 163.118 54.4981 163.118 54.5154 163.118C54.688 163.135 54.8606 163.101 55.0678 162.911L55.085 162.893C55.3957 162.6 55.6719 162.272 55.9308 161.892C55.879 162.445 55.8618 163.014 55.8618 163.601C55.8963 165.206 56.2588 166.501 56.9665 167.588C57.0873 167.761 57.2254 167.847 57.3462 167.899C57.398 167.916 57.467 167.934 57.5361 167.934C57.5534 167.934 57.5534 167.934 57.5706 167.934C57.7087 167.934 57.9158 167.882 58.0884 167.709C58.1057 167.692 58.1057 167.692 58.123 167.675C58.52 167.243 58.8479 166.76 59.1414 166.208C59.0896 167.364 59.0896 168.538 59.2967 169.746C59.6592 171.835 60.5913 173.492 62.1275 174.804C62.3001 174.959 62.5073 175.045 62.7317 175.045C62.7489 175.045 62.7662 175.045 62.7662 175.045C62.9733 175.045 63.1632 174.959 63.3358 174.821C64.872 173.492 65.8041 171.835 66.1666 169.763C66.3737 168.555 66.3737 167.381 66.322 166.242C66.5981 166.76 66.9261 167.243 67.3058 167.675C67.3058 167.692 67.3231 167.692 67.3404 167.709C67.5302 167.916 67.7374 167.951 67.8755 167.951C67.979 167.951 68.0826 167.934 68.1689 167.882C68.2725 167.83 68.376 167.744 68.4623 167.606C69.17 166.518 69.5325 165.224 69.567 163.618C69.5843 163.032 69.5498 162.462 69.498 161.91C69.7396 162.272 70.0158 162.6 70.3265 162.893C70.3438 162.911 70.361 162.928 70.3783 162.928C70.5509 163.083 70.7408 163.118 70.8616 163.118C70.8616 163.118 70.8616 163.118 70.8789 163.118H70.8961C71.0342 163.118 71.1551 163.066 71.2586 162.997C71.3449 162.945 71.4312 162.859 71.5003 162.738C72.0872 161.685 72.3288 160.46 72.2598 158.958C72.2425 158.509 72.1907 158.095 72.1389 157.663C72.3979 157.974 72.674 158.25 72.9847 158.509C73.1401 158.63 73.2782 158.682 73.4853 158.665C73.6406 158.665 73.796 158.595 73.8996 158.492C73.9686 158.44 74.0377 158.354 74.0894 158.233C74.5727 157.197 74.7281 156.006 74.5555 154.591C74.521 154.28 74.4692 153.987 74.4174 153.693C74.7454 154.056 75.0906 154.367 75.4876 154.643C75.5221 154.66 75.5566 154.694 75.6084 154.712C75.6257 154.729 75.6429 154.729 75.6602 154.746C75.8155 154.815 75.9364 154.815 76.0917 154.764C76.2125 154.729 76.3161 154.677 76.3851 154.591C76.4542 154.522 76.5232 154.436 76.5578 154.315C76.9548 153.227 77.0238 152.036 76.7476 150.655C76.7304 150.586 76.7131 150.5 76.6959 150.431C77.1101 150.88 77.5589 151.225 78.0595 151.518C78.2321 151.622 78.4047 151.657 78.6118 151.588C78.6463 151.588 78.6636 151.57 78.6981 151.553C78.819 151.501 79.0261 151.38 79.1124 151.07C79.2678 150.517 79.3368 149.948 79.3195 149.344C79.354 149.413 79.4058 149.464 79.4404 149.533C80.2344 150.707 81.1147 151.501 82.1676 151.985C82.2366 152.019 82.4093 152.054 82.4956 152.054C82.5473 152.054 82.6164 152.036 82.6854 152.019C82.7027 152.019 82.72 152.002 82.7545 152.002C82.7717 152.002 82.7717 151.985 82.789 151.985C82.789 151.985 82.8063 151.985 82.8063 151.967H82.8235C82.9271 151.915 83.1342 151.76 83.186 151.449C83.2723 150.983 83.3068 150.517 83.2723 150.034C83.4449 150.276 83.6175 150.517 83.8074 150.759C84.6877 151.864 85.6371 152.606 86.7245 153.003C86.7936 153.02 86.9144 153.055 86.9834 153.055C87.0525 153.055 87.1388 153.037 87.2078 153.02H87.2251C87.2424 153.003 87.2769 153.003 87.2941 152.986C87.3114 152.968 87.3459 152.968 87.3632 152.951C87.4668 152.882 87.6221 152.727 87.6566 152.433C87.7084 152.036 87.7084 151.657 87.6566 151.26C87.9155 151.605 88.1917 151.933 88.4852 152.261C89.4863 153.365 90.5392 154.056 91.6957 154.384C91.7302 154.384 91.7475 154.401 91.782 154.401C91.9546 154.436 92.0754 154.401 92.1963 154.367C92.2135 154.367 92.2308 154.349 92.2481 154.332C92.2653 154.315 92.2998 154.297 92.3171 154.297C92.3344 154.28 92.3516 154.263 92.3689 154.246C92.4725 154.142 92.5933 153.987 92.6105 153.711C92.6278 153.279 92.5933 152.848 92.507 152.399C92.8695 152.83 93.2492 153.245 93.6807 153.659C94.8372 154.764 96.011 155.437 97.271 155.696C97.2883 155.696 97.3055 155.696 97.3401 155.713C97.5299 155.73 97.6335 155.713 97.7543 155.644C97.8061 155.627 97.8406 155.592 97.8924 155.575C97.9097 155.558 97.9269 155.54 97.9442 155.523L97.9615 155.506C98.0478 155.402 98.1686 155.23 98.1513 154.953C98.1168 154.367 98.0132 153.78 97.8234 153.193C98.6001 154.039 99.4287 154.884 100.43 155.592C101.966 156.68 103.571 157.197 105.332 157.197C105.556 157.197 105.781 157.18 106.022 157.163C106.247 157.146 106.437 157.059 106.575 156.938C106.592 156.921 106.609 156.904 106.627 156.887C106.713 156.8 106.799 156.645 106.851 156.421C106.851 156.386 106.868 156.352 106.868 156.317C107.024 154.297 106.506 152.468 105.297 150.742C104.59 149.741 103.761 148.912 102.915 148.135C103.502 148.325 104.072 148.429 104.659 148.446C104.814 148.463 104.969 148.411 105.056 148.36C105.246 148.273 105.366 148.101 105.401 147.894C105.418 147.79 105.436 147.687 105.401 147.548C105.142 146.288 104.469 145.115 103.364 143.941C102.967 143.527 102.536 143.13 102.104 142.767C102.484 142.836 102.864 142.871 103.243 142.871H103.399C103.709 142.871 103.882 142.698 103.968 142.612C103.986 142.595 103.986 142.577 104.003 142.577C104.072 142.474 104.175 142.267 104.089 141.956C103.761 140.799 103.053 139.746 101.966 138.745C101.638 138.452 101.31 138.176 100.965 137.917C101.362 137.951 101.759 137.951 102.156 137.917C102.415 137.882 102.57 137.744 102.656 137.641C102.691 137.589 102.726 137.537 102.743 137.468C102.795 137.347 102.812 137.175 102.743 136.933C102.346 135.863 101.604 134.913 100.499 134.033C100.257 133.843 100.016 133.671 99.7739 133.498C100.257 133.532 100.723 133.498 101.189 133.412C101.207 133.412 101.207 133.412 101.224 133.394C101.517 133.325 101.655 133.135 101.707 133.032C101.707 133.015 101.724 132.997 101.724 132.98C101.776 132.859 101.811 132.652 101.69 132.41C101.207 131.358 100.413 130.477 99.2388 129.683C99.1697 129.649 99.118 129.597 99.0489 129.562C99.6531 129.58 100.223 129.511 100.758 129.373H100.775C101.086 129.286 101.207 129.079 101.258 128.958V128.941C101.31 128.82 101.345 128.596 101.207 128.354V128.337C100.93 127.836 100.568 127.388 100.136 126.973C100.205 126.991 100.292 127.008 100.361 127.025C101.742 127.301 102.95 127.232 104.02 126.835C104.279 126.749 104.4 126.559 104.452 126.438C104.469 126.404 104.469 126.386 104.486 126.352C104.521 126.231 104.538 126.007 104.365 125.765C104.106 125.385 103.796 125.023 103.433 124.712C103.727 124.764 104.02 124.816 104.331 124.85C105.746 125.023 106.92 124.867 107.973 124.384H107.99C108.249 124.263 108.335 124.073 108.387 123.953C108.387 123.935 108.404 123.901 108.404 123.884C108.422 123.763 108.439 123.538 108.266 123.297L108.249 123.279C108.007 122.969 107.731 122.693 107.421 122.434C107.835 122.503 108.266 122.537 108.715 122.554C108.87 122.554 109.026 122.572 109.164 122.572C110.458 122.572 111.529 122.313 112.478 121.795C112.478 121.795 112.478 121.795 112.495 121.795C112.737 121.657 112.823 121.467 112.858 121.329C112.875 121.294 112.875 121.243 112.875 121.208C112.875 121.087 112.858 120.88 112.685 120.69C112.685 120.673 112.668 120.673 112.668 120.656C112.374 120.345 112.029 120.052 111.667 119.81C112.133 119.844 112.599 119.879 113.065 119.879C113.151 119.879 113.272 119.879 113.376 119.879C114.981 119.844 116.275 119.482 117.363 118.774C117.535 118.671 117.622 118.533 117.674 118.395C117.691 118.325 117.708 118.274 117.725 118.205C117.725 118.049 117.691 117.842 117.466 117.618C117.035 117.221 116.552 116.893 115.999 116.599C116.396 116.617 116.811 116.634 117.208 116.634C118.053 116.634 118.813 116.565 119.538 116.444C121.626 116.082 123.283 115.149 124.595 113.613C124.751 113.441 124.82 113.251 124.837 113.026C124.837 113.009 124.837 112.992 124.837 112.975C124.837 112.785 124.768 112.595 124.63 112.422C124.63 112.405 124.613 112.405 124.595 112.388C123.266 110.851 121.609 109.919 119.538 109.557C118.485 109.367 117.259 109.35 116.017 109.402C116.552 109.125 117.035 108.78 117.484 108.383C117.708 108.176 117.743 107.934 117.743 107.848C117.743 107.796 117.743 107.744 117.725 107.693C117.691 107.555 117.622 107.382 117.397 107.227C116.31 106.519 115.015 106.156 113.41 106.122C112.823 106.105 112.254 106.139 111.701 106.191C112.064 105.949 112.392 105.673 112.685 105.362L112.702 105.345C112.892 105.138 112.927 104.931 112.91 104.793C112.91 104.758 112.91 104.724 112.892 104.689C112.858 104.568 112.771 104.361 112.513 104.206C111.46 103.619 110.234 103.377 108.732 103.446C108.284 103.464 107.869 103.516 107.438 103.567C107.748 103.308 108.025 103.032 108.266 102.722C108.266 102.704 108.284 102.704 108.284 102.687C108.318 102.652 108.335 102.618 108.353 102.566C108.353 102.549 108.37 102.549 108.37 102.532C108.456 102.376 108.473 102.238 108.404 102.083C108.404 102.066 108.387 102.031 108.387 102.014C108.335 101.893 108.232 101.72 108.007 101.617C106.954 101.133 105.781 100.978 104.365 101.151C104.055 101.185 103.761 101.237 103.468 101.289C103.83 100.961 104.141 100.616 104.4 100.236C104.4 100.236 104.4 100.219 104.417 100.219C104.572 99.9597 104.555 99.7353 104.521 99.6318C104.521 99.6145 104.503 99.5973 104.503 99.5627C104.452 99.4247 104.331 99.2693 104.072 99.1485C103.002 98.7515 101.776 98.6824 100.413 98.9586C100.343 98.9759 100.257 98.9931 100.188 99.0104C100.637 98.5961 100.982 98.1473 101.276 97.6468C101.431 97.3706 101.379 97.1289 101.327 97.0081C101.327 96.9908 101.327 96.9908 101.31 96.9736C101.258 96.8528 101.12 96.6629 100.827 96.5938C100.274 96.4385 99.7048 96.3694 99.1007 96.3867C99.1697 96.3522 99.2388 96.3004 99.3078 96.2486C100.482 95.4546 101.276 94.5743 101.759 93.5214C101.862 93.297 101.845 93.1244 101.793 93.0035C101.776 92.9518 101.759 92.9172 101.742 92.8654C101.742 92.8654 101.742 92.8655 101.742 92.8482C101.673 92.7274 101.535 92.572 101.258 92.5202H101.241C100.792 92.4339 100.309 92.3994 99.8429 92.4339C100.085 92.2613 100.326 92.0887 100.568 91.8988C101.673 91.0185 102.415 90.0692 102.812 88.999C102.812 88.9817 102.829 88.9645 102.829 88.9645C102.898 88.7401 102.864 88.5675 102.812 88.4466C102.795 88.4121 102.777 88.3776 102.743 88.3431C102.674 88.2395 102.518 88.0841 102.242 88.0496H102.225C101.845 88.0151 101.448 87.9978 101.034 88.0496C101.379 87.7907 101.707 87.5145 102.035 87.2211C103.14 86.22 103.83 85.167 104.158 84.0105C104.193 83.907 104.193 83.8034 104.193 83.7171C104.193 83.4754 104.055 83.2856 103.847 83.182C103.761 83.1302 103.64 83.0957 103.485 83.0784H103.33C102.95 83.0784 102.57 83.113 102.19 83.182C102.622 82.8195 103.036 82.4398 103.45 82.0083C104.555 80.8518 105.228 79.678 105.487 78.418C105.556 78.09 105.436 77.8829 105.349 77.7793L105.332 77.762C105.315 77.7448 105.297 77.7275 105.297 77.7275C105.211 77.6412 105.038 77.5376 104.745 77.5376C104.158 77.5722 103.589 77.6757 103.002 77.8483C103.847 77.0889 104.676 76.2603 105.384 75.2592C106.592 73.5331 107.11 71.7034 106.972 69.7184C106.972 69.6839 106.972 69.6666 106.972 69.6321C106.954 69.4077 106.868 69.2178 106.713 69.0797C106.713 69.0797 106.713 69.0797 106.696 69.0625L106.678 69.0452C106.575 68.9416 106.385 68.8381 106.109 68.8036C106.109 68.8036 106.109 68.8036 106.091 68.8036C104.089 68.6482 102.242 69.166 100.516 70.3743C99.515 71.082 98.6692 71.9106 97.9097 72.7736C98.0996 72.1867 98.2031 71.5999 98.2376 71.013C98.2549 70.7541 98.1513 70.5642 98.0478 70.4779C98.0305 70.4606 98.0133 70.4434 97.9787 70.4261C97.8579 70.3225 97.7025 70.2708 97.5299 70.2708C97.4954 70.2708 97.3918 70.288 97.3573 70.288C96.0973 70.5642 94.9235 71.2201 93.7498 72.3248C93.3355 72.7218 92.9385 73.1534 92.576 73.5849C92.6623 73.1361 92.6968 72.7046 92.6796 72.273C92.6623 71.9796 92.5242 71.807 92.4725 71.7725C92.4552 71.7552 92.4207 71.7379 92.4034 71.7207L92.3861 71.7034C92.2653 71.6171 92.1272 71.5826 91.9891 71.5826C91.9374 71.5826 91.8165 71.5999 91.7647 71.6171C90.6083 71.9451 89.5553 72.6528 88.5542 73.7402C88.2607 74.0682 87.9846 74.3961 87.7257 74.7414C87.7602 74.3444 87.7602 73.9474 87.7257 73.5504C87.6911 73.2397 87.5013 73.0843 87.3977 73.0153C87.3804 72.998 87.3632 72.998 87.3459 72.9807C87.2596 72.929 87.1388 72.9117 87.0352 72.9117C86.9662 72.9117 86.8281 72.9462 86.759 72.9635C85.6889 73.3605 84.7395 74.1027 83.8592 75.2074C83.6693 75.4491 83.4967 75.6907 83.3241 75.9324C83.3586 75.4491 83.3241 74.983 83.2378 74.517C83.186 74.2235 83.0134 74.0854 82.8926 74.0164C82.8753 74.0164 82.8753 73.9991 82.858 73.9991C82.858 73.9991 82.858 73.9991 82.8408 73.9991C82.8063 73.9819 82.7717 73.9646 82.7372 73.9646C82.5646 73.9128 82.4093 73.9301 82.2539 73.9991C82.2366 73.9991 82.2367 74.0164 82.2194 74.0164C81.1837 74.4997 80.2861 75.2937 79.4921 76.4675C79.4576 76.5365 79.4058 76.5883 79.3713 76.6573C79.3886 76.0532 79.3195 75.4836 79.1642 74.9312C79.0779 74.6205 78.8707 74.4825 78.7499 74.4479C78.7154 74.4307 78.6809 74.4307 78.6464 74.4134C78.4565 74.3616 78.2839 74.3961 78.1458 74.4824C78.1285 74.4824 78.1285 74.4997 78.1113 74.4997C77.6107 74.7759 77.1619 75.1384 76.7476 75.5699H48.8193C48.405 75.1211 47.9389 74.7586 47.4384 74.4824C47.283 74.3961 47.1277 74.3616 46.9378 74.4134C46.9033 74.4134 46.8515 74.4307 46.817 74.4479C46.6961 74.4997 46.489 74.6205 46.42 74.9312C46.2646 75.4836 46.1956 76.0532 46.2128 76.6573C46.1783 76.5883 46.1265 76.5365 46.092 76.4675C45.298 75.2937 44.4177 74.4997 43.3648 74.0164C43.3475 74.0164 43.3475 74.0164 43.3302 73.9991C43.1749 73.9301 43.0195 73.9128 42.8469 73.9646C42.7952 73.9819 42.7606 73.9991 42.7088 74.0164C42.588 74.0854 42.4154 74.2235 42.3636 74.517C42.2773 74.983 42.2428 75.4491 42.2773 75.9324C42.1047 75.6907 41.9321 75.4491 41.7422 75.2074C40.8619 74.1027 39.9126 73.3605 38.8251 72.9635C38.687 72.9117 38.5489 72.8944 38.3763 72.9462C38.29 72.9635 38.221 72.998 38.1519 73.0498C38.0484 73.1188 37.893 73.2742 37.8585 73.5676C37.824 73.9646 37.8067 74.3444 37.8585 74.7414C37.5996 74.3961 37.3234 74.0682 37.03 73.7402C36.0288 72.6355 34.9759 71.9451 33.8194 71.6171C33.6641 71.5826 33.5087 71.5826 33.3361 71.6344C33.3016 71.6516 33.2843 71.6516 33.2498 71.6689C33.2325 71.6862 33.2153 71.6862 33.198 71.7034C33.1807 71.7207 33.1635 71.7207 33.1635 71.7379C33.0772 71.807 32.9046 71.9796 32.9046 72.3076C32.8873 72.7391 32.9218 73.1706 33.0081 73.6021C32.6457 73.1706 32.2659 72.7563 31.8344 72.3421C30.6779 71.2374 29.5041 70.5642 28.2441 70.3053C28.0887 70.2708 27.9161 70.288 27.7435 70.3571C27.7435 70.3571 27.7263 70.3571 27.7263 70.3743C27.6917 70.3916 27.6572 70.4261 27.6227 70.4434C27.6227 70.4434 27.6227 70.4434 27.6054 70.4434C27.5882 70.4606 27.5882 70.4606 27.5709 70.4779C27.4846 70.5642 27.3465 70.7541 27.3465 71.0648C27.381 71.6516 27.4846 72.2385 27.6745 72.8081C26.8977 71.9623 26.0692 71.1165 25.0681 70.4261C23.4628 69.3041 21.9265 68.769 20.1659 68.769Z" fill="#E9BB2B"/>
<path d="M124.15 112.938V112.936C124.15 112.869 124.12 112.8 124.057 112.725C124.057 112.723 124.055 112.723 124.055 112.721C122.877 111.349 121.359 110.441 119.342 110.09C117.417 109.754 115.577 109.981 113.706 110.09L65.8732 112.867L63.4137 112.873V112.938H124.15Z" fill="#FFD700"/>
<path d="M1.2403 112.948H61.9766V113.013L59.5171 113.019L11.6844 115.798C9.81314 115.907 7.97342 116.134 6.04883 115.798C4.03343 115.447 2.51349 114.539 1.33504 113.167C1.33504 113.167 1.33504 113.167 1.33504 113.165C1.27188 113.09 1.24227 113.021 1.24227 112.952C1.24029 112.95 1.2403 112.948 1.2403 112.948Z" fill="#FFD700"/>
<path d="M62.703 174.4H62.7049C62.772 174.4 62.8411 174.371 62.9161 174.308C62.9181 174.308 62.9181 174.306 62.9201 174.306C64.292 173.127 65.2 171.609 65.5514 169.592C65.8869 167.667 65.6599 165.828 65.5514 163.956L62.774 116.124L62.7681 113.664H62.703V174.4C62.701 174.4 62.701 174.4 62.703 174.4Z" fill="#FFD700"/>
<path d="M106.15 69.4872C106.1 69.4379 106.031 69.4102 105.932 69.4024C105.93 69.4024 105.93 69.4024 105.928 69.4024C104.126 69.2662 102.409 69.6984 100.735 70.8749C99.1362 71.9981 97.9972 73.4588 96.7497 74.8603L64.8921 110.648L63.157 112.393L63.2024 112.438L106.15 69.4872C106.15 69.4892 106.15 69.4892 106.15 69.4872Z" fill="#FFD700"/>
<path d="M106.155 156.394C106.205 156.345 106.232 156.276 106.24 156.177C106.24 156.175 106.24 156.175 106.24 156.173C106.377 154.371 105.944 152.653 104.768 150.98C103.645 149.381 102.184 148.242 100.782 146.994L64.9948 115.137L63.2498 113.402L63.2044 113.447L106.155 156.394C106.155 156.396 106.155 156.396 106.155 156.394Z" fill="#FFD700"/>
<path d="M19.2387 69.4912L62.1858 112.438L62.1404 112.484L60.3954 110.749L24.6078 78.8911C23.2083 77.6436 21.7476 76.5046 20.6224 74.9057C19.4459 73.2318 19.0136 71.5145 19.1499 69.7123V69.7103C19.1577 69.6116 19.1874 69.5425 19.2347 69.4932C19.2367 69.4932 19.2367 69.4912 19.2387 69.4912Z" fill="#FFD700"/>
<path d="M19.2446 156.404C19.2446 156.406 19.2466 156.406 19.2446 156.404C19.294 156.453 19.3631 156.481 19.4618 156.489C19.4637 156.489 19.4637 156.489 19.4657 156.489C21.2679 156.625 22.9853 156.193 24.6592 155.016C26.2581 153.893 27.397 152.432 28.6446 151.031L60.5021 115.243L62.2372 113.498L62.1918 113.453L19.2446 156.404Z" fill="#FFD700"/>
<path d="M24.7026 97.249L62.0161 112.705L62.0042 112.733L60.4922 112.109L30.6323 101.08C29.4637 100.648 28.2951 100.275 27.17 99.6474C25.9915 98.99 25.2138 98.2281 24.7243 97.3635C24.6966 97.3142 24.6907 97.2786 24.7026 97.249Z" fill="#FFD700"/>
<path d="M100.674 128.674L63.3604 113.218L63.3722 113.191L64.8842 113.814L94.7441 124.841C95.9127 125.273 97.0813 125.646 98.2064 126.274C99.3849 126.931 100.163 127.693 100.652 128.558C100.68 128.609 100.686 128.645 100.674 128.674Z" fill="#FFD700"/>
<path d="M78.4255 74.9672L62.9695 112.281L62.9418 112.269L63.5656 110.757L74.5921 80.8969C75.0244 79.7284 75.3974 78.5598 76.0251 77.4346C76.6825 76.2562 77.4444 75.4785 78.309 74.9889C78.3584 74.9613 78.3959 74.9554 78.4255 74.9672C78.4235 74.9672 78.4235 74.9672 78.4255 74.9672Z" fill="#FFD700"/>
<path d="M46.9667 150.923C46.9963 150.934 47.0318 150.928 47.0772 150.903H47.0792C47.9438 150.413 48.7038 149.636 49.3631 148.457C49.9908 147.332 50.3658 146.163 50.7962 144.995L61.8226 115.135L62.4464 113.623L62.4187 113.611L46.9667 150.923Z" fill="#FFD700"/>
<path d="M24.7183 128.676L62.0318 113.22L62.0437 113.248L60.5336 113.876L31.6212 127.194C30.4901 127.715 29.3985 128.275 28.1589 128.627C26.8601 128.994 25.7724 129.008 24.815 128.741C24.7598 128.728 24.7302 128.706 24.7183 128.676C24.7183 128.678 24.7183 128.678 24.7183 128.676Z" fill="#FFD700"/>
<path d="M100.672 97.2133L63.3584 112.669L63.3466 112.642L64.8566 112.014L93.769 98.6977C94.9001 98.1766 95.9917 97.616 97.2313 97.2646C98.5302 96.8974 99.6178 96.8836 100.575 97.1501C100.63 97.1619 100.66 97.1837 100.672 97.2133C100.672 97.2113 100.672 97.2113 100.672 97.2133Z" fill="#FFD700"/>
<path d="M46.9628 74.967L62.4188 112.281L62.3911 112.292L61.7634 110.782L48.4472 81.8699C47.9261 80.7389 47.3655 79.6473 47.0141 78.4076C46.6469 77.1088 46.6331 76.0211 46.8996 75.0638C46.9115 75.0105 46.9332 74.9809 46.9628 74.967Z" fill="#FFD700"/>
<path d="M78.4275 150.922L62.9715 113.609L62.9991 113.597L63.6268 115.107L76.9431 144.02C77.4642 145.151 78.0248 146.242 78.3762 147.482C78.7433 148.781 78.7571 149.868 78.4907 150.826C78.4788 150.879 78.4571 150.909 78.4275 150.922Z" fill="#FFD700"/>
<path d="M24.2644 93.1609L60.1586 111.675L60.1448 111.7L58.69 110.952L29.8526 97.474C28.7235 96.9469 27.5905 96.4771 26.5226 95.7566C25.4033 95.0026 24.6907 94.1794 24.2742 93.2773C24.2525 93.226 24.2506 93.1905 24.2644 93.1609Z" fill="#FFD700"/>
<path d="M23.2438 88.678L57.6299 109.862L57.6142 109.888L56.2206 109.031L28.4906 93.4016C27.4049 92.7897 26.3113 92.235 25.3007 91.4356C24.2407 90.5986 23.5952 89.7242 23.2478 88.7925C23.228 88.7411 23.228 88.7056 23.2438 88.678Z" fill="#FFD700"/>
<path d="M21.9134 83.7117L56.7279 108.806L56.7101 108.83L55.2987 107.816L27.093 89.0966C25.9896 88.3643 24.8704 87.6892 23.8636 86.7673C22.8076 85.8021 22.1937 84.8329 21.9075 83.8321C21.8897 83.7768 21.8936 83.7393 21.9134 83.7117C21.9134 83.7136 21.9134 83.7136 21.9134 83.7117Z" fill="#FFD700"/>
<path d="M20.6245 78.165L56.2798 107.865L56.2581 107.891L54.8112 106.691L25.8021 84.3632C24.6671 83.4888 23.5123 82.6775 22.4938 81.6076C21.4279 80.4864 20.8396 79.3968 20.6067 78.2953C20.5948 78.2341 20.6008 78.1927 20.6245 78.165Z" fill="#FFD700"/>
<path d="M101.13 93.159C101.13 93.1571 101.13 93.1571 101.13 93.159C101.114 93.1314 101.084 93.1136 101.031 93.1018H101.029C100.052 92.9182 98.9684 93.0209 97.705 93.4946C96.499 93.9486 95.4587 94.5981 94.375 95.2119L66.6746 110.893L65.2218 111.645L65.2356 111.671L101.13 93.159Z" fill="#FFD700"/>
<path d="M102.15 88.6742C102.133 88.6486 102.101 88.6308 102.048 88.6249H102.046C101.059 88.5163 99.9849 88.6999 98.7611 89.2704C97.5925 89.8152 96.6055 90.5416 95.5712 91.2364L69.14 108.974L67.7484 109.835L67.7642 109.861L102.15 88.6742Z" fill="#FFD700"/>
<path d="M103.481 83.7098C103.461 83.6841 103.426 83.6703 103.368 83.6683H103.366C102.302 83.6407 101.175 83.9269 99.9198 84.6277C98.7217 85.2968 97.7327 86.1417 96.6905 86.9569L70.06 107.762L68.6506 108.781L68.6683 108.805L103.481 83.7098Z" fill="#FFD700"/>
<path d="M104.77 78.161C104.746 78.1353 104.707 78.1215 104.643 78.1235H104.641C103.491 78.1748 102.296 78.5696 100.994 79.4204C99.752 80.2336 98.7473 81.2186 97.6853 82.176L70.5336 106.631L69.0907 107.837L69.1124 107.863L104.77 78.161Z" fill="#FFD700"/>
<path d="M101.126 132.728L65.2317 114.215L65.2455 114.189L66.7003 114.937L95.5357 128.415C96.6648 128.942 97.7978 129.412 98.8658 130.133C99.985 130.887 100.698 131.71 101.114 132.612C101.138 132.663 101.14 132.699 101.126 132.728Z" fill="#FFD700"/>
<path d="M102.146 137.211L67.7603 116.027L67.776 116.001L69.1697 116.858L96.8996 132.488C97.9853 133.1 99.0789 133.654 100.09 134.454C101.15 135.291 101.795 136.165 102.142 137.097C102.162 137.148 102.162 137.184 102.146 137.211Z" fill="#FFD700"/>
<path d="M103.477 142.178L68.6624 117.083L68.6802 117.059L70.0915 118.074L98.2953 136.793C99.3987 137.525 100.518 138.2 101.525 139.122C102.581 140.087 103.195 141.057 103.481 142.057C103.499 142.111 103.497 142.15 103.477 142.178C103.477 142.176 103.477 142.176 103.477 142.178Z" fill="#FFD700"/>
<path d="M104.766 147.724L69.1105 118.024L69.1322 117.999L70.5791 119.199L99.5882 141.526C100.723 142.401 101.878 143.212 102.897 144.282C103.962 145.403 104.551 146.493 104.784 147.594C104.795 147.655 104.79 147.697 104.766 147.724Z" fill="#FFD700"/>
<path d="M24.2604 132.73C24.2762 132.758 24.3058 132.776 24.3591 132.788H24.361C25.3381 132.971 26.4218 132.869 27.6852 132.395C28.8913 131.941 29.9315 131.291 31.0152 130.678L58.7156 114.996L60.1684 114.244L60.1546 114.219L24.2604 132.73Z" fill="#FFD700"/>
<path d="M23.2399 137.215C23.2576 137.241 23.2892 137.259 23.3425 137.264H23.3445C24.3315 137.373 25.4053 137.189 26.6291 136.619C27.7977 136.074 28.7847 135.348 29.819 134.653L56.2502 116.915L57.6418 116.054L57.626 116.029L23.2399 137.215C23.2399 137.213 23.2399 137.213 23.2399 137.215Z" fill="#FFD700"/>
<path d="M21.9095 142.18C21.9292 142.205 21.9648 142.219 22.022 142.221H22.024C23.0879 142.249 24.2151 141.963 25.4705 141.262C26.6687 140.593 27.6596 139.748 28.6999 138.933L55.3304 118.127L56.7398 117.109L56.722 117.085L21.9095 142.18Z" fill="#FFD700"/>
<path d="M20.6205 147.727C20.6205 147.729 20.6225 147.729 20.6205 147.727C20.6442 147.752 20.6837 147.766 20.7469 147.764H20.7489C21.8997 147.713 23.0939 147.318 24.3947 146.467C25.6363 145.654 26.6411 144.669 27.7031 143.712L54.8547 119.258L56.2976 118.052L56.2759 118.027L20.6205 147.727Z" fill="#FFD700"/>
<path d="M103.864 126.132C103.872 126.102 103.864 126.067 103.834 126.023V126.021C103.274 125.2 102.435 124.507 101.205 123.951C100.03 123.418 98.8361 123.143 97.6359 122.81L66.9608 114.31L65.4014 113.814L65.3915 113.842L103.864 126.132Z" fill="#FFD700"/>
<path d="M107.756 123.682C107.762 123.652 107.752 123.617 107.719 123.575C107.719 123.575 107.719 123.573 107.717 123.573C107.095 122.798 106.207 122.17 104.94 121.708C103.73 121.266 102.516 121.082 101.294 120.841L70.0619 114.695L68.4689 114.32L68.463 114.347L107.756 123.682Z" fill="#FFD700"/>
<path d="M112.208 121.112C112.212 121.078 112.196 121.043 112.156 121.001C112.156 121.001 112.156 120.999 112.154 120.999C111.422 120.228 110.421 119.633 109.039 119.241C107.719 118.866 106.422 118.765 105.109 118.603L71.5661 114.483L69.8487 114.207L69.8448 114.237L112.208 121.112Z" fill="#FFD700"/>
<path d="M117.042 118.1C117.044 118.064 117.024 118.027 116.979 117.985C116.979 117.985 116.979 117.983 116.977 117.983C116.128 117.205 115.003 116.641 113.481 116.321C112.028 116.017 110.621 116.005 109.193 115.93L72.7011 114.023L70.8298 113.856L70.8278 113.889L117.042 118.1Z" fill="#FFD700"/>
<path d="M75.8811 154.108L63.5913 115.636L63.6189 115.626L64.1203 117.184L74.979 147.107C75.4034 148.277 75.8732 149.412 76.1199 150.676C76.3785 152 76.2996 153.086 75.9561 154.017C75.9344 154.071 75.9107 154.098 75.8811 154.108Z" fill="#FFD700"/>
<path d="M73.4314 158.001L64.0966 118.708L64.1243 118.702L64.5052 120.293L73.0623 150.95C73.3979 152.15 73.7788 153.317 73.9288 154.596C74.0868 155.936 73.9249 157.012 73.5123 157.916C73.4887 157.967 73.463 157.993 73.4314 158.001Z" fill="#FFD700"/>
<path d="M70.8614 162.452L63.9882 120.092L64.0178 120.088L64.3 121.803L71.0075 154.983C71.27 156.282 71.5839 157.549 71.6451 158.913C71.7102 160.342 71.4576 161.462 70.9522 162.371C70.9246 162.423 70.895 162.447 70.8614 162.452Z" fill="#FFD700"/>
<path d="M67.8511 167.286L63.6406 121.072L63.6742 121.07L63.8479 122.942L68.5735 159.242C68.7591 160.664 69.0019 162.053 68.9644 163.53C68.9249 165.075 68.5696 166.262 67.9576 167.205C67.9241 167.257 67.8905 167.28 67.857 167.284C67.8511 167.286 67.8511 167.286 67.8511 167.286Z" fill="#FFD700"/>
<path d="M21.5265 99.7576C21.5167 99.7872 21.5265 99.8227 21.5561 99.8661V99.8681C22.1167 100.689 22.9557 101.382 24.1854 101.939C25.3599 102.472 26.5542 102.746 27.7543 103.08L58.4294 111.58L59.9889 112.075L59.9987 112.047L21.5265 99.7576Z" fill="#FFD700"/>
<path d="M17.6339 102.208C17.628 102.237 17.6378 102.273 17.6714 102.314C17.6714 102.314 17.6714 102.316 17.6734 102.316C18.2952 103.092 19.1834 103.72 20.4507 104.181C21.6607 104.624 22.8747 104.807 24.0966 105.048L55.3284 111.195L56.9213 111.57L56.9272 111.542L17.6339 102.208Z" fill="#FFD700"/>
<path d="M13.1827 104.777C13.1787 104.811 13.1945 104.846 13.234 104.888C13.234 104.888 13.234 104.89 13.236 104.89C13.9683 105.662 14.9691 106.256 16.3508 106.649C17.6714 107.024 18.9683 107.124 20.281 107.286L53.8242 111.406L55.5416 111.682L55.5455 111.653L13.1827 104.777Z" fill="#FFD700"/>
<path d="M8.34846 107.79C8.34649 107.825 8.36623 107.863 8.41163 107.904C8.41163 107.904 8.41163 107.906 8.4136 107.906C9.2624 108.684 10.3875 109.249 11.9095 109.568C13.3623 109.872 14.7697 109.884 16.1969 109.959L52.6872 111.866L54.5585 112.034L54.5605 112L8.34846 107.79C8.34846 107.788 8.34846 107.788 8.34846 107.79Z" fill="#FFD700"/>
<path d="M82.478 74.513L63.9644 110.407L63.9387 110.393L64.6868 108.939L78.1649 80.1032C78.692 78.9741 79.1618 77.8411 79.8823 76.7732C80.6363 75.654 81.4595 74.9414 82.3616 74.5249C82.4129 74.5012 82.4504 74.4992 82.478 74.513Z" fill="#FFD700"/>
<path d="M86.9628 73.4926L65.7784 107.879L65.7527 107.863L66.6094 106.469L82.2391 78.7393C82.8511 77.6537 83.4057 76.5601 84.2052 75.5494C85.0421 74.4894 85.9166 73.844 86.8483 73.4965C86.8976 73.4768 86.9352 73.4768 86.9628 73.4926Z" fill="#FFD700"/>
<path d="M91.9273 72.1639L66.8325 106.976L66.8088 106.959L67.8234 105.547L86.5424 77.3435C87.2747 76.2401 87.9498 75.1209 88.8716 74.1142C89.8369 73.0581 90.8061 72.4442 91.8069 72.158C91.8622 72.1402 91.8997 72.1422 91.9273 72.1639C91.9273 72.1619 91.9273 72.1619 91.9273 72.1639Z" fill="#FFD700"/>
<path d="M97.476 70.873L67.7741 106.53L67.7484 106.509L68.9486 105.062L91.2759 76.0526C92.1503 74.9176 92.9616 73.7628 94.0315 72.7443C95.1527 71.6784 96.2423 71.0901 97.3438 70.8572C97.4069 70.8434 97.4484 70.8493 97.476 70.873C97.4741 70.873 97.4741 70.873 97.476 70.873Z" fill="#FFD700"/>
<path d="M82.4819 151.38C82.5095 151.365 82.5273 151.335 82.5391 151.282V151.28C82.7227 150.303 82.6201 149.219 82.1463 147.956C81.6923 146.75 81.0429 145.709 80.429 144.626L64.746 116.925L63.9939 115.472L63.9683 115.486L82.4819 151.38Z" fill="#FFD700"/>
<path d="M86.9649 152.399C86.9905 152.381 87.0083 152.35 87.0142 152.296V152.294C87.1228 151.307 86.9392 150.234 86.3687 149.01C85.8239 147.841 85.0975 146.854 84.4027 145.82L66.6648 119.389L65.8042 117.997L65.7785 118.013L86.9649 152.399C86.9649 152.401 86.9649 152.401 86.9649 152.399Z" fill="#FFD700"/>
<path d="M91.9292 153.729C91.9312 153.729 91.9312 153.729 91.9292 153.729C91.9549 153.709 91.9687 153.674 91.9707 153.617V153.615C91.9983 152.551 91.7121 151.424 91.0114 150.168C90.3422 148.97 89.4973 147.979 88.6821 146.939L67.8767 120.308L66.8582 118.899L66.8345 118.917L91.9292 153.729Z" fill="#FFD700"/>
<path d="M97.478 155.018C97.5036 154.994 97.5174 154.955 97.5155 154.892V154.89C97.4641 153.739 97.0694 152.545 96.2186 151.242C95.4053 150 94.4203 148.996 93.463 147.934L69.0077 120.784L67.8017 119.341L67.776 119.363L97.478 155.018Z" fill="#FFD700"/>
<path d="M42.9123 151.376L61.4259 115.482L61.4516 115.496L60.7035 116.951L47.2234 145.786C46.6963 146.915 46.2265 148.048 45.5061 149.116C44.752 150.235 43.9289 150.948 43.0268 151.364C42.9774 151.386 42.9399 151.39 42.9123 151.376Z" fill="#FFD700"/>
<path d="M38.4274 152.395L59.6118 118.009L59.6375 118.025L58.7808 119.418L43.1511 147.148C42.5392 148.234 41.9845 149.327 41.185 150.338C40.3481 151.398 39.4736 152.044 38.5419 152.391C38.4926 152.413 38.4551 152.413 38.4274 152.395C38.4294 152.397 38.4294 152.395 38.4274 152.395Z" fill="#FFD700"/>
<path d="M33.4629 153.726L58.5577 118.911L58.5813 118.929L57.5667 120.34L38.8478 148.544C38.1155 149.647 37.4404 150.767 36.5186 151.773C35.5533 152.829 34.5841 153.443 33.5833 153.73C33.528 153.749 33.4905 153.745 33.4629 153.726Z" fill="#FFD700"/>
<path d="M27.9142 155.016L57.6142 119.361L57.6399 119.383L56.4397 120.83L34.1124 149.837C33.238 150.972 32.4267 152.127 31.3568 153.145C30.2356 154.211 29.146 154.799 28.0445 155.032C27.9833 155.046 27.9439 155.038 27.9142 155.016C27.9162 155.016 27.9162 155.016 27.9142 155.016Z" fill="#FFD700"/>
<path d="M42.9083 74.509C42.8807 74.5248 42.8629 74.5544 42.8511 74.6077V74.6097C42.6675 75.5868 42.7701 76.6705 43.2439 77.9338C43.6979 79.1399 44.3473 80.1802 44.9612 81.2639L60.6422 108.964L61.3943 110.417L61.42 110.403L42.9083 74.509Z" fill="#FFD700"/>
<path d="M38.4255 73.4883C38.4255 73.4903 38.4255 73.4903 38.4255 73.4883C38.3998 73.506 38.382 73.5376 38.3761 73.5909V73.5929C38.2675 74.5799 38.4511 75.6537 39.0216 76.8775C39.5664 78.0461 40.2928 79.0331 40.9876 80.0674L58.7255 106.499L59.5862 107.89L59.6118 107.874L38.4255 73.4883Z" fill="#FFD700"/>
<path d="M33.461 72.1599C33.459 72.1599 33.459 72.1599 33.461 72.1599C33.4353 72.1797 33.4215 72.2152 33.4195 72.2724V72.2744C33.3919 73.3384 33.6781 74.4655 34.3789 75.7209C35.048 76.9191 35.8929 77.91 36.7081 78.9503L57.5135 105.581L58.5321 106.99L58.5558 106.972L33.461 72.1599Z" fill="#FFD700"/>
<path d="M27.9122 70.8712C27.8865 70.8949 27.8727 70.9344 27.8747 70.9976V70.9995C27.926 72.1504 28.3208 73.3446 29.1716 74.6474C29.9848 75.889 30.9698 76.8937 31.9272 77.9557L56.3824 105.105L57.5885 106.548L57.6142 106.527L27.9122 70.8712Z" fill="#FFD700"/>
<path d="M103.86 99.76L65.3876 112.05L65.3777 112.022L66.9352 111.521L96.8563 100.662C98.0268 100.238 99.1618 99.7679 100.425 99.5211C101.75 99.2625 102.835 99.3415 103.767 99.685C103.822 99.7047 103.85 99.7284 103.86 99.76C103.86 99.758 103.86 99.758 103.86 99.76Z" fill="#FFD700"/>
<path d="M107.75 102.207L68.4571 111.542L68.4512 111.515L70.0422 111.134L100.701 102.577C101.902 102.241 103.068 101.86 104.347 101.71C105.688 101.552 106.763 101.714 107.668 102.126C107.717 102.15 107.743 102.176 107.75 102.207Z" fill="#FFD700"/>
<path d="M112.202 104.778L69.8408 111.651L69.8369 111.621L71.5522 111.339L104.732 104.632C106.031 104.369 107.298 104.055 108.662 103.994C110.092 103.929 111.211 104.181 112.121 104.687C112.172 104.716 112.198 104.744 112.202 104.778Z" fill="#FFD700"/>
<path d="M117.038 107.79L70.8238 112L70.8218 111.967L72.6931 111.793L108.994 107.067C110.415 106.882 111.805 106.639 113.281 106.676C114.827 106.716 116.013 107.071 116.957 107.683C117.008 107.717 117.032 107.75 117.036 107.784C117.038 107.788 117.038 107.788 117.038 107.79Z" fill="#FFD700"/>
<path d="M49.5092 154.115C49.5388 154.122 49.5743 154.115 49.6177 154.085H49.6197C50.4409 153.524 51.1337 152.685 51.6904 151.456C52.2234 150.281 52.4977 149.087 52.8313 147.887L61.3311 117.212L61.8266 115.652L61.799 115.642L49.5092 154.115Z" fill="#FFD700"/>
<path d="M51.9569 158.005C51.9589 158.005 51.9589 158.005 51.9569 158.005C51.9865 158.011 52.022 158.001 52.0635 157.968C52.0635 157.968 52.0655 157.967 52.0655 157.966C52.8412 157.344 53.469 156.455 53.9309 155.188C54.373 153.978 54.5566 152.764 54.7974 151.542L60.9443 120.311L61.3193 118.718L61.2917 118.712L51.9569 158.005Z" fill="#FFD700"/>
<path d="M54.5289 162.456C54.5624 162.46 54.598 162.444 54.6394 162.405C54.6394 162.405 54.6414 162.405 54.6414 162.403C55.4132 161.671 56.0074 160.67 56.4002 159.288C56.7752 157.968 56.8759 156.671 57.0378 155.358L61.1574 121.815L61.4337 120.097L61.4041 120.094L54.5289 162.456C54.5269 162.456 54.5269 162.456 54.5289 162.456Z" fill="#FFD700"/>
<path d="M57.5392 167.29C57.5747 167.292 57.6122 167.273 57.6537 167.227C57.6537 167.227 57.6556 167.227 57.6556 167.225C58.4334 166.376 58.9979 165.251 59.3177 163.729C59.6217 162.277 59.6335 160.869 59.7085 159.442L61.6154 122.952L61.7832 121.08L61.7496 121.078L57.5392 167.29Z" fill="#FFD700"/>
<path d="M21.5305 126.13L60.0027 113.84L60.0125 113.868L58.4551 114.369L28.532 125.228C27.3615 125.652 26.2265 126.122 24.9631 126.369C23.6386 126.627 22.553 126.548 21.6213 126.205C21.5699 126.185 21.5403 126.161 21.5305 126.13C21.5305 126.132 21.5305 126.132 21.5305 126.13Z" fill="#FFD700"/>
<path d="M17.6398 123.682L56.9332 114.347L56.9391 114.375L55.3481 114.756L24.6888 123.313C23.4886 123.649 22.322 124.03 21.0429 124.18C19.7026 124.338 18.6268 124.176 17.7227 123.763C17.6734 123.737 17.6477 123.712 17.6398 123.682Z" fill="#FFD700"/>
<path d="M13.1886 121.112L55.5495 114.239L55.5534 114.268L53.8381 114.551L20.658 121.256C19.3592 121.519 18.0919 121.833 16.7279 121.894C15.2987 121.959 14.1795 121.706 13.2695 121.201C13.2182 121.173 13.1925 121.144 13.1886 121.112Z" fill="#FFD700"/>
<path d="M8.35242 118.1L54.5664 113.889L54.5684 113.923L52.6971 114.096L16.3982 118.82C14.977 119.006 13.5873 119.248 12.1108 119.211C10.5652 119.171 9.37887 118.816 8.43532 118.204C8.384 118.171 8.36031 118.137 8.35637 118.104C8.35242 118.102 8.35242 118.1 8.35242 118.1Z" fill="#FFD700"/>
<path fill-rule="evenodd" clip-rule="evenodd" d="M46.6869 65.1846C44.3454 66.6936 41.5096 67.5261 37.1908 66.3554C29.1257 69.2692 23.5582 67.318 20.0199 61.4382C14.2962 58.0821 11.1222 53.5812 12.9434 47.0511C13.984 49.3405 16.3255 52.1763 19.0313 53.269C18.3809 52.3585 18.0426 50.8235 18.9532 49.3665C15.9093 44.7356 14.6345 39.9486 18.0166 34.8493C18.3548 36.8005 19.4215 38.9599 21.4508 39.8705C21.0345 38.4916 20.9825 35.3176 22.3874 32.9501C22.1012 31.4932 20.9565 30.8688 19.5516 30.5306C22.6736 27.0183 26.7062 27.5647 30.8168 28.4232C31.8835 26.7321 31.6753 24.3646 30.9209 22.5175C32.3518 22.2313 33.9388 23.0638 34.7193 24.2085C35.6298 22.1532 35.6559 19.2394 33.2363 17.7564C36.8526 17.028 39.6884 18.1467 41.5616 19.9939C42.2381 16.9239 40.9893 14.1401 37.8413 11.6686C41.6657 10.4978 45.282 11.1482 48.5861 14.01C49.5747 9.92544 52.5666 3.65545 58.9667 3.94163C56.0789 7.3498 56.287 10.0035 56.5212 12.6572C59.7992 9.84739 60.1115 5.50263 58.7586 0.299316C64.17 2.14649 65.8611 5.91889 66.6156 10.1336C67.6563 8.80673 68.0985 6.41321 67.266 3.65545C71.1685 4.2018 75.4352 9.95146 74.7068 16.0914C77.6726 14.4263 79.4678 11.4864 81.0548 8.36445C85.5036 12.0068 86.9345 20.7483 83.3443 26.4199C85.8679 25.5094 88.3915 23.8183 90.0825 21.6069C91.4354 24.2866 90.5769 26.2378 89.7704 27.7208C92.9964 25.1711 94.7655 21.6849 95.8843 17.7564C98.1997 19.7857 98.0956 22.1792 97.7574 24.0524C98.5639 24.2346 99.2664 23.5581 99.9428 22.4134C100.359 26.9143 99.8908 31.6233 97.055 35.0314C100.723 37.0867 104.079 35.0574 106.317 33.3924C106.213 37.477 104.262 40.3128 102.206 43.0705C103.533 43.851 104.6 44.8137 105.25 46.0885C113.784 46.4787 113.836 53.6072 111.78 57.3536C111.494 56.339 110.948 55.6365 109.959 55.4804C109.959 58.8106 108.71 60.1894 107.149 61.022C106.525 60.2675 106.239 59.9033 105.354 59.4089C103.299 62.687 100.177 65.0025 95.7802 65.757C91.7996 66.4594 88.0793 65.4968 84.541 64.0659C81.445 62.8171 78.7653 63.3374 76.4759 65.9651L46.6869 65.1846Z" fill="#FFD700" stroke="#E9BB2B" stroke-width="0.291334" stroke-miterlimit="5.9723" stroke-linecap="round" stroke-linejoin="round"/>
<path opacity="0.992" d="M37.2169 66.3552C40.0007 63.9357 46.2186 62.2446 48.9764 65.1324" stroke="#E9BB2B" stroke-width="0.291334" stroke-miterlimit="5.9723" stroke-linecap="round" stroke-linejoin="round"/>
<path opacity="0.992" d="M20.0199 61.4381C22.8817 62.6349 25.8736 64.2479 30.4005 62.5829C33.7046 61.3601 36.5404 59.669 39.5063 59.2527C45.1259 58.4462 47.6235 61.3081 48.9763 65.1585" stroke="#E9BB2B" stroke-width="0.291334" stroke-miterlimit="5.9723" stroke-linecap="round" stroke-linejoin="round"/>
<path opacity="0.992" d="M19.0313 53.269C20.8525 55.7406 23.5322 56.9114 27.6168 56.417C31.3372 55.9748 34.3291 54.2317 38.2315 54.3617C41.5877 54.4658 44.3715 56.0268 46.791 58.3423C48.7162 60.1634 50.1211 62.4009 50.6415 65.1326" stroke="#E9BB2B" stroke-width="0.291334" stroke-miterlimit="5.9723" stroke-linecap="round" stroke-linejoin="round"/>
<path opacity="0.992" d="M18.9533 49.3406C21.2428 51.604 23.9745 53.139 27.6428 52.7748C30.5827 52.4626 32.9762 51.1617 36.4885 51.4739C40.1568 51.8121 42.1081 53.8935 43.8512 56.0528" stroke="#E9BB2B" stroke-width="0.291334" stroke-miterlimit="5.9723" stroke-linecap="round" stroke-linejoin="round"/>
<path opacity="0.992" d="M21.4508 39.8445C22.1272 42.0039 23.5321 43.877 28.007 44.4494C31.155 47.1291 35.1095 48.7942 38.8819 50.8495C41.8478 52.4625 42.5242 54.3357 43.8251 56.0528" stroke="#E9BB2B" stroke-width="0.291334" stroke-miterlimit="5.9723" stroke-linecap="round" stroke-linejoin="round"/>
<path opacity="0.992" d="M22.4135 32.9241C26.368 34.433 25.4834 42.4722 28.033 44.4494" stroke="#E9BB2B" stroke-width="0.291334" stroke-miterlimit="5.9723" stroke-linecap="round" stroke-linejoin="round"/>
<path opacity="0.992" d="M37.8673 11.6685C42.8365 12.6831 45.5942 15.5449 45.8804 20.1238C46.0885 23.6621 43.9292 26.7581 42.0299 29.802C40.0267 32.976 38.2835 36.1761 37.6331 39.7143C36.7226 44.6314 38.3876 49.2884 40.9893 52.2803" stroke="#E9BB2B" stroke-width="0.291334" stroke-miterlimit="5.9723" stroke-linecap="round" stroke-linejoin="round"/>
<path opacity="0.992" d="M19.5516 30.5045C22.5956 29.8021 25.0151 30.7907 27.2525 32.3257C29.568 33.9127 30.6607 36.2282 31.5453 38.9599C32.612 42.238 34.5112 45.1779 38.1015 47.1031" stroke="#E9BB2B" stroke-width="0.291334" stroke-miterlimit="5.9723" stroke-linecap="round" stroke-linejoin="round"/>
<path opacity="0.992" d="M30.8428 28.397C34.6413 31.8312 36.6966 37.6068 37.399 43.5386" stroke="#E9BB2B" stroke-width="0.291334" stroke-miterlimit="5.9723" stroke-linecap="round" stroke-linejoin="round"/>
<path opacity="0.992" d="M34.7453 24.1824C37.5811 28.5532 37.7372 35.0833 37.5291 40.3126" stroke="#E9BB2B" stroke-width="0.291334" stroke-miterlimit="5.9723" stroke-linecap="round" stroke-linejoin="round"/>
<path opacity="0.992" d="M41.5876 19.9678C43.747 22.4133 39.012 31.8053 38.1794 37.5029" stroke="#E9BB2B" stroke-width="0.291334" stroke-miterlimit="5.9723" stroke-linecap="round" stroke-linejoin="round"/>
<path opacity="0.992" d="M33.2624 17.7302C39.7926 21.0864 40.3909 27.4864 39.7145 31.6231" stroke="#E9BB2B" stroke-width="0.291334" stroke-miterlimit="5.9723" stroke-linecap="round" stroke-linejoin="round"/>
<path opacity="0.992" d="M58.7846 0.273193C67.8384 10.1075 57.796 21.3466 52.7228 28.319C49.913 32.1695 46.3487 34.8752 44.9698 39.168C43.7731 42.9664 45.178 46.3745 47.5715 49.5225C49.3146 51.812 51.474 53.7632 53.8155 56.2088C56.6513 59.1227 57.2757 62.3747 56.7033 65.4447" stroke="#E9BB2B" stroke-width="0.291334" stroke-miterlimit="5.9723" stroke-linecap="round" stroke-linejoin="round"/>
<path opacity="0.992" d="M56.5473 12.6311C55.9229 16.5596 52.8009 20.0979 49.3667 24.0784C45.4902 28.5793 42.3162 33.6525 40.8332 39.8704C39.8446 44.0071 40.8593 47.1291 42.2902 49.7828C43.4349 51.9421 44.9439 53.6072 47.5195 56.0527C52.5667 60.8398 53.087 63.4154 52.8789 65.6268" stroke="#E9BB2B" stroke-width="0.291334" stroke-miterlimit="5.9723" stroke-linecap="round" stroke-linejoin="round"/>
<path opacity="0.992" d="M48.6121 14.01C50.7455 16.6377 50.5634 21.9711 49.3666 24.0784" stroke="#E9BB2B" stroke-width="0.291334" stroke-miterlimit="5.9723" stroke-linecap="round" stroke-linejoin="round"/>
<path opacity="0.992" d="M66.6416 10.1077C67.5782 16.898 57.7699 21.0346 53.8154 26.8103" stroke="#E9BB2B" stroke-width="0.291334" stroke-miterlimit="5.9723" stroke-linecap="round" stroke-linejoin="round"/>
<path opacity="0.992" d="M53.4252 27.3564C51.2398 31.8573 48.9243 36.2281 49.3406 42.1078C49.6528 46.4266 51.526 49.2624 54.3098 51.2136C60.6058 55.6104 61.5424 60.2674 60.97 65.1585" stroke="#E9BB2B" stroke-width="0.291334" stroke-miterlimit="5.9723" stroke-linecap="round" stroke-linejoin="round"/>
<path opacity="0.992" d="M67.3181 3.62939C71.3247 8.52051 70.5702 13.3076 67.4222 17.4702C64.2482 21.6849 59.9294 25.0931 56.8855 29.3077C53.9716 33.3143 53.7375 37.2428 54.7521 41.2493C55.5326 44.3713 58.2383 47.0771 61.4124 50.9275C66.6417 57.3016 65.2368 61.5943 63.7538 65.2886" stroke="#E9BB2B" stroke-width="0.291334" stroke-miterlimit="5.9723" stroke-linecap="round" stroke-linejoin="round"/>
<path opacity="0.992" d="M74.7588 16.0913C73.0677 21.9711 62.1147 24.0003 57.848 28.0849" stroke="#E9BB2B" stroke-width="0.291334" stroke-miterlimit="5.9723" stroke-linecap="round" stroke-linejoin="round"/>
<path opacity="0.992" d="M83.3963 26.394C78.5312 28.2672 73.7702 26.8363 68.5148 27.825C64.3782 28.6055 60.7099 31.1811 59.0968 35.3437C56.3131 42.5503 58.8627 47.1553 61.8286 51.448" stroke="#E9BB2B" stroke-width="0.291334" stroke-miterlimit="5.9723" stroke-linecap="round" stroke-linejoin="round"/>
<path opacity="0.992" d="M81.1068 8.3645C84.0467 20.8785 75.123 26.8363 68.2546 27.9029" stroke="#E9BB2B" stroke-width="0.291334" stroke-miterlimit="5.9723" stroke-linecap="round" stroke-linejoin="round"/>
<path opacity="0.992" d="M97.7835 24.0264C95.5721 30.9728 90.9932 33.3143 85.9459 33.6785C80.1442 34.1208 74.1344 32.3777 68.801 33.3143C64.3261 34.0948 60.7879 36.5924 61.2042 42.5502C61.4383 46.1144 62.7131 49.3405 65.1327 52.2804C68.723 56.6511 68.0725 62.2707 66.4075 65.6789" stroke="#E9BB2B" stroke-width="0.291334" stroke-miterlimit="5.9723" stroke-linecap="round" stroke-linejoin="round"/>
<path opacity="0.992" d="M89.8224 27.6946C87.8451 30.8946 85.4516 32.8459 83.0841 33.7304" stroke="#E9BB2B" stroke-width="0.291334" stroke-miterlimit="5.9723" stroke-linecap="round" stroke-linejoin="round"/>
<path opacity="0.992" d="M97.081 34.9792C93.829 37.9972 90.2387 40.4948 85.0354 40.7289C80.5605 40.937 76.658 38.9338 72.4694 37.9451C69.5815 37.2687 66.1733 37.3728 65.4189 41.6655C64.9506 44.4233 66.6416 47.0509 68.6449 49.7046C74.1864 57.0153 71.4287 61.282 69.3994 65.7568" stroke="#E9BB2B" stroke-width="0.291334" stroke-miterlimit="5.9723" stroke-linecap="round" stroke-linejoin="round"/>
<path opacity="0.992" d="M102.258 43.0186C98.3298 47.5194 93.907 47.8316 90.2907 47.2072C86.5964 46.5568 82.954 44.3454 79.3377 45.282C72.9637 46.921 72.8076 52.2284 71.871 56.7553" stroke="#E9BB2B" stroke-width="0.291334" stroke-miterlimit="5.9723" stroke-linecap="round" stroke-linejoin="round"/>
<path opacity="0.992" d="M105.302 46.0365C96.2485 45.9845 93.5168 57.8741 85.7378 52.6968C83.3183 51.3439 80.5345 50.0171 76.5539 52.6968C74.0303 54.4139 72.7295 57.3538 71.6108 60.2416" stroke="#E9BB2B" stroke-width="0.291334" stroke-miterlimit="5.9723" stroke-linecap="round" stroke-linejoin="round"/>
<path opacity="0.992" d="M110.011 55.4543C109.413 50.4851 103.299 51.1095 99.2664 53.399C95.1038 55.7665 91.3314 59.7731 86.6484 58.2121C83.1362 57.0413 79.9361 54.6218 75.8775 57.8738C73.3279 59.9031 72.4433 62.895 71.7669 65.8349" stroke="#E9BB2B" stroke-width="0.291334" stroke-miterlimit="5.9723" stroke-linecap="round" stroke-linejoin="round"/>
<path opacity="0.992" d="M105.406 59.383C102.024 57.5358 99.5006 58.5505 97.4453 59.5131C92.5802 61.7765 88.1313 59.6692 83.6825 57.0415" stroke="#E9BB2B" stroke-width="0.291334" stroke-miterlimit="5.9723" stroke-linecap="round" stroke-linejoin="round"/>
<path opacity="0.992" d="M101.972 58.3423C97.8875 61.9066 93.3607 62.0887 88.4695 59.487" stroke="#E9BB2B" stroke-width="0.291334" stroke-miterlimit="5.9723" stroke-linecap="round" stroke-linejoin="round"/>
<path opacity="0.992" d="M74.0564 38.3616C70.0759 40.0787 67.5523 43.6429 67.8645 48.6381" stroke="#E9BB2B" stroke-width="0.291334" stroke-miterlimit="5.9723" stroke-linecap="round" stroke-linejoin="round"/>
<path opacity="0.992" d="M79.4938 40.0005C72.7295 41.4834 69.9197 47.2851 70.2319 52.0462" stroke="#E9BB2B" stroke-width="0.291334" stroke-miterlimit="5.9723" stroke-linecap="round" stroke-linejoin="round"/>
<path opacity="0.992" d="M86.6484 46.2185C81.8613 47.3632 78.5832 49.9649 75.9035 53.217" stroke="#E9BB2B" stroke-width="0.291334" stroke-miterlimit="5.9723" stroke-linecap="round" stroke-linejoin="round"/>
<path d="M49.4646 71.032C49.8288 71.7344 49.9849 72.5149 49.9069 73.2954C49.8288 74.0759 49.4906 74.8304 48.9963 75.4288C48.7361 75.715 48.4499 75.9751 48.1377 76.1833C33.0481 82.1671 23.1618 96.7363 23.1358 112.945C23.1358 134.799 40.8531 152.49 62.681 152.49C84.5089 152.49 102.226 134.773 102.226 112.945C102.2 96.7624 92.3399 82.2451 77.3283 76.2353C76.9641 76.0272 76.6519 75.741 76.3657 75.4288C75.8454 74.8304 75.5332 74.0759 75.4551 73.2954C75.3771 72.5149 75.5332 71.7084 75.8974 71.032H49.4646Z" fill="#FFD700" stroke="#E9BB2B" stroke-width="0.291334" stroke-miterlimit="5.9723" stroke-linecap="round" stroke-linejoin="round"/>
<path d="M96.8148 112.944C96.8148 131.78 81.543 147.052 62.707 147.052C43.871 147.052 28.5993 131.78 28.5993 112.944C28.5993 94.1084 43.871 78.8367 62.707 78.8367C81.543 78.8367 96.8148 94.1084 96.8148 112.944Z" fill="#0E478A" stroke="#E9BB2B" stroke-width="0.291334" stroke-miterlimit="5.9723"/>
<path d="M46.7849 63.9294H78.5772C78.8633 63.9294 79.0715 64.1636 79.0715 64.4238V70.5116C79.0715 70.7978 78.8373 71.006 78.5772 71.006H46.7849C46.4987 71.006 46.2906 70.7718 46.2906 70.5116V64.4238C46.2906 64.1636 46.5247 63.9294 46.7849 63.9294Z" fill="#FFD700" stroke="#E9BB2B" stroke-width="0.291334" stroke-miterlimit="5.9723"/>
<path d="M92.4406 125.121L68.595 118.578L75.1865 142.375H50.8562L57.4477 118.578L33.5052 125.218V100.839L57.3992 107.479L50.8078 83.488H75.138L68.5466 107.382L92.4406 100.791V125.121Z" fill="#800000"/>
<path d="M74.4595 84.0213L68.3042 106.364L67.8195 108.158L69.6128 107.673L91.9075 101.518V124.442L69.6613 118.287L67.868 117.803L68.3527 119.596L74.5079 141.842H51.5832L57.7385 119.596L58.2232 117.803L56.4299 118.287L34.0868 124.442V101.518L56.4299 107.673L58.2232 108.158L57.7385 106.364L51.5348 83.9729H74.4595M75.8165 82.9551H50.0808L56.6238 106.704L32.972 100.161V125.896L56.6722 119.353L50.1777 142.908H75.9135L69.4189 119.305L92.9737 125.8V100.064L69.322 106.655L75.8165 82.9551Z" fill="#FFD700"/>
<path d="M62.936 97.7871L52.3131 102.213C52.3131 102.213 52.2025 102.213 52.2025 102.324L47.7763 112.947V113.057L52.2025 123.68C52.2025 123.68 52.2025 123.791 52.3131 123.791L62.936 128.217H63.0467L73.6696 123.791C73.6696 123.791 73.7802 123.791 73.7802 123.68L78.2064 113.057V112.947L73.7802 102.324C73.7802 102.324 73.7802 102.213 73.6696 102.213L62.936 97.7871Z" fill="#FFD700"/>
<path d="M62.936 98.8938L52.977 102.988C52.977 102.988 52.8663 102.988 52.8663 103.099L48.7722 112.947V113.058L52.8663 122.906C52.8663 122.906 52.8664 123.017 52.977 123.017L62.8253 127.111H62.936L72.7842 123.017C72.7842 123.017 72.8949 123.017 72.8949 122.906L76.9892 113.058V112.947L72.8949 103.099C72.8949 103.099 72.8949 102.988 72.7842 102.988L62.936 98.8938Z" fill="#465626"/>
<path d="M62.9361 99.3362L53.3091 103.32C53.3091 103.32 53.1985 103.32 53.1985 103.43L49.2148 112.947V113.057L53.1985 122.574C53.1985 122.574 53.1984 122.684 53.3091 122.684L62.8254 126.668H62.9361L72.4524 122.684C72.4524 122.684 72.5631 122.684 72.5631 122.574L76.5466 113.057V112.947L72.5631 103.43C72.5631 103.43 72.563 103.32 72.4524 103.32L62.9361 99.3362Z" fill="#FFD700"/>
<path d="M62.9361 99.8894L53.7518 103.652C53.7518 103.652 53.6411 103.652 53.6411 103.762L49.8788 112.836V112.947L53.6411 122.02C53.6411 122.02 53.6411 122.131 53.7518 122.131L62.8254 125.893H62.9361L72.0098 122.131C72.0098 122.131 72.1205 122.131 72.1205 122.02L75.8828 112.947V112.836L72.1205 103.762C72.1205 103.762 72.1205 103.652 72.0098 103.652L62.9361 99.8894Z" fill="#465626"/>
<path d="M57.1435 122.106C56.0169 121.655 55.341 120.529 55.341 119.289V103.292H70.5502V119.402C70.5502 120.641 69.8742 121.768 68.7476 122.218L62.8892 124.81L57.1435 122.106Z" fill="#FFD700"/>
<path d="M55.9044 103.968V119.402C55.9044 120.416 56.4676 121.317 57.3689 121.655L63.002 124.134L68.635 121.655C69.5363 121.205 70.0996 120.416 70.0996 119.402V104.08H55.9044V103.968Z" fill="#0057B8"/>
<path d="M62.954 104.756C62.5033 105.207 62.278 105.883 62.278 106.559C62.278 108.023 62.5033 109.488 62.5033 111.065C62.5033 112.417 62.1653 113.769 61.602 115.008C61.4894 115.346 61.2641 115.684 61.0387 116.022L60.4754 115.909C60.0248 115.797 59.6868 115.346 59.7995 114.896C59.9121 114.445 60.2501 114.22 60.7008 114.22H60.9261L60.4754 110.614C60.3628 109.037 59.4615 107.573 58.2222 106.671C57.9969 106.559 57.7716 106.333 57.5463 106.221V119.177H60.5881C60.8134 120.416 61.4894 121.43 62.3907 122.218C62.616 122.331 62.8413 122.556 62.954 122.782C63.0666 122.556 63.292 122.331 63.5173 122.218C64.4186 121.543 65.0945 120.416 65.3198 119.177H68.3617V106.221C68.1363 106.333 67.911 106.446 67.6857 106.671C66.4464 107.573 65.6578 109.037 65.4325 110.614L64.9818 114.22H65.2072C65.6578 114.22 65.9958 114.558 66.1085 114.896C66.2211 115.346 65.8831 115.797 65.4325 115.909L64.8692 116.022C64.6439 115.684 64.5312 115.346 64.3059 115.008C63.8553 113.769 63.4046 112.417 63.4046 111.065C63.4046 109.601 63.6299 108.136 63.6299 106.559C63.6299 105.77 63.4046 105.207 62.954 104.756ZM58.4476 107.911C59.0109 108.587 59.4615 109.488 59.5742 110.389L59.9121 113.431C59.4615 113.656 59.1235 114.107 59.0109 114.558H58.5602C58.4475 114.558 58.4476 107.911 58.4476 107.911ZM67.4604 107.911V114.558H67.0097C66.8971 114.107 66.5591 113.656 66.1085 113.431L66.4464 110.389C66.4464 109.488 66.8971 108.587 67.4604 107.911ZM62.954 113.994C63.1793 114.783 63.5173 115.571 63.9679 116.247C63.6299 116.36 63.292 116.585 62.954 116.923C62.7287 116.585 62.3907 116.36 61.94 116.247C62.3907 115.459 62.7287 114.783 62.954 113.994ZM58.4476 115.459H58.8982C59.0108 116.022 59.5742 116.585 60.1375 116.698L60.5881 116.811C60.4754 117.261 60.3628 117.712 60.3628 118.163H58.3349L58.4476 115.459ZM66.8971 115.459H67.3477V118.163H65.3198C65.3198 117.712 65.2072 117.261 65.0945 116.811L65.5451 116.698C66.3338 116.473 66.7844 116.022 66.8971 115.459ZM61.602 117.036C62.1653 117.149 62.616 117.599 62.616 118.163H61.4894C61.3767 117.712 61.4894 117.374 61.602 117.036ZM64.4185 117.036C64.5312 117.374 64.5312 117.712 64.5312 118.163H63.4046C63.4046 117.599 63.8552 117.036 64.4185 117.036ZM61.4894 118.951H62.5033V120.867C62.0527 120.416 61.7147 119.74 61.4894 118.951ZM63.4046 118.951H64.4185C64.3059 119.627 63.8552 120.303 63.4046 120.867V118.951Z" fill="#FFD700"/>
</g>
<defs>
<clipPath id="clip0_5_1568">
<rect width="124.125" height="175" fill="white" transform="translate(0.623291)"/>
</clipPath>
</defs>
</svg>
