<svg width="176" height="175" viewBox="0 0 176 175" fill="none" xmlns="http://www.w3.org/2000/svg">
<g clip-path="url(#clip0_5_1388)">
<path d="M75.9717 75.2502L0.72168 56.7002V117.95L75.9717 99.4002" fill="#FFDF00"/>
<path d="M75.9717 75.2502L0.72168 56.7002V117.95L75.9717 99.4002" stroke="#806600" stroke-width="0.56" stroke-linecap="round" stroke-linejoin="round"/>
<path d="M80.5217 94.8502L4.22168 113.75V61.2502L80.5217 80.1502" fill="#D50663"/>
<path d="M80.5217 94.8502L4.22168 113.75V61.2502L80.5217 80.1502" stroke="#806600" stroke-width="0.56" stroke-linecap="round" stroke-linejoin="round"/>
<path d="M75.6218 99.4001L57.0718 174.65H118.322L99.7718 99.4001" fill="#FFDF00"/>
<path d="M75.6218 99.4001L57.0718 174.65H118.322L99.7718 99.4001" stroke="#806600" stroke-width="0.56" stroke-linecap="round" stroke-linejoin="round"/>
<path d="M95.2218 94.8504L114.122 171.15H61.6218L80.5218 94.8504" fill="#D50663"/>
<path d="M95.2218 94.8504L114.122 171.15H61.6218L80.5218 94.8504" stroke="#806600" stroke-width="0.56" stroke-linecap="round" stroke-linejoin="round"/>
<path d="M99.7717 99.7503L175.022 118.3V57.0503L99.7717 75.6003" fill="#FFDF00"/>
<path d="M99.7717 99.7503L175.022 118.3V57.0503L99.7717 75.6003" stroke="#806600" stroke-width="0.56" stroke-linecap="round" stroke-linejoin="round"/>
<path d="M95.2217 80.1502L171.522 61.2502V113.75L95.2217 94.8502" fill="#D50663"/>
<path d="M95.2217 80.1502L171.522 61.2502V113.75L95.2217 94.8502" stroke="#806600" stroke-width="0.56" stroke-linecap="round" stroke-linejoin="round"/>
<path d="M75.6218 75.6001L57.0718 0.350098H118.322L99.7718 75.6001" fill="#FFDF00"/>
<path d="M75.6218 75.6001L57.0718 0.350098H118.322L99.7718 75.6001" stroke="#806600" stroke-width="0.56" stroke-linecap="round" stroke-linejoin="round"/>
<path d="M95.2218 80.1501L114.122 3.8501H61.6218L80.5218 80.1501" fill="#D50663"/>
<path d="M95.2218 80.1501L114.122 3.8501H61.6218L80.5218 80.1501" stroke="#806600" stroke-width="0.56" stroke-linecap="round" stroke-linejoin="round"/>
<path d="M87.8717 121.8C106.815 121.8 122.172 106.444 122.172 87.5002C122.172 68.5568 106.815 53.2002 87.8717 53.2002C68.9283 53.2002 53.5717 68.5568 53.5717 87.5002C53.5717 106.444 68.9283 121.8 87.8717 121.8Z" fill="#FFDF00" stroke="#806600" stroke-width="0.56" stroke-linecap="round" stroke-linejoin="round"/>
<path d="M87.8718 118.3C104.882 118.3 118.672 104.511 118.672 87.5002C118.672 70.4898 104.882 56.7002 87.8718 56.7002C70.8614 56.7002 57.0718 70.4898 57.0718 87.5002C57.0718 104.511 70.8614 118.3 87.8718 118.3Z" fill="#001788" stroke="#806600" stroke-width="0.56" stroke-linecap="round" stroke-linejoin="round"/>
<path d="M87.8718 59.5002C84.0218 64.7502 86.8218 66.5002 86.5068 79.1002C86.2968 85.0502 84.5468 89.9502 81.9568 94.8502C77.0568 94.5352 76.7068 88.9002 81.4318 88.9002C80.4168 76.3002 79.4718 68.2502 70.9318 63.7002V104.3H80.3818C81.0818 110.25 85.9818 113.4 87.7318 115.5C89.3768 113.47 94.3818 110.25 95.0818 104.3H104.532V63.7002C96.1318 68.2502 95.0818 76.3002 94.0318 88.9002C98.5818 88.7252 98.2318 94.5002 93.5068 94.8502C90.9868 89.9502 89.3068 85.0502 88.9568 79.1002C88.6768 66.5002 91.5118 65.1002 87.5918 59.5002H87.8718ZM73.8718 69.6502C77.7218 74.9002 77.7218 80.1502 78.4218 86.8002C76.9868 87.5002 75.9018 88.8302 75.4818 90.3002H73.9068L73.8718 69.6502ZM101.872 69.6502V90.3002H100.297C99.9468 88.5502 98.8968 87.5002 97.3568 86.8002C98.1268 80.1502 97.8818 74.9002 101.907 69.6502H101.872ZM87.8718 88.5502C88.5718 91.0002 89.6218 93.4502 90.9518 95.5502C89.7268 95.9352 88.6768 96.6352 87.8718 97.6152C87.1018 96.6352 86.0168 95.9352 84.7918 95.5502C86.0868 93.3802 87.1018 91.0002 87.8718 88.5502ZM73.8718 93.1002H75.4468C76.8468 95.9002 77.8968 96.9502 80.6968 97.3002C80.3468 98.5952 80.1368 99.9952 80.1368 101.5H73.8368L73.8718 93.1002ZM100.472 93.1002H102.047V101.5H95.7468C95.7468 100.1 95.3968 98.7002 95.1868 97.3002C97.8468 96.7052 99.3868 95.9002 100.437 93.1002H100.472ZM83.6718 98.0002C85.4218 98.3502 86.8218 99.7502 86.6818 101.465H83.1818C83.1818 100.415 83.5318 99.0152 83.6718 98.0002ZM92.4218 98.0002C92.7718 99.0502 92.7718 100.1 92.9118 101.465H89.4118C89.4118 99.7152 90.8118 98.3152 92.4218 98.0002ZM83.3218 104.3H86.5068V110.25C85.1068 108.5 83.7068 106.75 83.3218 104.3ZM89.2718 104.3H92.4568C92.1068 106.4 90.7068 108.5 89.2718 110.25V104.3Z" fill="#FFDF00" stroke="#806600" stroke-width="0.56" stroke-linecap="round" stroke-linejoin="round"/>
</g>
<defs>
<clipPath id="clip0_5_1388">
<rect width="175" height="175" fill="white" transform="translate(0.371704)"/>
</clipPath>
</defs>
</svg>
