<svg width="28" height="29" viewBox="0 0 28 29" fill="none" xmlns="http://www.w3.org/2000/svg">
<mask id="mask0_10_598" style="mask-type:luminance" maskUnits="userSpaceOnUse" x="0" y="0" width="28" height="29">
<path d="M27.4014 0.5H0V28.5H27.4014V0.5Z" fill="white"/>
</mask>
<g mask="url(#mask0_10_598)">
<path d="M41.3682 21.6497V30.8943C38.7078 30.9608 36.114 31.9584 34.1188 33.7542C31.791 35.8159 30.4608 38.7423 30.3278 41.8017H20.6841V42.4668H30.2613C30.3278 45.2601 31.4584 47.8539 33.3207 49.9157C35.3824 52.1105 38.3088 53.3741 41.3017 53.4406V63.4834H41.9668V53.3741C45.0926 53.2411 47.9525 51.9109 50.0808 49.5831C51.8765 47.5879 52.8741 45.0606 52.9406 42.4002H61.5202V41.7352H53.0071C52.9406 38.8753 51.7435 36.215 49.7482 34.2197C47.6865 32.158 44.9596 30.9608 42.0333 30.8943V21.6497H41.3682ZM41.3682 31.9584V34.0867C39.639 34.1532 37.9763 34.8183 36.5796 35.8824L37.1116 36.4145C38.3088 35.4834 39.8385 34.9513 41.3682 34.8183V37.7447H42.0333C42.0333 36.747 42.0333 35.8159 42.0333 34.8183C43.563 34.8848 45.0261 35.4169 46.2898 36.348L46.8219 35.8159C45.4917 34.7518 43.7625 34.0867 42.0333 34.0202C42.0333 33.3551 42.0333 32.6235 42.0333 31.9584C44.4276 32.025 46.6889 32.9561 48.4846 34.5523C50.5463 36.4145 51.81 39.0083 51.943 41.8017H49.9478C49.8812 40.0725 49.2162 38.4097 48.152 37.0796L47.62 37.6117C48.5511 38.8088 49.0831 40.272 49.2162 41.8017H46.2233V42.4668H49.2162C49.1497 43.9965 48.6176 45.5261 47.62 46.7233L48.152 47.2554C49.2827 45.8587 49.8812 44.196 49.9478 42.4668H51.943C51.8765 45.2601 50.6128 47.8539 48.5511 49.7162C46.7554 51.3124 44.4276 52.2435 42.0333 52.3765V50.3812C43.7625 50.3147 45.4252 49.7162 46.8219 48.5855L46.2898 48.0535C45.0926 48.9846 43.563 49.5166 42.0333 49.5831V46.5903H41.3682V49.5831C39.8385 49.5166 38.3088 48.9846 37.1116 47.9869L36.5796 48.519C37.9763 49.5831 39.639 50.2482 41.3682 50.3147V52.3765C38.7744 52.31 36.247 51.2459 34.3848 49.3836C32.5226 47.5214 31.4584 45.0606 31.3254 42.4668H33.4537C33.5202 44.196 34.1188 45.8587 35.2494 47.2554L35.7815 46.7233C34.8504 45.5261 34.2518 44.063 34.2518 42.4668H37.2447V41.8017H34.2518C34.3183 40.272 34.9169 38.8088 35.848 37.6117L35.3159 37.0796C34.2518 38.4097 33.5867 40.0725 33.5202 41.8017H31.3919C31.5249 39.2744 32.5226 36.8135 34.3848 35.0178C36.1805 33.0891 38.7078 32.025 41.3682 31.9584Z" fill="#FF3C03"/>
</g>
<mask id="mask1_10_598" style="mask-type:luminance" maskUnits="userSpaceOnUse" x="0" y="0" width="28" height="29">
<path d="M27.4014 0.5H0V28.5H27.4014V0.5Z" fill="white"/>
</mask>
<g mask="url(#mask1_10_598)">
<path d="M13.9003 21.6497V30.8943C11.24 30.9608 8.64614 31.9584 6.65089 33.7542C4.3231 35.8159 2.99293 38.7423 2.85992 41.8017H-6.71729V42.4668H2.85992C2.92643 45.2601 4.05707 47.8539 5.9193 49.9157C7.98106 52.1105 10.9074 53.3741 13.9003 53.4406V63.4834H14.5654V53.3741C17.6913 53.2411 20.5511 51.9109 22.6794 49.5831C24.4751 47.5879 25.4728 45.0606 25.5393 42.4002H34.1188V41.7352H25.4728C25.4062 38.8753 24.2091 36.215 22.2138 34.2197C20.1521 32.158 17.4252 30.9608 14.4989 30.8943V21.6497H13.9003ZM13.9003 31.9584V34.0867C12.1711 34.1532 10.5084 34.8183 9.1117 35.8824L9.64377 36.4145C10.8409 35.4834 12.3706 34.9513 13.9003 34.8183V37.7447H14.5654C14.5654 36.747 14.5654 35.8159 14.5654 34.8183C16.0951 34.8848 17.5583 35.4169 18.8219 36.348L19.354 35.8159C18.0238 34.7518 16.2946 34.0867 14.5654 34.0202C14.5654 33.3551 14.5654 32.6235 14.5654 31.9584C16.9597 32.025 19.221 32.9561 21.0167 34.5523C23.0785 36.4145 24.3421 39.0083 24.4751 41.8017H22.4799C22.4134 40.0725 21.7483 38.4097 20.6842 37.0796L20.1521 37.6117C21.0832 38.8088 21.6153 40.272 21.7483 41.8017H18.7554C18.7554 42.0012 18.7554 42.2672 18.7554 42.4668H21.7483C21.6818 43.9965 21.1497 45.5261 20.1521 46.7233L20.6842 47.2554C21.8148 45.8587 22.4134 44.196 22.4799 42.4002H24.4751C24.4086 45.1936 23.145 47.7874 21.0832 49.6496C19.2875 51.2458 16.9597 52.177 14.5654 52.31V50.3147C16.2946 50.2482 17.9573 49.6497 19.354 48.519L18.8219 47.9869C17.6248 48.9181 16.0951 49.4501 14.5654 49.5166V46.5238H13.9003V49.5166C12.3706 49.4501 10.9074 48.9181 9.64377 47.9869L9.1117 48.519C10.5084 49.5831 12.1711 50.2482 13.9003 50.3147V52.3765C11.3065 52.31 8.77916 51.2459 6.91693 49.3836C5.05469 47.5214 3.92405 45.0606 3.85754 42.4668H5.98581C6.05232 44.196 6.65089 45.8587 7.78154 47.2554L8.3136 46.7233C7.38249 45.5261 6.78391 43.9965 6.7174 42.4668H9.71028V41.8017H6.7174C6.78391 40.272 7.31598 38.8088 8.3136 37.6117L7.78154 37.0796C6.7174 38.4097 6.05232 40.0725 5.98581 41.8017H3.85754C3.99056 39.2744 4.98818 36.8135 6.85042 35.0178C8.71265 33.0891 11.24 32.025 13.9003 31.9584Z" fill="#FF3C03"/>
</g>
<mask id="mask2_10_598" style="mask-type:luminance" maskUnits="userSpaceOnUse" x="0" y="0" width="28" height="29">
<path d="M27.4014 0.5H0V28.5H27.4014V0.5Z" fill="white"/>
</mask>
<g mask="url(#mask2_10_598)">
<path d="M-13.5012 21.6497V30.8943C-16.1615 30.9608 -18.7554 31.9584 -20.7506 33.7542C-23.0784 35.8159 -24.4086 38.7423 -24.5416 41.8017H-34.1853V42.4668H-24.6081C-24.5416 45.2601 -23.4109 47.8539 -21.4822 49.9157C-19.4204 52.1105 -16.4941 53.3741 -13.5012 53.4406V63.4834H-12.8361V53.3741C-9.71023 53.2411 -6.85037 51.9109 -4.7221 49.5831C-2.92637 47.5879 -1.92875 45.0606 -1.86224 42.4002H6.71733V41.7352H-1.86224C-1.92875 38.8753 -3.1259 36.215 -5.12115 34.2197C-7.18291 32.158 -9.90975 30.9608 -12.8361 30.8943V21.6497H-13.5012ZM-13.5012 31.9584V34.0867C-15.2304 34.1532 -16.8931 34.8183 -18.2898 35.8824L-17.7577 36.4145C-16.5606 35.4834 -15.0309 34.9513 -13.5012 34.8183V37.7447H-12.8361C-12.8361 36.747 -12.8361 35.8159 -12.8361 34.8183C-11.3064 34.8848 -9.84325 35.4169 -8.57959 36.348L-8.04752 35.8159C-9.37769 34.7518 -11.1069 34.0867 -12.8361 34.0202C-12.8361 33.3551 -12.8361 32.6235 -12.8361 31.9584C-10.4418 32.025 -8.18053 32.9561 -6.38481 34.5523C-4.32305 36.4145 -3.05939 39.0083 -2.92638 41.8017H-4.92163C-4.98814 40.0725 -5.65322 38.4097 -6.71735 37.0796L-7.24942 37.6117C-6.3183 38.8088 -5.78624 40.272 -5.65322 41.8017H-8.64609C-8.64609 42.0012 -8.64609 42.2672 -8.64609 42.4668H-5.65322C-5.71973 43.9965 -6.25179 45.5261 -7.24942 46.7233L-6.71735 47.2554C-5.58671 45.8587 -4.98814 44.196 -4.92163 42.4002H-2.92638C-2.99289 45.1936 -4.25654 47.7874 -6.3183 49.6496C-8.11403 51.2458 -10.4418 52.177 -12.8361 52.31V50.2482C-11.1069 50.1817 -9.44419 49.5831 -8.04752 48.4525L-8.57959 47.9204C-9.77674 48.8516 -11.3064 49.3836 -12.8361 49.4501V46.4573H-13.5012V49.4501C-15.0309 49.3836 -16.5606 48.8516 -17.7577 47.8539L-18.2898 48.386C-16.8931 49.4501 -15.2304 50.1152 -13.5012 50.1817V52.2435C-16.095 52.177 -18.6223 51.1128 -20.4846 49.2506C-22.3468 47.3884 -23.4109 44.9276 -23.544 42.3337H-21.4157C-21.3492 44.063 -20.7506 45.7257 -19.62 47.1223L-19.0879 46.5903C-20.019 45.3931 -20.6176 43.9299 -20.6176 42.3337H-17.6247V41.6687H-20.6176C-20.5511 40.139 -19.9525 38.6758 -19.0214 37.4786L-19.5535 36.9466C-20.6176 38.2767 -21.2827 39.9394 -21.3492 41.6687H-23.4775C-23.3444 39.1413 -22.3468 36.6805 -20.4846 34.8848C-18.6889 33.0891 -16.1615 32.025 -13.5012 31.9584Z" fill="#FF3C03"/>
</g>
<mask id="mask3_10_598" style="mask-type:luminance" maskUnits="userSpaceOnUse" x="0" y="0" width="28" height="29">
<path d="M27.4014 0.5H0V28.5H27.4014V0.5Z" fill="white"/>
</mask>
<g mask="url(#mask3_10_598)">
<path d="M41.3682 -6.35034V2.89431C38.7078 2.96082 36.114 3.95845 34.1188 5.75417C31.791 7.81593 30.4608 10.6758 30.3278 13.8017H20.6841V14.4668H30.2613C30.3278 17.1936 31.4584 19.8539 33.3207 21.8492C35.3824 24.044 38.3088 25.3076 41.3017 25.3741V35.4169H41.9668V25.3741C45.0926 25.2411 47.9525 23.9109 50.0808 21.5831C51.8765 19.5879 52.8741 17.0606 52.9406 14.4003C53.8717 14.4003 60.5891 14.4003 61.5202 14.4003V13.7352H53.0071C52.9406 10.8753 51.7435 8.21498 49.7482 6.21973C47.6865 4.15797 44.9596 2.96082 42.0333 2.89431V-6.35034H41.3682ZM41.3682 3.95845V6.02021C39.639 6.08672 37.9763 6.68529 36.5796 7.81593L37.1116 8.348C38.3088 7.41688 39.8385 6.88482 41.3682 6.7518V9.67817H42.0333C42.0333 8.68054 42.0333 7.74942 42.0333 6.7518C43.563 6.81831 45.0261 7.35037 46.2898 8.28149L46.8219 7.74942C45.4917 6.68529 43.7625 6.0202 42.0333 5.9537C42.0333 5.28861 42.0333 4.55702 42.0333 3.89194C44.4276 3.95845 46.6889 4.88956 48.4846 6.48576C50.5463 8.348 51.81 10.9418 51.943 13.7352H49.9478C49.8812 12.006 49.2162 10.3432 48.152 9.01308L47.62 9.54515C48.5511 10.7423 49.0831 12.2055 49.2162 13.7352H46.2233V14.4003H49.2162C49.1497 15.9299 48.6176 17.4596 47.62 18.6568L48.152 19.1889C49.2827 17.8587 49.8812 16.1295 49.9478 14.4003C50.6128 14.4003 51.2779 14.4003 51.943 14.4003C51.8765 17.1936 50.6128 19.7874 48.5511 21.6497C46.7554 23.2459 44.4276 24.177 42.0333 24.31V22.2482C43.7625 22.1817 45.4917 21.5166 46.8219 20.4525L46.2898 19.9204C45.0926 20.8516 43.563 21.3836 42.0333 21.4501V18.4573H41.3682V21.4501C39.8385 21.3836 38.3088 20.8516 37.1116 19.8539C36.9121 20.0535 36.7126 20.1865 36.5796 20.386C37.9763 21.4501 39.639 22.1152 41.3682 22.1817V24.2435C38.7744 24.177 36.247 23.1128 34.3848 21.2506C32.5226 19.3884 31.4584 16.9276 31.3254 14.3337H33.4537C33.5202 16.063 34.1188 17.7257 35.2494 19.1223L35.7815 18.5903C34.8504 17.3931 34.2518 15.9299 34.2518 14.3337H37.2447V13.6687H34.2518C34.3183 12.139 34.9169 10.6758 35.848 9.47864L35.3159 8.94657C34.2518 10.2767 33.5867 11.9394 33.5202 13.6687H31.3919C31.5249 11.1413 32.5226 8.68054 34.3848 6.88481C36.1805 5.08909 38.7078 4.02495 41.3682 3.95845Z" fill="#FF3C03"/>
</g>
<mask id="mask4_10_598" style="mask-type:luminance" maskUnits="userSpaceOnUse" x="0" y="0" width="28" height="29">
<path d="M27.4014 0.5H0V28.5H27.4014V0.5Z" fill="white"/>
</mask>
<g mask="url(#mask4_10_598)">
<path d="M13.9003 -6.35034V2.89431C11.24 2.96082 8.64614 3.95845 6.65089 5.75417C4.3231 7.81593 2.99293 10.6758 2.85992 13.8017H-6.71729V14.4668H2.85992C2.92643 17.1936 4.05707 19.8539 5.9193 21.8492C7.98106 24.044 10.9074 25.3076 13.9003 25.3741V35.4169H14.5654V25.3741C17.6913 25.2411 20.5511 23.9109 22.6794 21.5831C24.4751 19.5879 25.4728 17.0606 25.5393 14.4003C26.4704 14.4003 33.1877 14.4003 34.1188 14.4003V13.7352H25.5393C25.4728 10.8753 24.2756 8.21498 22.2804 6.21973C20.2186 4.15797 17.4918 2.96082 14.5654 2.89431V-6.35034H13.9003ZM13.9003 3.95845V6.02021C12.1711 6.08672 10.5084 6.68529 9.1117 7.81593L9.64377 8.348C10.8409 7.41688 12.3706 6.88482 13.9003 6.7518V9.67817H14.5654C14.5654 8.68054 14.5654 7.74942 14.5654 6.7518C16.0951 6.81831 17.5583 7.35037 18.8219 8.28149L19.354 7.74942C18.0238 6.68529 16.2946 6.0202 14.5654 5.9537C14.5654 5.28861 14.5654 4.55702 14.5654 3.89194C16.9597 3.95845 19.221 4.88956 21.0167 6.48576C23.0785 8.348 24.3421 10.9418 24.4751 13.7352H22.4799C22.4134 12.006 21.7483 10.3432 20.6842 9.01308C20.4846 9.21261 20.2851 9.41213 20.1521 9.54515C21.0832 10.7423 21.6153 12.2055 21.7483 13.7352H18.7554C18.7554 13.9347 18.7554 14.2007 18.7554 14.4003H21.7483C21.6818 15.9299 21.1497 17.4596 20.1521 18.6568L20.6842 19.1889C21.8148 17.8587 22.4134 16.1295 22.4799 14.4003C23.145 14.4003 23.81 14.4003 24.4751 14.4003C24.4086 17.1936 23.145 19.7874 21.0832 21.6497C19.2875 23.2459 16.9597 24.177 14.5654 24.31V22.2482C16.2946 22.1817 18.0238 21.5166 19.354 20.4525L18.8219 19.9204C17.6248 20.8516 16.0951 21.3836 14.5654 21.4501V18.4573H13.9003V21.4501C12.3706 21.3836 10.9074 20.8516 9.64377 19.8539C9.44424 20.0535 9.24472 20.1865 9.1117 20.386C10.5084 21.4501 12.1711 22.1152 13.9003 22.1817V24.2435C11.3065 24.177 8.77916 23.1128 6.91693 21.2506C5.05469 19.3884 3.99056 16.9276 3.85754 14.3337H5.98581C6.05232 16.063 6.65089 17.7257 7.78154 19.1223L8.3136 18.5903C7.38249 17.3931 6.78391 15.9299 6.78391 14.3337H9.77679V13.6687H6.78391C6.85042 12.139 7.38249 10.6758 8.38011 9.47864L7.84804 8.94657C6.78391 10.2767 6.11883 11.9394 6.05232 13.6687H3.92405C4.05707 11.1413 5.05469 8.68054 6.91693 6.88481C8.71265 5.08909 11.24 4.02495 13.9003 3.95845Z" fill="#FF3C03"/>
</g>
<mask id="mask5_10_598" style="mask-type:luminance" maskUnits="userSpaceOnUse" x="0" y="0" width="28" height="29">
<path d="M27.4014 0.5H0V28.5H27.4014V0.5Z" fill="white"/>
</mask>
<g mask="url(#mask5_10_598)">
<path d="M13.8337 12.8705C14.4988 12.671 15.1639 13.0035 15.4299 13.6021C15.7624 14.2672 15.4964 15.0653 14.8313 15.3978C14.1662 15.7304 13.3016 15.4643 12.9691 14.7992C12.9691 14.7992 12.9691 14.7992 12.9691 14.7327C12.6365 14.0677 12.9691 13.2696 13.6342 12.937C13.7007 12.8705 13.7672 12.8705 13.8337 12.8705Z" fill="white"/>
</g>
<mask id="mask6_10_598" style="mask-type:luminance" maskUnits="userSpaceOnUse" x="0" y="0" width="28" height="29">
<path d="M27.4014 0.5H0V28.5H27.4014V0.5Z" fill="white"/>
</mask>
<g mask="url(#mask6_10_598)">
<path d="M-13.5012 -6.35034V2.89431C-16.1615 2.96082 -18.7554 3.95845 -20.7506 5.75417C-23.0784 7.81593 -24.4086 10.6758 -24.5416 13.8017H-34.1853V14.4668H-24.6081C-24.5416 17.1936 -23.4109 19.8539 -21.5487 21.8492C-19.487 24.044 -16.5606 25.3076 -13.5677 25.3741V35.4169H-12.9026V25.3741C-9.77674 25.3076 -6.85037 23.9109 -4.78861 21.5831C-2.99289 19.5879 -1.99526 17.0606 -1.92875 14.4003C-0.997635 14.4003 5.71971 14.4003 6.65083 14.4003V13.7352H-1.86224C-1.92875 10.8753 -3.1259 8.21498 -5.12115 6.21973C-7.18291 4.15797 -9.90975 2.96082 -12.8361 2.89431V-6.35034H-13.5012ZM-13.5012 3.95845V6.02021C-15.2304 6.08672 -16.8931 6.68529 -18.2898 7.81593C-18.0903 8.01546 -17.8908 8.14847 -17.7577 8.348C-16.5606 7.41688 -15.0309 6.88482 -13.5012 6.7518V9.67817H-12.8361C-12.8361 8.68054 -12.8361 7.74942 -12.8361 6.7518C-11.3064 6.81831 -9.84325 7.35037 -8.57959 8.28149L-8.04752 7.74942C-9.37769 6.68529 -11.1069 6.0202 -12.8361 5.9537C-12.8361 5.28861 -12.8361 4.55702 -12.8361 3.89194C-10.4418 3.95845 -8.18053 4.88956 -6.38481 6.48576C-4.32305 8.348 -3.05939 10.9418 -2.92638 13.7352H-4.92163C-4.98814 12.006 -5.65322 10.3432 -6.71735 9.01308L-7.24942 9.54515C-6.3183 10.7423 -5.78624 12.2055 -5.65322 13.7352H-8.64609C-8.64609 13.9347 -8.64609 14.2007 -8.64609 14.4003H-5.65322C-5.71973 15.9299 -6.25179 17.4596 -7.24942 18.6568L-6.71735 19.1889C-5.58671 17.8587 -4.98814 16.1295 -4.92163 14.4003C-4.25654 14.4003 -3.59146 14.4003 -2.92638 14.4003C-2.99289 17.1936 -4.25654 19.7874 -6.3183 21.6497C-8.11403 23.2459 -10.4418 24.177 -12.8361 24.31V22.2482C-11.1069 22.1817 -9.37769 21.5166 -8.04752 20.4525L-8.57959 19.9204C-9.77674 20.8516 -11.3064 21.3836 -12.8361 21.4501V18.4573H-13.5012V21.4501C-15.0309 21.3836 -16.5606 20.8516 -17.7577 19.8539C-17.9573 20.0535 -18.1568 20.1865 -18.2898 20.386C-16.8931 21.4501 -15.2304 22.1152 -13.5012 22.1817V24.2435C-16.095 24.177 -18.6223 23.1128 -20.4846 21.2506C-22.3468 19.3884 -23.4109 16.9276 -23.544 14.3337H-21.4157C-21.3492 16.063 -20.7506 17.7257 -19.62 19.1223L-19.0879 18.5903C-20.019 17.3931 -20.6176 15.9299 -20.6176 14.3337H-17.6247V13.6687H-20.6176C-20.5511 12.139 -19.9525 10.6758 -19.0214 9.47864L-19.5535 8.94657C-20.6176 10.2767 -21.2827 11.9394 -21.3492 13.6687H-23.4775C-23.3444 11.1413 -22.3468 8.68054 -20.4846 6.88481C-18.6889 5.08909 -16.1615 4.02495 -13.5012 3.95845Z" fill="#FF3C03"/>
</g>
<mask id="mask7_10_598" style="mask-type:luminance" maskUnits="userSpaceOnUse" x="0" y="0" width="28" height="29">
<path d="M27.4014 0.5H0V28.5H27.4014V0.5Z" fill="white"/>
</mask>
<g mask="url(#mask7_10_598)">
<path d="M41.3682 -34.4169V-25.1722C38.7078 -25.1057 36.114 -24.1081 34.1188 -22.3123C31.791 -20.2506 30.4608 -17.3907 30.3278 -14.2648H20.6841V-13.5998H30.2613C30.3278 -10.8729 31.4584 -8.21258 33.3207 -6.21733C35.3824 -4.02256 38.3088 -2.7589 41.3017 -2.62588V7.41687H41.9668V-2.62588C45.0926 -2.7589 47.9525 -4.08907 50.0808 -6.41686C51.8765 -8.41211 52.8741 -10.9394 52.9406 -13.5998H61.5202V-14.2648H53.0071C52.9406 -17.1247 51.7435 -19.8515 49.7482 -21.8468C47.6865 -23.9085 44.9596 -25.1057 42.0333 -25.1722V-34.4169H41.3682ZM41.3682 -24.1081V-22.0463C39.639 -21.9798 37.9763 -21.3812 36.5796 -20.2506L37.1116 -19.7185C38.3088 -20.6496 39.8385 -21.1817 41.3682 -21.2482V-18.3218H42.0333C42.0333 -19.3195 42.0333 -20.2506 42.0333 -21.2482C43.563 -21.1817 45.0261 -20.6496 46.2898 -19.7185L46.8219 -20.2506C45.4917 -21.3147 43.7625 -21.9798 42.0333 -22.0463C42.0333 -22.7114 42.0333 -23.443 42.0333 -24.1081C44.4276 -24.0416 46.6889 -23.1104 48.4846 -21.5142C50.5463 -19.652 51.81 -17.0582 51.943 -14.2648C51.2779 -14.2648 50.6128 -14.2648 49.9478 -14.2648C49.8812 -15.9941 49.2162 -17.6568 48.152 -18.9869L47.5535 -18.4549C48.4846 -17.2577 49.0166 -15.7945 49.1497 -14.2648H46.1568V-13.5998C47.1544 -13.5998 48.152 -13.5998 49.1497 -13.5998C49.0832 -12.0701 48.5511 -10.5404 47.5535 -9.34323L48.0855 -8.81116C49.2162 -10.1413 49.8147 -11.8705 49.8813 -13.5998C50.5463 -13.5998 51.2114 -13.5998 51.8765 -13.5998C51.81 -10.8064 50.5463 -8.14607 48.4846 -6.28384C46.6889 -4.68764 44.3611 -3.75653 41.9668 -3.62351V-5.68527C43.696 -5.75178 45.3587 -6.35035 46.7554 -7.48099L46.2233 -8.01306C45.0261 -7.14845 43.563 -6.54988 42.0333 -6.48337V-9.47624H41.3682V-6.48337C39.8385 -6.54988 38.3088 -7.08194 37.1116 -8.07957C36.9121 -7.88004 36.7126 -7.74702 36.5796 -7.5475C37.9763 -6.48337 39.639 -5.81828 41.3682 -5.75178V-3.69002C38.7744 -3.75653 36.247 -4.82066 34.3848 -6.68289C32.5226 -8.54513 31.4584 -11.0059 31.3254 -13.5998C32.057 -13.5998 32.7221 -13.5998 33.4537 -13.5998C33.5202 -11.8705 34.1188 -10.2078 35.2494 -8.81116L35.7815 -9.34323C34.8504 -10.5404 34.2518 -12.0036 34.2518 -13.5998H37.2447V-14.2648H34.2518C34.3183 -15.7945 34.9169 -17.2577 35.848 -18.4549L35.3159 -18.9869C34.2518 -17.6568 33.5867 -15.9941 33.5202 -14.3313H31.3919C31.5249 -16.8587 32.5226 -19.3195 34.3848 -21.1152C36.1805 -22.9109 38.7078 -24.0416 41.3682 -24.1081Z" fill="#FF3C03"/>
</g>
<mask id="mask8_10_598" style="mask-type:luminance" maskUnits="userSpaceOnUse" x="0" y="0" width="28" height="29">
<path d="M27.4014 0.5H0V28.5H27.4014V0.5Z" fill="white"/>
</mask>
<g mask="url(#mask8_10_598)">
<path d="M13.9003 -34.4169V-25.1722C11.24 -25.1057 8.64614 -24.1081 6.65089 -22.3123C4.3231 -20.2506 2.99293 -17.3907 2.85992 -14.2648H-6.71729V-13.5998H2.85992C2.92643 -10.8064 4.05707 -8.21258 5.9193 -6.15083C7.98106 -3.95605 10.9074 -2.69239 13.9003 -2.55938V7.48338H14.5654V-2.62588C17.6913 -2.7589 20.5511 -4.08907 22.6794 -6.41686C24.4751 -8.41211 25.4728 -10.9394 25.5393 -13.5998H34.1188V-14.2648H25.4728C25.4728 -17.0582 24.2756 -19.785 22.2804 -21.7803C20.2186 -23.842 17.4918 -25.0392 14.5654 -25.1057V-34.4169H13.9003ZM13.9003 -24.1081V-22.0463C12.1711 -21.9798 10.5084 -21.3812 9.1117 -20.2506L9.64377 -19.7185C10.8409 -20.6496 12.3706 -21.1817 13.9003 -21.2482V-18.3218H14.5654C14.5654 -19.3195 14.5654 -20.2506 14.5654 -21.2482C16.0951 -21.1817 17.5583 -20.6496 18.8219 -19.7185L19.354 -20.2506C18.0238 -21.3147 16.2946 -21.9798 14.5654 -22.0463C14.5654 -22.7114 14.5654 -23.443 14.5654 -24.1081C16.9597 -24.0416 19.221 -23.1104 21.0167 -21.5142C23.0785 -19.652 24.3421 -17.0582 24.4751 -14.2648C23.81 -14.2648 23.145 -14.2648 22.4799 -14.2648C22.4134 -15.9941 21.7483 -17.6568 20.6842 -18.9869C20.4846 -18.7874 20.2851 -18.6544 20.1521 -18.4549C21.0832 -17.2577 21.6153 -15.7945 21.7483 -14.2648H18.7554C18.7554 -14.0653 18.7554 -13.7993 18.7554 -13.5998C19.753 -13.5998 20.7507 -13.5998 21.7483 -13.5998C21.6818 -12.0701 21.1497 -10.5404 20.1521 -9.34323L20.6842 -8.81116C21.8148 -10.1413 22.4134 -11.8705 22.4799 -13.5998C23.145 -13.5998 23.81 -13.5998 24.4751 -13.5998C24.4086 -10.8064 23.145 -8.14607 21.0832 -6.28384C19.2875 -4.68764 16.9597 -3.75653 14.5654 -3.62351V-5.68527C16.2946 -5.75178 17.9573 -6.35035 19.354 -7.48099L18.8219 -8.01306C17.6248 -7.14845 16.1616 -6.54988 14.6319 -6.48337V-9.47624H13.9668V-6.48337C12.4371 -6.54988 10.9739 -7.08194 9.71028 -8.07957C9.51075 -7.88004 9.31123 -7.74702 9.17821 -7.5475C10.5749 -6.48337 12.2376 -5.81828 13.9668 -5.75178V-3.69002C11.373 -3.75653 8.84567 -4.82066 6.98344 -6.68289C5.1212 -8.54513 4.05707 -11.0059 3.92405 -13.5998C4.65564 -13.5998 5.32073 -13.5998 6.05232 -13.5998C6.11883 -11.8705 6.7174 -10.2078 7.84804 -8.81116C8.04757 -9.01068 8.2471 -9.21021 8.38011 -9.34323C7.44899 -10.5404 6.85042 -12.0036 6.85042 -13.5998H9.84329V-14.2648H6.85042C6.91693 -15.7945 7.44899 -17.2577 8.44662 -18.4549L7.91455 -18.9869C6.85042 -17.6568 6.18534 -15.9941 6.11883 -14.2648H3.99056C4.12358 -16.7922 5.1212 -19.253 6.98344 -21.0487C8.71265 -22.9109 11.24 -24.0416 13.9003 -24.1081Z" fill="#FF3C03"/>
</g>
<mask id="mask9_10_598" style="mask-type:luminance" maskUnits="userSpaceOnUse" x="0" y="0" width="28" height="29">
<path d="M27.4014 0.5H0V28.5H27.4014V0.5Z" fill="white"/>
</mask>
<g mask="url(#mask9_10_598)">
<path d="M-13.5012 -34.4169V-25.1722C-16.1615 -25.1057 -18.7554 -24.1081 -20.7506 -22.3123C-23.0784 -20.2506 -24.4086 -17.3907 -24.5416 -14.2648H-34.1853V-13.5998H-24.6081C-24.5416 -10.8729 -23.4109 -8.21258 -21.5487 -6.21733C-19.487 -4.02256 -16.5606 -2.69239 -13.5012 -2.62588V7.41687H-12.8361V-2.62588C-9.71023 -2.7589 -6.85037 -4.08907 -4.7221 -6.41686C-2.92637 -8.41211 -1.92875 -10.9394 -1.86224 -13.5998H6.71733V-14.2648H-1.86224C-1.92875 -17.0582 -3.1259 -19.785 -5.12115 -21.7803C-7.18291 -23.842 -9.90975 -25.0392 -12.8361 -25.1057V-34.4169H-13.5012ZM-13.5012 -24.1081V-22.0463C-15.2304 -21.9798 -16.8931 -21.3812 -18.2898 -20.2506L-17.7577 -19.7185C-16.5606 -20.6496 -15.0309 -21.1817 -13.5012 -21.2482V-18.3218H-12.8361C-12.8361 -19.3195 -12.8361 -20.2506 -12.8361 -21.2482C-11.3064 -21.1817 -9.84325 -20.6496 -8.57959 -19.7185L-8.04752 -20.2506C-9.37769 -21.3147 -11.1069 -21.9798 -12.8361 -22.0463C-12.8361 -22.7114 -12.8361 -23.443 -12.8361 -24.1081C-10.4418 -24.0416 -8.18053 -23.1104 -6.38481 -21.5142C-4.32305 -19.652 -3.05939 -17.0582 -2.92638 -14.2648C-3.59146 -14.2648 -4.25654 -14.2648 -4.92163 -14.2648C-4.98814 -15.9941 -5.65322 -17.6568 -6.71735 -18.9869C-6.91688 -18.7874 -7.1164 -18.6544 -7.24942 -18.4549C-6.3183 -17.2577 -5.78624 -15.7945 -5.65322 -14.2648H-8.64609C-8.64609 -14.0653 -8.64609 -13.7993 -8.64609 -13.5998C-7.64847 -13.5998 -6.65084 -13.5998 -5.65322 -13.5998C-5.71973 -12.0701 -6.25179 -10.5404 -7.24942 -9.34323L-6.71735 -8.81116C-5.58671 -10.1413 -4.98814 -11.8705 -4.92163 -13.5998C-4.25654 -13.5998 -3.59146 -13.5998 -2.92638 -13.5998C-2.99289 -10.8064 -4.25654 -8.14607 -6.3183 -6.28384C-8.11403 -4.68764 -10.4418 -3.75653 -12.8361 -3.62351V-5.68527C-11.1069 -5.75178 -9.44419 -6.35035 -8.04752 -7.48099L-8.57959 -8.01306C-9.77674 -7.14845 -11.3064 -6.54988 -12.8361 -6.48337V-9.47624H-13.5012V-6.48337C-15.0309 -6.54988 -16.5606 -7.08194 -17.7577 -8.07957C-17.9573 -7.88004 -18.1568 -7.74702 -18.2898 -7.5475C-16.8931 -6.48337 -15.2304 -5.81828 -13.5012 -5.75178V-3.69002C-16.095 -3.75653 -18.6223 -4.82066 -20.4846 -6.68289C-22.3468 -8.54513 -23.4109 -11.0059 -23.544 -13.5998C-22.8124 -13.5998 -22.1473 -13.5998 -21.4157 -13.5998C-21.3492 -11.8705 -20.7506 -10.2078 -19.62 -8.81116C-19.4204 -9.01068 -19.2209 -9.21021 -19.0879 -9.34323C-20.019 -10.5404 -20.6176 -12.0036 -20.6176 -13.5998H-17.6247V-14.2648H-20.6176C-20.5511 -15.7945 -19.9525 -17.2577 -19.0214 -18.4549L-19.5535 -18.9869C-20.6176 -17.6568 -21.2827 -15.9941 -21.3492 -14.2648H-23.4775C-23.3444 -16.7922 -22.3468 -19.253 -20.4846 -21.0487C-18.6889 -22.9109 -16.1615 -24.0416 -13.5012 -24.1081Z" fill="#FF3C03"/>
</g>
</svg>
