<svg width="200" height="201" viewBox="0 0 200 201" fill="none" xmlns="http://www.w3.org/2000/svg">
<path d="M100.534 107.482H98.5469V134.144H100.534V107.482Z" fill="#B2A900"/>
<path d="M100.54 66.2656H98.5527V92.9275H100.54V66.2656Z" fill="#B2A900"/>
<path d="M133.646 99.2158H106.855V101.194H133.646V99.2158Z" fill="#B2A900"/>
<path d="M92.2343 99.2158H65.4434V101.194H92.2343V99.2158Z" fill="#B2A900"/>
<path d="M88.9392 142.863H56.6796V110.759H50.042V149.469H88.9392V142.863Z" fill="#171717"/>
<path d="M142.412 110.759V142.863H110.152V149.469H149.043V110.759H142.412Z" fill="#171717"/>
<path d="M56.6796 89.6497V57.5455H88.9392V50.9463H50.042V89.6497H56.6796Z" fill="#171717"/>
<path d="M110.152 57.5455H142.412V89.6497H149.043V50.9463H110.152V57.5455Z" fill="#171717"/>
<path d="M92.3425 115.819H83.8538V106.712H81.4248V118.236H92.3425V115.819Z" fill="#171717"/>
<path d="M115.237 106.712V115.819H105.417V118.236H117.666V106.712H115.237Z" fill="#171717"/>
<path d="M83.8538 93.7018V84.5882H92.3425V82.1709H81.4248V93.7018H83.8538Z" fill="#171717"/>
<path d="M105.417 84.5882H115.237V93.7018H117.666V82.1709H105.417V84.5882Z" fill="#171717"/>
<path d="M102.63 50.6426V66.4846H96.4602V50.6426H102.63ZM65.662 97.1345V103.275H49.9512V97.1345H65.662ZM149.295 97.1345V103.275H133.428V97.1345H149.295ZM102.63 133.925V149.986H96.4602V133.925H102.63Z" fill="#B2A900"/>
<g opacity="0.05">
<path d="M101.839 114.742H97.832V168.421H101.839V114.742Z" fill="#B2A900"/>
<path d="M101.839 31.7686H97.832V85.4478H101.839V31.7686Z" fill="#B2A900"/>
<path d="M168.486 98.0986H114.547V102.087H168.486V98.0986Z" fill="#B2A900"/>
<path d="M85.1197 98.0986H31.1807V102.087H85.1197V98.0986Z" fill="#B2A900"/>
<path d="M78.4816 185.978H13.5404V121.343H0.180664V199.267H78.4816V185.978Z" fill="#171717"/>
<path d="M186.133 121.343V185.978H121.186V199.267H199.487V121.343H186.133Z" fill="#171717"/>
<path d="M13.5404 78.8447V14.2163H78.4816V0.920898H0.180664V78.8447H13.5404Z" fill="#171717"/>
<path d="M121.186 14.2163H186.133V78.8447H199.487V0.920898H121.186V14.2163Z" fill="#171717"/>
<path d="M85.3393 131.536H68.2386V113.192H63.3545V136.403H85.3393V131.536Z" fill="#171717"/>
<path d="M131.425 113.192V131.536H111.655V136.403H136.316V113.192H131.425Z" fill="#171717"/>
<path d="M68.2386 87.0014V68.658H85.3393V63.791H63.3545V87.0014H68.2386Z" fill="#171717"/>
<path d="M111.655 68.658H131.425V87.0014H136.316V63.791H111.655V68.658Z" fill="#171717"/>
<path d="M106.047 0.319336V32.2102H93.6286V0.319336H106.047ZM31.6166 93.9171V106.275H0V93.9171H31.6166ZM200 93.9171V106.275H168.052V93.9171H200ZM106.047 167.982V200.319H93.6286V167.982H106.047Z" fill="#B2A900"/>
</g>
</svg>
