<svg width="24" height="24" viewBox="0 0 24 24" fill="none" xmlns="http://www.w3.org/2000/svg">
<path fill-rule="evenodd" clip-rule="evenodd" d="M5 20H19C21.2 20 23 18.2 23 16V7.99997C23 5.79997 21.2 3.99997 19 3.99997H5C2.8 3.99997 1 5.79997 1 7.99997V16C1 18.2 2.8 20 5 20ZM10.2003 12.1C10.7003 12.4 11.4003 12.6 12.0003 12.6C12.6003 12.6 13.3003 12.4 13.8003 12.2L18.8003 9.29996C19.3003 8.99996 19.5003 8.39996 19.2003 7.89996C18.9003 7.39996 18.3003 7.19996 17.8003 7.49996L12.8003 10.4C12.3003 10.7 11.6003 10.7 11.1003 10.4L6.10033 7.49996C5.70033 7.19996 5.00033 7.39996 4.80033 7.89996C4.50033 8.29996 4.70033 8.99996 5.20033 9.19996L10.2003 12.1Z" fill="#FF3C03"/>
</svg>
