<svg width="24" height="24" viewBox="0 0 24 24" fill="none" xmlns="http://www.w3.org/2000/svg">
<path d="M2.41125 9.83685C4.89396 15.2473 9.31163 19.549 14.804 21.881L15.6844 22.2735C17.6987 23.1714 20.0665 22.4892 21.2951 20.657L22.4456 18.9411C22.8197 18.3832 22.7058 17.6318 22.1832 17.21L18.2814 14.0603C17.7083 13.5977 16.8655 13.7055 16.4271 14.2974L15.22 15.9272C12.1227 14.3984 9.60809 11.8823 8.08025 8.78317L9.70902 7.57541C10.3006 7.13673 10.4083 6.29349 9.94597 5.72004L6.79806 1.81576C6.37658 1.293 5.62583 1.17897 5.06829 1.55304L3.34159 2.71151C1.49893 3.94777 0.820892 6.33659 1.73906 8.3574L2.41024 9.83464L2.41125 9.83685Z" fill="#FF3C03"/>
</svg>
