<svg width="25" height="25" viewBox="0 0 25 25" fill="none" xmlns="http://www.w3.org/2000/svg">
<path fill-rule="evenodd" clip-rule="evenodd" d="M11.7002 1.60003C14.3002 1.30003 16.8002 2.20003 18.7002 3.90003C20.5002 5.50003 21.5002 7.80003 21.5002 10.2C21.5002 12 21.0002 13.7 19.9002 15.2L14.8002 22.3C14.3002 23.1 13.4002 23.5 12.5002 23.5C11.6002 23.5 10.7002 23.1 10.3002 22.4L5.2002 15.3C3.7002 13.3 3.2002 10.9 3.7002 8.50003C4.4002 4.80003 7.7002 1.90003 11.7002 1.60003ZM15.9002 10.2C15.9002 12.0777 14.378 13.6 12.5002 13.6C10.6224 13.6 9.1002 12.0777 9.1002 10.2C9.1002 8.32221 10.6224 6.79998 12.5002 6.79998C14.378 6.79998 15.9002 8.32221 15.9002 10.2Z" fill="#FF3C03"/>
</svg>
