<svg width="18" height="18" viewBox="0 0 18 18" fill="none" xmlns="http://www.w3.org/2000/svg">
<path fill-rule="evenodd" clip-rule="evenodd" d="M9.1875 15.0487L8.24029 15.5723C6.18386 16.709 5.15565 17.2774 4.4839 16.8042C3.81216 16.3309 4.0013 15.1714 4.37958 12.8523L4.59375 11.5394L3.56758 10.4876C2.00537 8.88647 1.22426 8.0859 1.47861 7.32612C1.73296 6.56635 2.83863 6.39742 5.04997 6.05956L6.34841 5.86118L6.81124 4.87511C7.83952 2.68436 8.35366 1.58898 9.1875 1.58898C10.0213 1.58898 10.5355 2.68436 11.5638 4.87511L12.0266 5.86118L13.325 6.05956C15.5364 6.39742 16.642 6.56635 16.8964 7.32612C17.1507 8.0859 16.3696 8.88647 14.8074 10.4876L13.7812 11.5394L13.9954 12.8523C14.3737 15.1714 14.5628 16.3309 13.8911 16.8042C13.2194 17.2774 12.1911 16.709 10.1347 15.5723L9.1875 15.0487Z" fill="#EBEBEB" stroke="#EBEBEB" stroke-width="1.3125"/>
</svg>
